<svg width="115" height="32" viewBox="0 0 115 32" fill="none" xmlns="http://www.w3.org/2000/svg">
<path d="M12.9119 4.36359L22.9147 10.181V21.8189L12.9119 16.0014V4.36359Z" fill="url(#paint0_linear_1804_1283)"/>
<path d="M2.90894 10.1811L12.9089 16.0015V27.6363L2.90894 21.8189V10.1811Z" fill="url(#paint1_linear_1804_1283)"/>
<path fill-rule="evenodd" clip-rule="evenodd" d="M60.0087 11.5028V16.2979C59.2087 15.6192 58.1058 15.2754 56.9764 15.2754C54.4323 15.2754 52.7441 17.2847 52.7441 19.8482C52.7441 22.4117 54.394 24.5987 56.9381 24.5987C58.1793 24.5987 59.2205 24.2402 60.0087 23.6119V24.4802H62.2381V11.5028H60.0087ZM57.2117 22.9688C55.697 22.9688 54.7764 21.3744 54.7764 19.8482C54.7764 18.322 55.6999 16.9528 57.2146 16.9528C58.7323 16.9528 59.7881 17.9278 59.7881 19.8482C59.7881 21.9108 58.7264 22.9688 57.2117 22.9688Z" fill="#443D4E"/>
<path fill-rule="evenodd" clip-rule="evenodd" d="M92.3674 22.791C93.3821 21.6589 94.0086 19.9549 94.0086 17.833C94.0086 15.7585 93.3821 14.2649 92.3674 13.195C91.3527 12.1282 89.9233 11.5947 88.0851 11.5947H83.1175V24.4891H88.0851C89.9233 24.4891 91.3527 23.9231 92.3674 22.791ZM90.4821 14.5701C91.0792 15.4266 91.4439 16.3809 91.4439 17.913C91.4439 19.6556 91.0586 20.3194 90.438 21.1581C89.8204 21.9938 88.7704 22.5154 87.5792 22.5154H85.4027V13.2306H87.5439C88.7557 13.2306 89.888 13.7166 90.4821 14.5701Z" fill="#443D4E"/>
<path fill-rule="evenodd" clip-rule="evenodd" d="M37.9735 11.5972H31.2529L31.2559 24.4886H33.7206V19.2224H37.3432C37.3384 19.2422 37.6483 20.0994 38.0162 21.1168C38.5528 22.6011 39.2128 24.4263 39.1981 24.4886H39.1941C39.1962 24.4908 39.1976 24.4908 39.1981 24.4886H41.9529C41.9529 24.4916 39.5676 18.7779 39.5705 18.772C40.6088 18.1822 41.6029 16.9968 41.6205 15.3105C41.6352 14.0688 41.2705 13.2183 40.8499 12.7737C40.1146 11.9943 39.2352 11.5972 37.9735 11.5972ZM33.7176 17.6606V13.0434H37.2529C37.9852 13.0434 38.5147 13.242 38.8382 13.6361C39.1646 14.0303 39.3264 14.5341 39.3264 15.1475C39.3264 15.927 39.1441 16.407 38.7764 16.8071C38.4088 17.2102 37.8647 17.6606 37.1441 17.6606H33.7176Z" fill="#443D4E"/>
<path fill-rule="evenodd" clip-rule="evenodd" d="M50.6588 15.5421C49.95 14.9524 49.05 14.6116 47.5588 14.5879C46.7618 14.576 46 14.7449 45.2529 15.0502C44.5147 15.3524 43.753 15.9126 43.2265 16.3601L43.9882 17.4832C44.65 17.015 45.8294 16.2652 46.5265 16.1111C47.2029 15.9629 48.4735 16.0726 48.9441 16.5171C49.5588 17.098 49.7353 18.2034 49.3117 18.7961L47.9323 18.7635C46.0824 18.7635 44.7353 19.0421 43.8941 19.6022C43.053 20.1623 42.6324 20.9624 42.6324 21.9997C42.6324 22.8473 42.9 23.5111 43.4353 23.9882C43.9706 24.4654 44.75 24.7054 45.7706 24.7054C46.4441 24.7054 47.097 24.6106 47.6412 24.4061C48.1559 24.2105 48.7029 23.8786 49.3794 23.36L49.6029 24.492H51.9441C51.6882 23.8667 51.6323 22.8887 51.6323 22.059V18.1056C51.6323 16.9854 51.3676 16.1319 50.6588 15.5421ZM48.2118 23.0577C47.7765 23.2118 47.1176 23.2888 46.6382 23.2888C46.1441 23.2888 45.6912 23.1614 45.4794 22.9332C45.2618 22.702 45.1206 22.3109 45.1206 21.8397C45.1206 21.1906 45.3706 20.7165 45.8029 20.3401C46.2353 19.9637 47.0176 19.7859 47.9559 19.7859L49.2647 19.8274L49.2823 22.3109C48.9323 22.7228 48.6441 22.9036 48.2118 23.0577Z" fill="#443D4E"/>
<path d="M73.238 14.905H75.5174V16.3008C75.8909 15.8059 76.3468 15.4088 76.888 15.1065C77.4292 14.8072 78.0174 14.6561 78.6556 14.6561C79.7115 14.6561 80.488 15.0147 81.035 15.5688C81.5821 16.123 81.7321 17.0032 81.7321 18.0641V24.4921H79.3233V18.4435C79.3233 17.6196 79.3203 17.1454 79.0321 16.7809C78.7439 16.4164 78.2645 16.2682 77.7086 16.2653C77.2262 16.2623 76.6056 16.5024 76.1645 17.0091C75.9498 17.2551 75.5174 17.8182 75.5174 18.7191V24.4921H73.238V14.905Z" fill="#443D4E"/>
<path fill-rule="evenodd" clip-rule="evenodd" d="M101.585 24.492H95.1114V11.5977H101.008C102.294 11.5977 102.897 11.817 103.655 12.4186C104.411 13.0202 104.653 13.8766 104.753 14.499C104.838 15.0324 104.753 15.9155 104.473 16.366C104.161 16.8698 103.608 17.424 102.9 17.7292C103.838 17.9663 104.508 18.5976 104.814 19.0036C105.226 19.5518 105.314 20.3372 105.3 20.7817C105.258 22.0204 104.964 22.7524 104.264 23.4696C103.667 24.0831 102.8 24.492 101.585 24.492ZM102.488 15.2043C102.488 14.4486 102.305 13.8944 101.938 13.5417C101.57 13.1891 101.082 13.0113 100.467 13.0113H97.4967V17.1662H100.576C101.106 17.1662 101.555 17.0002 101.929 16.6712C102.3 16.3423 102.488 15.8533 102.488 15.2043ZM103.047 20.6365C103.047 19.9519 102.841 19.5577 102.432 19.214C102.023 18.8732 101.517 18.7013 100.917 18.7013H97.4938V23.0784H100.917C101.506 23.0784 102.008 22.8977 102.423 22.5391C102.838 22.1775 103.047 21.5433 103.047 20.6365Z" fill="#443D4E"/>
<path fill-rule="evenodd" clip-rule="evenodd" d="M63.2057 19.8244C63.2057 17.2609 65.1351 15.1835 67.6792 15.1835C70.2233 15.1835 72.2145 17.2609 72.2145 19.8244C72.2145 22.3879 70.2233 24.4653 67.6792 24.4653C65.1351 24.4653 63.2057 22.3879 63.2057 19.8244ZM65.1439 19.8274C65.1439 21.2825 66.2322 22.4649 67.6792 22.4649C69.1263 22.4649 70.2174 21.324 70.2174 19.8659C70.2174 18.4078 69.1263 17.1898 67.6792 17.1898C66.2351 17.1898 65.1439 18.3693 65.1439 19.8274Z" fill="#443D4E"/>
<path fill-rule="evenodd" clip-rule="evenodd" d="M109.629 14.2114L110.303 15.2457H110.782L110.088 14.2025C110.238 14.2025 110.75 14.0099 110.75 13.429C110.75 12.943 110.311 12.6319 109.873 12.6319H108.817V15.2457H109.211V14.2114H109.629ZM109.211 12.9638H109.873C110.1 12.9638 110.344 13.1357 110.344 13.4261C110.344 13.6958 110.097 13.8677 109.873 13.8677H109.211V12.9638Z" fill="#443D4E"/>
<path fill-rule="evenodd" clip-rule="evenodd" d="M107.429 13.9329C107.429 15.1924 108.444 16.2148 109.694 16.2148C110.953 16.2148 111.956 15.1924 111.958 13.9329C111.958 12.6615 110.953 11.6509 109.694 11.6509C108.444 11.6509 107.429 12.6645 107.429 13.9329ZM107.803 13.9329C107.803 12.866 108.647 12.0273 109.694 12.0273C110.738 12.0273 111.582 12.8689 111.585 13.9329C111.585 14.979 110.741 15.8384 109.694 15.8384C108.647 15.8384 107.803 14.976 107.803 13.9329Z" fill="#443D4E"/>
<defs>
<linearGradient id="paint0_linear_1804_1283" x1="22.915" y1="10.1815" x2="12.8738" y2="15.935" gradientUnits="userSpaceOnUse">
<stop stop-color="#C8FB56"/>
<stop offset="1" stop-color="#7FE58D"/>
</linearGradient>
<linearGradient id="paint1_linear_1804_1283" x1="12.9082" y1="16.0004" x2="2.87053" y2="21.7519" gradientUnits="userSpaceOnUse">
<stop stop-color="#B2D0FA"/>
<stop offset="1" stop-color="#63A9FF"/>
</linearGradient>
</defs>
</svg>
