<svg width="244" height="34" viewBox="0 0 244 34" fill="none" xmlns="http://www.w3.org/2000/svg">
<path d="M166.14 11.66V13.5H169.66V17.86C169.66 17.98 169.64 18.14 169.64 18.3H165.1V20.14H169.5C169.34 21.56 169.08 22.8 168.7 23.84C168.12 25.28 167.02 26.48 165.42 27.42L166.44 29.02C168.22 28.12 169.5 26.82 170.26 25.14C170.86 23.8 171.24 22.14 171.44 20.14H176.8V28.8H178.7V20.14H182.92V18.3H178.7V13.5H181.9V11.66H166.14ZM171.58 13.5H176.8V18.3H171.56C171.56 18.16 171.58 18.02 171.58 17.86V13.5ZM186.46 10.92L185.18 12.14C186.7 13.26 187.9 14.28 188.74 15.24L190.04 13.96C189.06 12.96 187.86 11.94 186.46 10.92ZM186.1 15.82L184.82 17.04C186.26 18.12 187.36 19.12 188.14 20.04L189.42 18.74C188.52 17.78 187.42 16.8 186.1 15.82ZM188.02 21.28C187.18 23.64 186.16 25.96 185 28.22L186.78 29C187.84 26.8 188.8 24.44 189.66 21.92L188.02 21.28ZM193.58 14.5V21.8H196.86V26.68C196.86 27.16 196.66 27.4 196.26 27.4C195.78 27.4 195.3 27.36 194.8 27.28L195.2 29H196.88C198.06 29 198.66 28.36 198.66 27.12V21.8H201.86V14.5H198.12C198.3 14 198.44 13.48 198.56 12.96H202.86V11.28H190.64V18.2C190.58 22.3 189.94 25.5 188.74 27.8L190.18 29.08C191.62 26.34 192.38 22.72 192.46 18.2V12.96H196.76C196.64 13.48 196.5 13.98 196.32 14.5H193.58ZM200.2 20.3H195.24V18.84H200.2V20.3ZM195.24 17.46V15.96H200.2V17.46H195.24ZM193.9 23.02C193.52 24.46 192.88 25.82 191.98 27.06L193.5 28.02C194.4 26.72 195.1 25.18 195.58 23.38L193.9 23.02ZM201.18 22.92L199.6 23.46C200.32 24.78 200.98 26.28 201.58 28L203.18 27.3C202.62 25.74 201.94 24.28 201.18 22.92ZM216.36 10.74V16.46H212.06V18.32H216.36V26.52H211.36V28.38H223.16V26.52H218.28V18.32H222.7V16.46H218.28V10.74H216.36ZM207.72 21.2V29.02H209.58V20.98C210.28 21.5 211 22.12 211.72 22.86L212.8 21.22C211.84 20.38 210.78 19.66 209.66 19.02C210.74 17.62 211.52 16.22 212.02 14.82V13.22H209.9C209.66 12.4 209.32 11.5 208.92 10.52L207.12 11.02C207.46 11.74 207.78 12.46 208.08 13.22H205.26V15.04H210.1C209.18 17.08 207.4 19.16 204.78 21.3L205.38 23.3C206.22 22.62 207 21.92 207.72 21.2ZM230.84 14.54L229.46 15.88C231.3 17.28 233 18.66 234.52 20.02C232.96 21.66 231.12 22.9 229.02 23.76L230.12 25.48C232.34 24.52 234.3 23.16 235.98 21.36C237.42 22.72 238.68 24.06 239.76 25.34L241.24 23.86C240.04 22.54 238.7 21.2 237.26 19.88C238.38 18.42 239.36 16.72 240.2 14.78L238.48 13.86C237.72 15.62 236.82 17.18 235.78 18.56C234.26 17.22 232.6 15.88 230.84 14.54ZM226.14 11.36V28.26H242.8V26.44H227.96V13.18H242.18V11.36H226.14Z" fill="white"/>
<g clip-path="url(#clip0)">
<path d="M14.8494 0L29.6988 8.49892V25.5011L14.8494 17.0022V0Z" fill="url(#paint0_linear)"/>
<path d="M0 8.49902L14.8494 17.0023V34.0001L0 25.5012V8.49902Z" fill="url(#paint1_linear)"/>
<path d="M42.0813 10.5685H52.0537C52.8497 10.5314 53.6443 10.6671 54.3818 10.9662C55.1194 11.2654 55.7822 11.7207 56.3238 12.3003C56.9482 12.9541 57.4896 14.1967 57.4677 16.0107C57.4559 17.0466 57.1667 18.0607 56.6297 18.9493C56.0926 19.8379 55.3271 20.569 54.4114 21.0677C54.4114 21.0677 57.948 29.428 57.948 29.4194H53.8525C54.0141 29.5839 51.032 21.6522 51.1062 21.7258H45.7358V29.4021H42.0813V10.5685ZM45.7358 12.6856V19.4268H50.8224C51.295 19.401 51.7568 19.277 52.178 19.063C52.5992 18.8489 52.9704 18.5495 53.2675 18.1842C53.5613 17.8554 53.785 17.4712 53.9253 17.0546C54.0656 16.6379 54.1196 16.1975 54.084 15.7596C54.1166 14.9613 53.8595 14.1779 53.3592 13.5516C52.8789 12.9743 52.0944 12.6856 51.0058 12.6856H45.7358Z" fill="white"/>
<path d="M66.2831 14.9369C68.4967 14.9715 69.8328 15.4694 70.8851 16.331C71.9373 17.1926 72.3346 18.4395 72.3346 20.0761V25.8517C72.3346 27.064 72.4132 28.4927 72.7974 29.4019H69.3045L68.9858 27.748C68.2049 28.3788 67.3356 28.8936 66.4053 29.2764C65.5124 29.5806 64.5725 29.7271 63.6284 29.7093C62.1134 29.7093 60.9563 29.3629 60.1617 28.6616C59.7595 28.2943 59.444 27.8434 59.238 27.3412C59.0319 26.839 58.9403 26.2978 58.9697 25.7564C58.9432 25.0608 59.1025 24.3705 59.4314 23.7554C59.7603 23.1404 60.2472 22.6224 60.8428 22.2538C62.0916 21.437 64.0913 21.0286 66.842 21.0286L68.8897 21.0718C69.5184 20.2059 69.2565 18.591 68.3439 17.7468C67.6453 17.0973 65.7635 16.9328 64.7549 17.1493C63.7463 17.3658 61.9693 18.4698 60.9869 19.1539L59.8561 17.513C60.7607 16.7271 61.7773 16.0779 62.8731 15.5863C63.9545 15.1457 65.114 14.9248 66.2831 14.9369ZM64.9165 27.6484C65.7077 27.652 66.4951 27.5382 67.2524 27.3107C67.8794 27.111 68.4325 26.7313 68.8417 26.2197L68.8111 22.5915L66.8725 22.5136C65.4797 22.5136 64.3139 22.7734 63.6721 23.3232C63.3422 23.5911 63.0791 23.9309 62.9034 24.3161C62.7277 24.7014 62.6441 25.1217 62.6592 25.5443C62.6302 26.124 62.8201 26.6936 63.1918 27.1419C63.6839 27.5162 64.2982 27.6966 64.9165 27.6484Z" fill="white"/>
<path d="M104.404 15.4003H107.788V17.4395C108.336 16.7266 109.029 16.1364 109.823 15.7077C110.625 15.2694 111.527 15.0428 112.442 15.0496C113.092 15.0217 113.74 15.1255 114.347 15.3548C114.955 15.5841 115.508 15.9341 115.975 16.3831C116.787 17.1927 117.009 18.4743 117.009 20.0286V29.4021H113.434V20.5655C113.434 19.3619 113.434 18.6735 112.997 18.1366C112.748 17.8725 112.442 17.6676 112.101 17.5371C111.761 17.4067 111.396 17.3541 111.032 17.3832C110.595 17.3989 110.166 17.5034 109.772 17.6903C109.378 17.8773 109.026 18.1427 108.74 18.47C108.119 19.1558 107.778 20.0465 107.784 20.9681V29.4021H104.4V15.4003H104.404Z" fill="white"/>
<path d="M135.238 19.6776C135.238 22.7776 134.308 25.2714 132.802 26.921C131.296 28.5705 129.174 29.4018 126.445 29.4018H119.07V10.5682H126.445C129.175 10.5682 131.294 11.3476 132.802 12.9062C134.308 14.4648 135.238 16.6469 135.238 19.6776ZM131.431 19.7902C131.431 17.5518 130.89 16.1577 130.008 14.9065C129.126 13.6552 127.445 12.9538 125.641 12.9538H122.463V26.5183H125.694C126.509 26.5383 127.317 26.3694 128.055 26.0252C128.792 25.6809 129.438 25.1708 129.942 24.5354C130.859 23.3101 131.422 22.3403 131.422 19.7902H131.431Z" fill="white"/>
<path d="M146.485 29.4018H136.88V10.5682H145.634C147.546 10.5682 148.442 10.8886 149.564 11.7632C150.476 12.5312 151.058 13.615 151.192 14.7939C151.329 15.7252 151.185 16.6758 150.777 17.5258C150.218 18.4063 149.409 19.1024 148.45 19.5261C149.576 19.8244 150.574 20.4778 151.293 21.3878C151.802 22.1571 152.054 23.066 152.013 23.9855C151.952 25.791 151.515 26.8647 150.481 27.9124C149.954 28.4195 149.327 28.8135 148.639 29.0698C147.952 29.326 147.219 29.439 146.485 29.4018ZM147.826 15.8373C147.826 14.7376 147.554 13.928 147.009 13.4084C146.414 12.8733 145.629 12.5945 144.826 12.6334H140.416V18.6948H144.988C145.725 18.7114 146.442 18.4534 146.996 17.9718C147.283 17.6975 147.506 17.3643 147.649 16.9956C147.793 16.6269 147.853 16.2315 147.826 15.8373ZM148.655 23.7691C148.687 23.376 148.621 22.9813 148.463 22.6196C148.304 22.2579 148.059 21.9405 147.747 21.6952C147.114 21.1838 146.315 20.9163 145.499 20.9419H140.416V27.3366H145.499C146.315 27.3567 147.11 27.0759 147.73 26.5486C148.347 26.0262 148.655 25.0997 148.655 23.7691Z" fill="white"/>
<path d="M96.1565 15.8073C92.3797 15.8073 89.5155 18.8379 89.5155 22.5873C89.5155 26.3367 92.3797 29.3674 96.1565 29.3674C97.9699 29.3674 99.709 28.6531 100.991 27.3816C102.274 26.1101 102.994 24.3855 102.994 22.5873C102.994 20.7891 102.274 19.0646 100.991 17.7931C99.709 16.5216 97.9699 15.8073 96.1565 15.8073ZM96.1565 26.4406C95.1259 26.4406 94.1375 26.0347 93.4087 25.312C92.68 24.5894 92.2706 23.6093 92.2706 22.5873C92.2706 21.5654 92.68 20.5853 93.4087 19.8626C94.1375 19.14 95.1259 18.734 96.1565 18.734C96.6622 18.743 97.1611 18.8511 97.6244 19.0522C98.0878 19.2532 98.5065 19.5432 98.8563 19.9054C99.2062 20.2676 99.4803 20.6949 99.6629 21.1626C99.8454 21.6303 99.9329 22.1293 99.9201 22.6306C99.9342 23.1282 99.8471 23.6235 99.6639 24.0869C99.4808 24.5503 99.2053 24.9724 98.8541 25.328C98.5028 25.6836 98.0829 25.9654 97.6195 26.1565C97.156 26.3477 96.6584 26.4443 96.1565 26.4406Z" fill="white"/>
<path d="M84.7652 10.4254V17.435C83.4877 16.4323 81.8969 15.9039 80.268 15.9413C76.4913 15.9413 73.9807 18.8767 73.9807 22.6218C73.9807 26.3668 76.4301 29.5491 80.2069 29.5491C81.8435 29.6077 83.4514 29.1114 84.7652 28.142V29.4062H88.0748V10.4254H84.7652ZM80.6173 27.1808C78.3687 27.1808 76.9978 24.8515 76.9978 22.6218C76.9978 20.392 78.3687 18.3918 80.6173 18.3918C82.8659 18.3918 84.4377 19.8162 84.4377 22.6218C84.4377 25.6308 82.8659 27.1808 80.6173 27.1808Z" fill="white"/>
</g>
<defs>
<linearGradient id="paint0_linear" x1="29.6988" y1="8.49892" x2="14.9122" y2="17.1101" gradientUnits="userSpaceOnUse">
<stop stop-color="#C8FB56"/>
<stop offset="1" stop-color="#7FE58D"/>
</linearGradient>
<linearGradient id="paint1_linear" x1="14.8494" y1="17.0023" x2="0.0627846" y2="25.6091" gradientUnits="userSpaceOnUse">
<stop stop-color="#B2D0FA"/>
<stop offset="1" stop-color="#63A9FF"/>
</linearGradient>
<clipPath id="clip0">
<rect width="152" height="34" fill="white"/>
</clipPath>
</defs>
</svg>
