<svg width="20" height="20" viewBox="0 0 20 20" fill="none" xmlns="http://www.w3.org/2000/svg">
<path fill-rule="evenodd" clip-rule="evenodd" d="M0.390849 7.2135H5.45611C5.37649 8.10688 5.33519 9.04022 5.33519 10C5.33519 10.9598 5.37649 11.8931 5.45611 12.7865H0.390849C0.136363 11.9018 0 10.9669 0 10C0 9.03313 0.136363 8.09819 0.390849 7.2135V7.2135Z" fill="white"/>
<path opacity="0.590216" fill-rule="evenodd" clip-rule="evenodd" d="M1.03955 5.54128C2.28258 3.03212 4.54211 1.11912 7.27763 0.344482C6.5364 1.61957 5.98003 3.4247 5.6568 5.54128H1.03955H1.03955Z" fill="white"/>
<path fill-rule="evenodd" clip-rule="evenodd" d="M19.6092 7.2135C19.8637 8.09819 20.0001 9.03313 20.0001 10C20.0001 10.9669 19.8637 11.9018 19.6092 12.7865H14.5439C14.6236 11.8931 14.6649 10.9598 14.6649 10C14.6649 9.04022 14.6236 8.10688 14.5439 7.2135L19.6092 7.2135Z" fill="white"/>
<path opacity="0.590216" fill-rule="evenodd" clip-rule="evenodd" d="M18.9605 5.5414H14.3432C14.02 3.42482 13.4636 1.61969 12.7224 0.344604C15.4579 1.11924 17.7175 3.03224 18.9605 5.5414Z" fill="white"/>
<path fill-rule="evenodd" clip-rule="evenodd" d="M7.13714 7.2135H12.8629C12.95 8.09739 12.9981 9.03224 12.9981 10C12.9981 10.9678 12.95 11.9026 12.8629 12.7865H7.13714C7.0501 11.9026 7.00195 10.9678 7.00195 10C7.00195 9.03224 7.0501 8.09739 7.13714 7.2135V7.2135Z" fill="white"/>
<path opacity="0.590216" fill-rule="evenodd" clip-rule="evenodd" d="M7.35645 5.5415C7.9021 2.25143 8.99046 0 9.99988 0C11.0093 0 12.0976 2.25143 12.6433 5.5415H7.35645H7.35645Z" fill="white"/>
<path opacity="0.590216" fill-rule="evenodd" clip-rule="evenodd" d="M1.03979 14.4585H5.65705C5.98027 16.5751 6.53665 18.3802 7.27787 19.6553C4.54235 18.8807 2.28282 16.9677 1.03979 14.4585V14.4585Z" fill="white"/>
<path opacity="0.590216" fill-rule="evenodd" clip-rule="evenodd" d="M18.9605 14.4585C17.7175 16.9677 15.4579 18.8807 12.7224 19.6553C13.4636 18.3802 14.02 16.5751 14.3432 14.4585H18.9605Z" fill="white"/>
<path opacity="0.590216" fill-rule="evenodd" clip-rule="evenodd" d="M7.35645 14.4585H12.6433C12.0976 17.7486 11.0093 20 9.99988 20C8.99046 20 7.9021 17.7486 7.35645 14.4585L7.35645 14.4585Z" fill="white"/>
</svg>
