<svg width="140" height="52" viewBox="0 0 140 52" fill="none" xmlns="http://www.w3.org/2000/svg">
<path d="M73.3648 7.63737C69.6621 10.0449 66.1218 8.1785 62.5309 8.45067C59.5813 9.66646 57.3697 8.23315 54.4781 9.60186C54.3988 14.6402 53.5122 4.50564 54.4179 7.45443C59.1284 7.39083 62.8144 5.30362 67.4086 7.37512C71.0554 6.03528 75.2231 7.93454 78.8655 6.59448C79.993 6.65357 81.7557 6.59606 83.0194 7.583C86.4161 6.23006 89.3531 7.60447 92.3824 7.30287C93.5177 7.21248 94.8295 7.28123 94.9201 10.3372C95.8159 6.42292 96.9766 9.37437 98.3884 7.61763C99.6009 7.23152 100.789 7.0619 102.242 5.6071C102.087 6.20924 102.375 6.68466 102.478 7.15042C106.186 5.8138 108.443 8.61499 111.699 7.25469C112.903 9.459 114.46 6.02902 114.864 10.3219C115.095 8.35337 116.046 8.09272 116.793 8.28174C118.029 13.3891 125.477 7.45664 126.527 13.7747C127.722 14.9079 128.841 11.6048 129.84 13.9483L130.129 13.2033C131.706 15.4272 134.025 12.0271 135.005 17.4207C134.771 17.1087 134.616 17.7108 134.412 17.9999C134.225 19.2106 134.709 19.5464 134.854 20.3141C135.561 18.8202 136.342 20.7026 136.942 21.1837C137.627 18.9285 133.832 23.0404 134.5 19.8743C136.159 21.792 134.59 19.447 136.056 22.4359C134.746 25.8681 136.556 21.3524 135.697 25.7397L137.861 27.7122C135.021 31.5353 139.211 28.3258 136.376 32.1491L137.669 33.9368C136.071 36.9042 137.76 33.4421 136.477 36.4261C137.466 40.3 135.008 35.6173 136.249 38.284C134.148 38.9339 135.501 39.4369 133.53 39.9438C132.373 39.2729 130.24 40.5315 129.025 39.7077C116.576 40.2758 101.154 42.7391 89.0327 43.0139C88.8284 43.3029 88.6609 44.065 88.427 43.7422C87.4508 43.2307 86.1367 44.3823 85.0706 44.3265L79.6305 44.0414C77.0532 45.2874 75.002 43.7988 72.3633 45.0416L51.0022 43.9221C49.968 43.2576 48.5822 45.7759 47.4354 43.7352C46.1036 43.9651 43.8391 42.9364 42.2671 44.2244C37.0057 41.3685 28.8183 45.2093 23.1576 45.5228C21.6437 42.0925 13.5584 45.9552 11.4862 44.6154C9.66443 43.4493 7.58529 43.5009 5.94232 41.2736C6.10472 36.9997 0.595879 37.9422 4.51314 33.8758C4.63052 32.8114 4.08863 32.3226 4.3489 30.9659C4.73696 29.6051 5.66506 31.0349 5.71116 28.8961C4.8802 26.8719 2.89661 29.9691 2.55047 25.8291C2.7612 25.801 2.97156 25.6567 3.16536 25.4072C3.35916 25.1576 3.53125 24.8096 3.6684 24.3897C3.80554 23.9699 3.90409 23.4895 3.95646 22.9854C4.00883 22.4813 4.01363 21.9669 3.97049 21.4819C3.61178 19.9322 2.53149 21.4065 2.27394 19.1019C3.90193 16.7463 6.37275 18.7065 7.62637 15.1001C7.42132 11.8775 5.8631 15.1682 5.66244 11.9459C6.82575 9.22332 7.85775 14.6304 8.79217 9.97944C11.0213 11.7664 12.7769 6.97647 14.5755 8.75157C21.2674 7.73191 36.7583 9.23755 42.9934 7.61583C43.1722 6.5546 44.3296 8.89151 44.1734 8.26237C43.9396 7.93964 44.3566 7.18711 44.1517 7.48685C45.3734 8.27181 41.5712 11.003 40.1336 9.55726C40.192 7.26923 41.1128 8.83774 41.5081 7.33821C42.8226 12.1392 45.0301 4.77134 46.2197 8.34525C49.0146 7.7316 52.0506 6.20987 54.7091 8.03004C56.7338 7.67579 57.8219 6.05197 59.6072 6.90566C63.9247 8.21324 69.2948 5.13299 73.3648 7.63737Z" fill="#71E38D"/>
</svg>
