<svg width="28" height="28" viewBox="0 0 28 28" fill="none" xmlns="http://www.w3.org/2000/svg">
<path d="M12.6002 11.9V23.625C12.6002 24.325 13.3002 24.85 14.0002 24.85C14.7002 24.85 15.4002 24.325 15.4002 23.45V11.725L20.1252 16.625C20.6502 17.15 21.5252 17.15 22.0502 16.625C22.5752 16.1 22.5752 15.225 22.0502 14.7L15.0502 7.70002C14.5252 7.17502 13.6502 7.17502 13.1252 7.70002L6.1252 14.7C5.6002 15.225 5.6002 16.1 6.1252 16.625C6.6502 17.15 7.5252 17.15 8.05019 16.625L12.6002 11.9C12.6002 11.9 12.7752 11.9 12.6002 11.9Z" fill="#326bf6"/>
<path d="M6.65 3.5H21.35C22.05 3.5 22.75 4.2 22.75 4.9C22.75 5.6 22.05 6.3 21.35 6.3H6.65C5.95 6.3 5.25 5.6 5.25 4.9C5.25 4.2 5.95 3.5 6.65 3.5Z" fill="#326bf6"/>
</svg>
