<svg width="516" height="1154" viewBox="0 0 516 1154" fill="none" xmlns="http://www.w3.org/2000/svg">
<g opacity="0.2">
<path opacity="0.2" d="M111.89 514.353L-0.0899658 451.797L-112.07 514.353V639.463L-0.0899658 702.028L111.89 639.463V514.353Z" stroke="#326BF6" stroke-width="0.5" stroke-linecap="round" stroke-linejoin="round"/>
<path opacity="0.99" d="M115.89 512.118L-0.0899658 447.327L-116.07 512.118V641.698L-0.0899658 706.498L115.89 641.698V512.118Z" stroke="#326BF6" stroke-width="0.5" stroke-miterlimit="10"/>
<path opacity="0.98" d="M119.89 509.882L-0.0899658 442.856L-120.07 509.882V643.934L-0.0899658 710.959L119.89 643.934V509.882Z" stroke="#326BF6" stroke-width="0.5" stroke-miterlimit="10"/>
<path opacity="0.97" d="M123.89 507.647L-0.0899658 438.386L-124.07 507.647V646.168L-0.0899658 715.429L123.89 646.168V507.647Z" stroke="#326BF6" stroke-width="0.5" stroke-miterlimit="10"/>
<path opacity="0.96" d="M127.89 505.412L-0.0899658 433.926L-128.07 505.412V648.404L-0.0899658 719.9L127.89 648.404V505.412Z" stroke="#326BF6" stroke-width="0.5" stroke-miterlimit="10"/>
<path opacity="0.95" d="M131.89 503.177L-0.0899658 429.455L-132.07 503.177V650.639L-0.0899658 724.37L131.89 650.639V503.177Z" stroke="#326BF6" stroke-width="0.5" stroke-miterlimit="10"/>
<path opacity="0.94" d="M135.89 500.951L-0.0899658 424.985L-136.07 500.951V652.874L-0.0899658 728.831L135.89 652.874V500.951Z" stroke="#326BF6" stroke-width="0.5" stroke-miterlimit="10"/>
<path opacity="0.93" d="M139.89 498.716L-0.0899658 420.515L-140.07 498.716V655.109L-0.0899658 733.301L139.89 655.109V498.716Z" stroke="#326BF6" stroke-width="0.5" stroke-miterlimit="10"/>
<path opacity="0.92" d="M143.88 496.481L-0.0899658 416.044L-144.07 496.481V657.345L-0.0899658 737.771L143.88 657.345V496.481Z" stroke="#326BF6" stroke-width="0.5" stroke-miterlimit="10"/>
<path opacity="0.91" d="M147.88 494.246L-0.0899658 411.574L-148.07 494.246V659.57L-0.0899658 742.241L147.88 659.57V494.246Z" stroke="#326BF6" stroke-width="0.5" stroke-miterlimit="10"/>
<path opacity="0.9" d="M151.88 492.011L-0.0899658 407.113L-152.07 492.011V661.805L-0.0899658 746.712L151.88 661.805V492.011Z" stroke="#326BF6" stroke-width="0.5" stroke-miterlimit="10"/>
<path opacity="0.89" d="M155.88 489.775L-0.0899658 402.643L-156.06 489.775V664.04L-0.0899658 751.182L155.88 664.04V489.775Z" stroke="#326BF6" stroke-width="0.5" stroke-miterlimit="10"/>
<path opacity="0.88" d="M159.88 487.54L-0.0899658 398.173L-160.06 487.54V666.275L-0.0899658 755.643L159.88 666.275V487.54Z" stroke="#326BF6" stroke-width="0.5" stroke-miterlimit="10"/>
<path opacity="0.87" d="M163.88 485.305L-0.0899658 393.702L-164.06 485.305V668.511L-0.0899658 760.113L163.88 668.511V485.305Z" stroke="#326BF6" stroke-width="0.5" stroke-miterlimit="10"/>
<path opacity="0.86" d="M167.88 483.07L-0.0899658 389.242L-168.06 483.07V670.746L-0.0899658 764.583L167.88 670.746V483.07Z" stroke="#326BF6" stroke-width="0.5" stroke-miterlimit="10"/>
<path opacity="0.85" d="M171.88 480.835L-0.0899658 384.771L-172.06 480.835V672.981L-0.0899658 769.054L171.88 672.981V480.835Z" stroke="#326BF6" stroke-width="0.5" stroke-miterlimit="10"/>
<path opacity="0.84" d="M175.88 478.609L-0.0899658 380.301L-176.06 478.609V675.216L-0.0899658 773.514L175.88 675.216V478.609Z" stroke="#326BF6" stroke-width="0.5" stroke-miterlimit="10"/>
<path opacity="0.83" d="M179.88 476.374L-0.0899658 375.831L-180.06 476.374V677.451L-0.0899658 777.985L179.88 677.451V476.374Z" stroke="#326BF6" stroke-width="0.5" stroke-miterlimit="10"/>
<path opacity="0.82" d="M183.88 474.139L-0.0899658 371.361L-184.06 474.139V679.686L-0.0899658 782.455L183.88 679.686V474.139Z" stroke="#326BF6" stroke-width="0.5" stroke-miterlimit="10"/>
<path opacity="0.81" d="M187.88 471.904L-0.0899658 366.9L-188.06 471.904V681.912L-0.0899658 786.925L187.88 681.912V471.904Z" stroke="#326BF6" stroke-width="0.5" stroke-miterlimit="10"/>
<path opacity="0.8" d="M191.88 469.669L-0.0899658 362.43L-192.06 469.669V684.147L-0.0899658 791.395L191.88 684.147V469.669Z" stroke="#326BF6" stroke-width="0.5" stroke-miterlimit="10"/>
<path opacity="0.79" d="M195.87 467.434L-0.0899658 357.959L-196.06 467.434V686.382L-0.0899658 795.856L195.87 686.382V467.434Z" stroke="#326BF6" stroke-width="0.5" stroke-miterlimit="10"/>
<path opacity="0.78" d="M199.87 465.198L-0.0899658 353.489L-200.06 465.198V688.617L-0.0899658 800.327L199.87 688.617V465.198Z" stroke="#326BF6" stroke-width="0.5" stroke-miterlimit="10"/>
<path opacity="0.77" d="M203.87 462.963L-0.0899658 349.028L-204.06 462.963V690.852L-0.0899658 804.797L203.87 690.852V462.963Z" stroke="#326BF6" stroke-width="0.5" stroke-miterlimit="10"/>
<path opacity="0.76" d="M207.87 460.728L-0.0899658 344.558L-208.05 460.728V693.088L-0.0899658 809.267L207.87 693.088V460.728Z" stroke="#326BF6" stroke-width="0.5" stroke-miterlimit="10"/>
<path opacity="0.75" d="M211.87 458.503L-0.0899658 340.088L-212.05 458.503V695.323L-0.0899658 813.728L211.87 695.323V458.503Z" stroke="#326BF6" stroke-width="0.5" stroke-miterlimit="10"/>
<path opacity="0.74" d="M215.87 456.267L-0.0899658 335.617L-216.05 456.267V697.558L-0.0899658 818.198L215.87 697.558V456.267Z" stroke="#326BF6" stroke-width="0.5" stroke-miterlimit="10"/>
<path opacity="0.73" d="M219.87 454.032L-0.0899658 331.147L-220.05 454.032V699.793L-0.0899658 822.668L219.87 699.793V454.032Z" stroke="#326BF6" stroke-width="0.5" stroke-miterlimit="10"/>
<path opacity="0.72" d="M223.87 451.797L-0.0899658 326.677L-224.05 451.797V702.019L-0.0899658 827.139L223.87 702.019V451.797Z" stroke="#326BF6" stroke-width="0.5" stroke-miterlimit="10"/>
<path opacity="0.71" d="M227.87 449.562L-0.0899658 322.216L-228.05 449.562V704.253L-0.0899658 831.609L227.87 704.253V449.562Z" stroke="#326BF6" stroke-width="0.5" stroke-miterlimit="10"/>
<path opacity="0.7" d="M231.87 447.327L-0.0899658 317.746L-232.05 447.327V706.489L-0.0899658 836.079L231.87 706.489V447.327Z" stroke="#326BF6" stroke-width="0.5" stroke-miterlimit="10"/>
<path opacity="0.69" d="M235.87 445.092L-0.0899658 313.276L-236.05 445.092V708.724L-0.0899658 840.54L235.87 708.724V445.092Z" stroke="#326BF6" stroke-width="0.5" stroke-miterlimit="10"/>
<path opacity="0.68" d="M239.86 442.856L-0.0899658 308.805L-240.05 442.856V710.959L-0.0899658 845.01L239.86 710.959V442.856Z" stroke="#326BF6" stroke-width="0.5" stroke-miterlimit="10"/>
<path opacity="0.67" d="M243.86 440.621L-0.0899658 304.345L-244.05 440.621V713.194L-0.0899658 849.48L243.86 713.194V440.621Z" stroke="#326BF6" stroke-width="0.5" stroke-miterlimit="10"/>
<path opacity="0.66" d="M247.86 438.396L-0.0899658 299.874L-248.05 438.396V715.429L-0.0899658 853.951L247.86 715.429V438.396Z" stroke="#326BF6" stroke-width="0.5" stroke-miterlimit="10"/>
<path opacity="0.65" d="M251.86 436.161L-0.0899658 295.404L-252.05 436.161V717.665L-0.0899658 858.412L251.86 717.665V436.161Z" stroke="#326BF6" stroke-width="0.5" stroke-miterlimit="10"/>
<path opacity="0.64" d="M255.86 433.926L-0.0899658 290.934L-256.05 433.926V719.9L-0.0899658 862.882L255.86 719.9V433.926Z" stroke="#326BF6" stroke-width="0.5" stroke-miterlimit="10"/>
<path opacity="0.63" d="M259.86 431.69L-0.0899658 286.463L-260.04 431.69V722.135L-0.0899658 867.352L259.86 722.135V431.69Z" stroke="#326BF6" stroke-width="0.5" stroke-miterlimit="10"/>
<path opacity="0.62" d="M263.86 429.455L-0.0899658 282.003L-264.04 429.455V724.361L-0.0899658 871.823L263.86 724.361V429.455Z" stroke="#326BF6" stroke-width="0.5" stroke-miterlimit="10"/>
<path opacity="0.61" d="M267.86 427.22L-0.0899658 277.532L-268.04 427.22V726.595L-0.0899658 876.293L267.86 726.595V427.22Z" stroke="#326BF6" stroke-width="0.5" stroke-miterlimit="10"/>
<path opacity="0.6" d="M271.86 424.985L-0.0899658 273.062L-272.04 424.985V728.831L-0.0899658 880.753L271.86 728.831V424.985Z" stroke="#326BF6" stroke-width="0.5" stroke-miterlimit="10"/>
<path opacity="0.59" d="M275.86 422.75L-0.0899658 268.592L-276.04 422.75V731.066L-0.0899658 885.224L275.86 731.066V422.75Z" stroke="#326BF6" stroke-width="0.5" stroke-miterlimit="10"/>
<path opacity="0.58" d="M279.86 420.515L-0.0899658 264.131L-280.04 420.515V733.301L-0.0899658 889.694L279.86 733.301V420.515Z" stroke="#326BF6" stroke-width="0.5" stroke-miterlimit="10"/>
<path opacity="0.57" d="M283.86 418.279L-0.0899658 259.661L-284.04 418.279V735.536L-0.0899658 894.165L283.86 735.536V418.279Z" stroke="#326BF6" stroke-width="0.5" stroke-miterlimit="10"/>
<path opacity="0.56" d="M287.86 416.044L-0.0899658 255.19L-288.04 416.044V737.771L-0.0899658 898.635L287.86 737.771V416.044Z" stroke="#326BF6" stroke-width="0.5" stroke-miterlimit="10"/>
<path opacity="0.55" d="M291.85 413.819L-0.0899658 250.72L-292.04 413.819V740.006L-0.0899658 903.095L291.85 740.006V413.819Z" stroke="#326BF6" stroke-width="0.5" stroke-miterlimit="10"/>
<path opacity="0.54" d="M295.85 411.584L-0.0899658 246.25L-296.04 411.584V742.242L-0.0899658 907.566L295.85 742.242V411.584Z" stroke="#326BF6" stroke-width="0.5" stroke-miterlimit="10"/>
<path opacity="0.53" d="M299.85 409.348L-0.0899658 241.789L-300.04 409.348V744.467L-0.0899658 912.036L299.85 744.467V409.348Z" stroke="#326BF6" stroke-width="0.5" stroke-miterlimit="10"/>
<path opacity="0.52" d="M303.85 407.113L-0.0899658 237.319L-304.04 407.113V746.702L-0.0899658 916.506L303.85 746.702V407.113Z" stroke="#326BF6" stroke-width="0.5" stroke-miterlimit="10"/>
<path opacity="0.51" d="M307.85 404.878L-0.0899658 232.849L-308.03 404.878V748.937L-0.0899658 920.977L307.85 748.937V404.878Z" stroke="#326BF6" stroke-width="0.5" stroke-miterlimit="10"/>
<path opacity="0.5" d="M311.85 402.643L-0.0899658 228.378L-312.03 402.643V751.173L-0.0899658 925.438L311.85 751.173V402.643Z" stroke="#326BF6" stroke-width="0.5" stroke-miterlimit="10"/>
<path opacity="0.5" d="M315.85 400.408L-0.0899658 223.908L-316.03 400.408V753.408L-0.0899658 929.908L315.85 753.408V400.408Z" stroke="#326BF6" stroke-width="0.5" stroke-miterlimit="10"/>
<path opacity="0.49" d="M319.85 398.173L-0.0899658 219.447L-320.03 398.173V755.643L-0.0899658 934.378L319.85 755.643V398.173Z" stroke="#326BF6" stroke-width="0.5" stroke-miterlimit="10"/>
<path opacity="0.48" d="M323.85 395.947L-0.0899658 214.977L-324.03 395.947V757.878L-0.0899658 938.848L323.85 757.878V395.947Z" stroke="#326BF6" stroke-width="0.5" stroke-miterlimit="10"/>
<path opacity="0.47" d="M327.85 393.712L-0.0899658 210.507L-328.03 393.712V760.113L-0.0899658 943.309L327.85 760.113V393.712Z" stroke="#326BF6" stroke-width="0.5" stroke-miterlimit="10"/>
<path opacity="0.46" d="M331.85 391.477L-0.0899658 206.036L-332.03 391.477V762.348L-0.0899658 947.779L331.85 762.348V391.477Z" stroke="#326BF6" stroke-width="0.5" stroke-miterlimit="10"/>
<path opacity="0.45" d="M335.85 389.242L-0.0899658 201.566L-336.03 389.242V764.584L-0.0899658 952.25L335.85 764.584V389.242Z" stroke="#326BF6" stroke-width="0.5" stroke-miterlimit="10"/>
<path opacity="0.44" d="M339.85 387.007L-0.0899658 197.105L-340.03 387.007V766.809L-0.0899658 956.72L339.85 766.809V387.007Z" stroke="#326BF6" stroke-width="0.5" stroke-miterlimit="10"/>
<path opacity="0.43" d="M343.84 384.771L-0.0899658 192.635L-344.03 384.771V769.044L-0.0899658 961.19L343.84 769.044V384.771Z" stroke="#326BF6" stroke-width="0.5" stroke-miterlimit="10"/>
<path opacity="0.42" d="M347.84 382.536L-0.0899658 188.165L-348.03 382.536V771.279L-0.0899658 965.651L347.84 771.279V382.536Z" stroke="#326BF6" stroke-width="0.5" stroke-miterlimit="10"/>
<path opacity="0.41" d="M351.84 380.301L-0.0899658 183.694L-352.03 380.301V773.515L-0.0899658 970.121L351.84 773.515V380.301Z" stroke="#326BF6" stroke-width="0.5" stroke-miterlimit="10"/>
<path opacity="0.4" d="M355.84 378.066L-0.0899658 179.224L-356.03 378.066V775.75L-0.0899658 974.591L355.84 775.75V378.066Z" stroke="#326BF6" stroke-width="0.5" stroke-miterlimit="10"/>
<path opacity="0.39" d="M359.84 375.831L-0.0899658 174.764L-360.02 375.831V777.985L-0.0899658 979.062L359.84 777.985V375.831Z" stroke="#326BF6" stroke-width="0.5" stroke-miterlimit="10"/>
<path opacity="0.38" d="M363.84 373.596L-0.0899658 170.293L-364.02 373.596V780.22L-0.0899658 983.532L363.84 780.22V373.596Z" stroke="#326BF6" stroke-width="0.5" stroke-miterlimit="10"/>
<path opacity="0.37" d="M367.84 371.37L-0.0899658 165.823L-368.02 371.37V782.455L-0.0899658 987.993L367.84 782.455V371.37Z" stroke="#326BF6" stroke-width="0.5" stroke-miterlimit="10"/>
<path opacity="0.36" d="M371.84 369.135L-0.0899658 161.353L-372.02 369.135V784.69L-0.0899658 992.463L371.84 784.69V369.135Z" stroke="#326BF6" stroke-width="0.5" stroke-miterlimit="10"/>
<path opacity="0.35" d="M375.84 366.9L-0.0899658 156.882L-376.02 366.9V786.916L-0.0899658 996.933L375.84 786.916V366.9Z" stroke="#326BF6" stroke-width="0.5" stroke-miterlimit="10"/>
<path opacity="0.34" d="M379.84 364.665L-0.0899658 152.422L-380.02 364.665V789.151L-0.0899658 1001.4L379.84 789.151V364.665Z" stroke="#326BF6" stroke-width="0.5" stroke-miterlimit="10"/>
<path opacity="0.33" d="M383.84 362.43L-0.0899658 147.951L-384.02 362.43V791.386L-0.0899658 1005.87L383.84 791.386V362.43Z" stroke="#326BF6" stroke-width="0.5" stroke-miterlimit="10"/>
<path opacity="0.32" d="M387.84 360.194L-0.0899658 143.481L-388.02 360.194V793.621L-0.0899658 1010.33L387.84 793.621V360.194Z" stroke="#326BF6" stroke-width="0.5" stroke-miterlimit="10"/>
<path opacity="0.31" d="M391.84 357.959L-0.0899658 139.011L-392.02 357.959V795.856L-0.0899658 1014.8L391.84 795.856V357.959Z" stroke="#326BF6" stroke-width="0.5" stroke-miterlimit="10"/>
<path opacity="0.3" d="M395.83 355.724L-0.0899658 134.55L-396.02 355.724V798.091L-0.0899658 1019.28L395.83 798.091V355.724Z" stroke="#326BF6" stroke-width="0.5" stroke-miterlimit="10"/>
<path opacity="0.29" d="M399.83 353.499L-0.0899658 130.08L-400.02 353.499V800.327L-0.0899658 1023.75L399.83 800.327V353.499Z" stroke="#326BF6" stroke-width="0.5" stroke-miterlimit="10"/>
<path opacity="0.28" d="M403.83 351.264L-0.0899658 125.609L-404.02 351.264V802.562L-0.0899658 1028.21L403.83 802.562V351.264Z" stroke="#326BF6" stroke-width="0.5" stroke-miterlimit="10"/>
<path opacity="0.27" d="M407.83 349.028L-0.0899658 121.139L-408.02 349.028V804.797L-0.0899658 1032.68L407.83 804.797V349.028Z" stroke="#326BF6" stroke-width="0.5" stroke-miterlimit="10"/>
<path opacity="0.26" d="M411.83 346.793L-0.0899658 116.669L-412.01 346.793V807.032L-0.0899658 1037.15L411.83 807.032V346.793Z" stroke="#326BF6" stroke-width="0.5" stroke-miterlimit="10"/>
<path opacity="0.25" d="M415.83 344.558L-0.0899658 112.208L-416.01 344.558V809.257L-0.0899658 1041.62L415.83 809.257V344.558Z" stroke="#326BF6" stroke-width="0.5" stroke-miterlimit="10"/>
<path opacity="0.24" d="M419.83 342.323L-0.0899658 107.738L-420.01 342.323V811.493L-0.0899658 1046.09L419.83 811.493V342.323Z" stroke="#326BF6" stroke-width="0.5" stroke-miterlimit="10"/>
<path opacity="0.23" d="M423.83 340.088L-0.0899658 103.267L-424.01 340.088V813.728L-0.0899658 1050.55L423.83 813.728V340.088Z" stroke="#326BF6" stroke-width="0.5" stroke-miterlimit="10"/>
<path opacity="0.22" d="M427.83 337.853L-0.0899658 98.7972L-428.01 337.853V815.963L-0.0899658 1055.02L427.83 815.963V337.853Z" stroke="#326BF6" stroke-width="0.5" stroke-miterlimit="10"/>
<path opacity="0.21" d="M431.83 335.617L-0.0899658 94.3269L-432.01 335.617V818.198L-0.0899658 1059.49L431.83 818.198V335.617Z" stroke="#326BF6" stroke-width="0.5" stroke-miterlimit="10"/>
<path opacity="0.2" d="M435.83 333.382L-0.0899658 89.8663L-436.01 333.382V820.433L-0.0899658 1063.96L435.83 820.433V333.382Z" stroke="#326BF6" stroke-width="0.5" stroke-miterlimit="10"/>
<path opacity="0.19" d="M439.83 331.147L-0.0899658 85.396L-440.01 331.147V822.668L-0.0899658 1068.42L439.83 822.668V331.147Z" stroke="#326BF6" stroke-width="0.5" stroke-miterlimit="10"/>
<path opacity="0.18" d="M443.82 328.922L-0.0899658 80.9257L-444.01 328.922V824.904L-0.0899658 1072.89L443.82 824.904V328.922Z" stroke="#326BF6" stroke-width="0.5" stroke-miterlimit="10"/>
<path opacity="0.17" d="M447.82 326.686L-0.0899658 76.4554L-448.01 326.686V827.139L-0.0899658 1077.36L447.82 827.139V326.686Z" stroke="#326BF6" stroke-width="0.5" stroke-miterlimit="10"/>
<path opacity="0.16" d="M451.82 324.451L-0.0899658 71.9851L-452.01 324.451V829.364L-0.0899658 1081.83L451.82 829.364V324.451Z" stroke="#326BF6" stroke-width="0.5" stroke-miterlimit="10"/>
<path opacity="0.15" d="M455.82 322.216L-0.0899658 67.5245L-456.01 322.216V831.6L-0.0899658 1086.3L455.82 831.6V322.216Z" stroke="#326BF6" stroke-width="0.5" stroke-miterlimit="10"/>
<path opacity="0.14" d="M459.82 319.981L-0.0899658 63.0541L-460.01 319.981V833.835L-0.0899658 1090.77L459.82 833.835V319.981Z" stroke="#326BF6" stroke-width="0.5" stroke-miterlimit="10"/>
<path opacity="0.13" d="M463.82 317.746L-0.0899658 58.5839L-464 317.746V836.07L-0.0899658 1095.23L463.82 836.07V317.746Z" stroke="#326BF6" stroke-width="0.5" stroke-miterlimit="10"/>
<path opacity="0.12" d="M467.82 315.511L-0.0899658 54.1135L-468 315.511V838.305L-0.0899658 1099.7L467.82 838.305V315.511Z" stroke="#326BF6" stroke-width="0.5" stroke-miterlimit="10"/>
<path opacity="0.11" d="M471.82 313.276L-0.0899658 49.653L-472 313.276V840.54L-0.0899658 1104.17L471.82 840.54V313.276Z" stroke="#326BF6" stroke-width="0.5" stroke-miterlimit="10"/>
<path opacity="0.1" d="M475.82 311.05L-0.0899658 45.1827L-476 311.05V842.775L-0.0899658 1108.64L475.82 842.775V311.05Z" stroke="#326BF6" stroke-width="0.5" stroke-miterlimit="10"/>
<path opacity="0.09" d="M479.82 308.815L-0.0899658 40.7123L-480 308.815V845.011L-0.0899658 1113.1L479.82 845.011V308.815Z" stroke="#326BF6" stroke-width="0.5" stroke-miterlimit="10"/>
<path opacity="0.08" d="M483.82 306.58L-0.0899658 36.2418L-484 306.58V847.245L-0.0899658 1117.57L483.82 847.245V306.58Z" stroke="#326BF6" stroke-width="0.5" stroke-miterlimit="10"/>
<path opacity="0.07" d="M487.82 304.345L-0.0899658 31.7716L-488 304.345V849.481L-0.0899658 1122.04L487.82 849.481V304.345Z" stroke="#326BF6" stroke-width="0.5" stroke-miterlimit="10"/>
<path opacity="0.06" d="M491.82 302.109L-0.0899658 27.311L-492 302.109V851.706L-0.0899658 1126.51L491.82 851.706V302.109Z" stroke="#326BF6" stroke-width="0.5" stroke-miterlimit="10"/>
<path opacity="0.05" d="M495.81 299.874L-0.0899658 22.8406L-496 299.874V853.941L-0.0899658 1130.98L495.81 853.941V299.874Z" stroke="#326BF6" stroke-width="0.5" stroke-miterlimit="10"/>
<path opacity="0.04" d="M499.81 297.639L-0.0899658 18.3704L-500 297.639V856.176L-0.0899658 1135.45L499.81 856.176V297.639Z" stroke="#326BF6" stroke-width="0.5" stroke-miterlimit="10"/>
<path opacity="0.03" d="M503.81 295.404L-0.0899658 13.9L-504 295.404V858.412L-0.0899658 1139.92L503.81 858.412V295.404Z" stroke="#326BF6" stroke-width="0.5" stroke-miterlimit="10"/>
<path opacity="0.02" d="M507.81 293.169L-0.0899658 9.42981L-508 293.169V860.647L-0.0899658 1144.39L507.81 860.647V293.169Z" stroke="#326BF6" stroke-width="0.5" stroke-miterlimit="10"/>
<path opacity="0.01" d="M511.81 290.934L-0.0899658 4.96912L-512 290.934V862.882L-0.0899658 1148.86L511.81 862.882V290.934Z" stroke="#326BF6" stroke-width="0.5" stroke-miterlimit="10"/>
</g>
<path opacity="0.1" d="M107 636.735L-0.0899658 576.908L107 517.091V636.735Z" fill="#326BF6"/>
<path opacity="0.1" d="M107 517.091L-0.0899658 576.908V457.264L107 517.091Z" fill="#326BF6"/>
<g opacity="0.1">
<g opacity="0.4">
<path opacity="0.4" d="M107 636.734L-0.0899658 576.908V696.561L107 636.734Z" fill="#326BF6"/>
</g>
</g>
<path opacity="0.1" d="M52.27 606.245L-0.0500488 577.014L52.27 547.792V606.245Z" fill="#326BF6"/>
<path opacity="0.1" d="M52.27 547.793L-0.0500488 577.014V518.562L52.27 547.793Z" fill="#326BF6"/>
<g opacity="0.1">
<g opacity="0.4">
<path opacity="0.4" d="M52.27 606.246L-0.0500488 577.014V635.467L52.27 606.246Z" fill="#326BF6"/>
</g>
</g>
</svg>
