<svg width="516" height="1153" viewBox="0 0 516 1153" fill="none" xmlns="http://www.w3.org/2000/svg">
<g opacity="0.2">
<path opacity="0.2" d="M627.89 513.915L515.91 451.359L403.93 513.915V639.025L515.91 701.59L627.89 639.025V513.915Z" stroke="#71E38D" stroke-width="0.5" stroke-linecap="round" stroke-linejoin="round"/>
<path opacity="0.99" d="M631.89 511.68L515.91 446.889L399.93 511.68V641.261L515.91 706.061L631.89 641.261V511.68Z" stroke="#71E38D" stroke-width="0.5" stroke-miterlimit="10"/>
<path opacity="0.98" d="M635.89 509.444L515.91 442.419L395.93 509.444V643.496L515.91 710.521L635.89 643.496V509.444Z" stroke="#71E38D" stroke-width="0.5" stroke-miterlimit="10"/>
<path opacity="0.97" d="M639.89 507.209L515.91 437.949L391.93 507.209V645.731L515.91 714.992L639.89 645.731V507.209Z" stroke="#71E38D" stroke-width="0.5" stroke-miterlimit="10"/>
<path opacity="0.96" d="M643.89 504.974L515.91 433.488L387.93 504.974V647.966L515.91 719.462L643.89 647.966V504.974Z" stroke="#71E38D" stroke-width="0.5" stroke-miterlimit="10"/>
<path opacity="0.95" d="M647.89 502.739L515.91 429.018L383.93 502.739V650.201L515.91 723.932L647.89 650.201V502.739Z" stroke="#71E38D" stroke-width="0.5" stroke-miterlimit="10"/>
<path opacity="0.94" d="M651.89 500.514L515.91 424.547L379.93 500.514V652.436L515.91 728.393L651.89 652.436V500.514Z" stroke="#71E38D" stroke-width="0.5" stroke-miterlimit="10"/>
<path opacity="0.93" d="M655.89 498.278L515.91 420.077L375.93 498.278V654.672L515.91 732.864L655.89 654.672V498.278Z" stroke="#71E38D" stroke-width="0.5" stroke-miterlimit="10"/>
<path opacity="0.92" d="M659.88 496.043L515.91 415.607L371.93 496.043V656.906L515.91 737.333L659.88 656.906V496.043Z" stroke="#71E38D" stroke-width="0.5" stroke-miterlimit="10"/>
<path opacity="0.91" d="M663.88 493.808L515.91 411.136L367.93 493.808V659.132L515.91 741.804L663.88 659.132V493.808Z" stroke="#71E38D" stroke-width="0.5" stroke-miterlimit="10"/>
<path opacity="0.9" d="M667.88 491.573L515.91 406.676L363.93 491.573V661.367L515.91 746.274L667.88 661.367V491.573Z" stroke="#71E38D" stroke-width="0.5" stroke-miterlimit="10"/>
<path opacity="0.89" d="M671.88 489.338L515.91 402.205L359.94 489.338V663.603L515.91 750.745L671.88 663.603V489.338Z" stroke="#71E38D" stroke-width="0.5" stroke-miterlimit="10"/>
<path opacity="0.88" d="M675.88 487.103L515.91 397.735L355.94 487.103V665.838L515.91 755.205L675.88 665.838V487.103Z" stroke="#71E38D" stroke-width="0.5" stroke-miterlimit="10"/>
<path opacity="0.87" d="M679.88 484.868L515.91 393.265L351.94 484.868V668.073L515.91 759.676L679.88 668.073V484.868Z" stroke="#71E38D" stroke-width="0.5" stroke-miterlimit="10"/>
<path opacity="0.86" d="M683.88 482.632L515.91 388.804L347.94 482.632V670.308L515.91 764.146L683.88 670.308V482.632Z" stroke="#71E38D" stroke-width="0.5" stroke-miterlimit="10"/>
<path opacity="0.85" d="M687.88 480.397L515.91 384.334L343.94 480.397V672.543L515.91 768.616L687.88 672.543V480.397Z" stroke="#71E38D" stroke-width="0.5" stroke-miterlimit="10"/>
<path opacity="0.84" d="M691.88 478.172L515.91 379.864L339.94 478.172V674.778L515.91 773.077L691.88 674.778V478.172Z" stroke="#71E38D" stroke-width="0.5" stroke-miterlimit="10"/>
<path opacity="0.83" d="M695.88 475.937L515.91 375.393L335.94 475.937V677.013L515.91 777.547L695.88 677.013V475.937Z" stroke="#71E38D" stroke-width="0.5" stroke-miterlimit="10"/>
<path opacity="0.82" d="M699.88 473.701L515.91 370.923L331.94 473.701V679.249L515.91 782.017L699.88 679.249V473.701Z" stroke="#71E38D" stroke-width="0.5" stroke-miterlimit="10"/>
<path opacity="0.81" d="M703.88 471.466L515.91 366.462L327.94 471.466V681.474L515.91 786.488L703.88 681.474V471.466Z" stroke="#71E38D" stroke-width="0.5" stroke-miterlimit="10"/>
<path opacity="0.8" d="M707.88 469.231L515.91 361.992L323.94 469.231V683.709L515.91 790.958L707.88 683.709V469.231Z" stroke="#71E38D" stroke-width="0.5" stroke-miterlimit="10"/>
<path opacity="0.79" d="M711.87 466.996L515.91 357.522L319.94 466.996V685.944L515.91 795.419L711.87 685.944V466.996Z" stroke="#71E38D" stroke-width="0.5" stroke-miterlimit="10"/>
<path opacity="0.78" d="M715.87 464.761L515.91 353.051L315.94 464.761V688.18L515.91 799.889L715.87 688.18V464.761Z" stroke="#71E38D" stroke-width="0.5" stroke-miterlimit="10"/>
<path opacity="0.77" d="M719.87 462.526L515.91 348.591L311.94 462.526V690.415L515.91 804.36L719.87 690.415V462.526Z" stroke="#71E38D" stroke-width="0.5" stroke-miterlimit="10"/>
<path opacity="0.76" d="M723.87 460.29L515.91 344.12L307.95 460.29V692.65L515.91 808.83L723.87 692.65V460.29Z" stroke="#71E38D" stroke-width="0.5" stroke-miterlimit="10"/>
<path opacity="0.75" d="M727.87 458.065L515.91 339.65L303.95 458.065V694.885L515.91 813.291L727.87 694.885V458.065Z" stroke="#71E38D" stroke-width="0.5" stroke-miterlimit="10"/>
<path opacity="0.74" d="M731.87 455.83L515.91 335.18L299.95 455.83V697.12L515.91 817.76L731.87 697.12V455.83Z" stroke="#71E38D" stroke-width="0.5" stroke-miterlimit="10"/>
<path opacity="0.73" d="M735.87 453.595L515.91 330.709L295.95 453.595V699.355L515.91 822.231L735.87 699.355V453.595Z" stroke="#71E38D" stroke-width="0.5" stroke-miterlimit="10"/>
<path opacity="0.72" d="M739.87 451.36L515.91 326.239L291.95 451.36V701.581L515.91 826.701L739.87 701.581V451.36Z" stroke="#71E38D" stroke-width="0.5" stroke-miterlimit="10"/>
<path opacity="0.71" d="M743.87 449.125L515.91 321.779L287.95 449.125V703.816L515.91 831.172L743.87 703.816V449.125Z" stroke="#71E38D" stroke-width="0.5" stroke-miterlimit="10"/>
<path opacity="0.7" d="M747.87 446.889L515.91 317.308L283.95 446.889V706.051L515.91 835.642L747.87 706.051V446.889Z" stroke="#71E38D" stroke-width="0.5" stroke-miterlimit="10"/>
<path opacity="0.69" d="M751.87 444.654L515.91 312.838L279.95 444.654V708.286L515.91 840.103L751.87 708.286V444.654Z" stroke="#71E38D" stroke-width="0.5" stroke-miterlimit="10"/>
<path opacity="0.68" d="M755.86 442.419L515.91 308.368L275.95 442.419V710.521L515.91 844.573L755.86 710.521V442.419Z" stroke="#71E38D" stroke-width="0.5" stroke-miterlimit="10"/>
<path opacity="0.67" d="M759.86 440.184L515.91 303.907L271.95 440.184V712.757L515.91 849.043L759.86 712.757V440.184Z" stroke="#71E38D" stroke-width="0.5" stroke-miterlimit="10"/>
<path opacity="0.66" d="M763.86 437.958L515.91 299.437L267.95 437.958V714.992L515.91 853.514L763.86 714.992V437.958Z" stroke="#71E38D" stroke-width="0.5" stroke-miterlimit="10"/>
<path opacity="0.65" d="M767.86 435.723L515.91 294.966L263.95 435.723V717.227L515.91 857.974L767.86 717.227V435.723Z" stroke="#71E38D" stroke-width="0.5" stroke-miterlimit="10"/>
<path opacity="0.64" d="M771.86 433.488L515.91 290.496L259.95 433.488V719.462L515.91 862.444L771.86 719.462V433.488Z" stroke="#71E38D" stroke-width="0.5" stroke-miterlimit="10"/>
<path opacity="0.63" d="M775.86 431.253L515.91 286.026L255.96 431.253V721.697L515.91 866.915L775.86 721.697V431.253Z" stroke="#71E38D" stroke-width="0.5" stroke-miterlimit="10"/>
<path opacity="0.62" d="M779.86 429.018L515.91 281.565L251.96 429.018V723.923L515.91 871.385L779.86 723.923V429.018Z" stroke="#71E38D" stroke-width="0.5" stroke-miterlimit="10"/>
<path opacity="0.61" d="M783.86 426.782L515.91 277.095L247.96 426.782V726.158L515.91 875.855L783.86 726.158V426.782Z" stroke="#71E38D" stroke-width="0.5" stroke-miterlimit="10"/>
<path opacity="0.6" d="M787.86 424.547L515.91 272.624L243.96 424.547V728.393L515.91 880.316L787.86 728.393V424.547Z" stroke="#71E38D" stroke-width="0.5" stroke-miterlimit="10"/>
<path opacity="0.59" d="M791.86 422.312L515.91 268.154L239.96 422.312V730.628L515.91 884.786L791.86 730.628V422.312Z" stroke="#71E38D" stroke-width="0.5" stroke-miterlimit="10"/>
<path opacity="0.58" d="M795.86 420.077L515.91 263.693L235.96 420.077V732.863L515.91 889.257L795.86 732.863V420.077Z" stroke="#71E38D" stroke-width="0.5" stroke-miterlimit="10"/>
<path opacity="0.57" d="M799.86 417.842L515.91 259.223L231.96 417.842V735.099L515.91 893.727L799.86 735.099V417.842Z" stroke="#71E38D" stroke-width="0.5" stroke-miterlimit="10"/>
<path opacity="0.56" d="M803.86 415.607L515.91 254.753L227.96 415.607V737.334L515.91 898.197L803.86 737.334V415.607Z" stroke="#71E38D" stroke-width="0.5" stroke-miterlimit="10"/>
<path opacity="0.55" d="M807.85 413.381L515.91 250.282L223.96 413.381V739.569L515.91 902.658L807.85 739.569V413.381Z" stroke="#71E38D" stroke-width="0.5" stroke-miterlimit="10"/>
<path opacity="0.54" d="M811.85 411.146L515.91 245.812L219.96 411.146V741.804L515.91 907.128L811.85 741.804V411.146Z" stroke="#71E38D" stroke-width="0.5" stroke-miterlimit="10"/>
<path opacity="0.53" d="M815.85 408.911L515.91 241.352L215.96 408.911V744.029L515.91 911.598L815.85 744.029V408.911Z" stroke="#71E38D" stroke-width="0.5" stroke-miterlimit="10"/>
<path opacity="0.52" d="M819.85 406.676L515.91 236.881L211.96 406.676V746.265L515.91 916.069L819.85 746.265V406.676Z" stroke="#71E38D" stroke-width="0.5" stroke-miterlimit="10"/>
<path opacity="0.51" d="M823.85 404.441L515.91 232.411L207.97 404.441V748.5L515.91 920.539L823.85 748.5V404.441Z" stroke="#71E38D" stroke-width="0.5" stroke-miterlimit="10"/>
<path opacity="0.5" d="M827.85 402.205L515.91 227.941L203.97 402.205V750.735L515.91 925L827.85 750.735V402.205Z" stroke="#71E38D" stroke-width="0.5" stroke-miterlimit="10"/>
<path opacity="0.5" d="M831.85 399.97L515.91 223.47L199.97 399.97V752.97L515.91 929.47L831.85 752.97V399.97Z" stroke="#71E38D" stroke-width="0.5" stroke-miterlimit="10"/>
<path opacity="0.49" d="M835.85 397.735L515.91 219.01L195.97 397.735V755.205L515.91 933.94L835.85 755.205V397.735Z" stroke="#71E38D" stroke-width="0.5" stroke-miterlimit="10"/>
<path opacity="0.48" d="M839.85 395.51L515.91 214.539L191.97 395.51V757.44L515.91 938.411L839.85 757.44V395.51Z" stroke="#71E38D" stroke-width="0.5" stroke-miterlimit="10"/>
<path opacity="0.47" d="M843.85 393.275L515.91 210.069L187.97 393.275V759.675L515.91 942.871L843.85 759.675V393.275Z" stroke="#71E38D" stroke-width="0.5" stroke-miterlimit="10"/>
<path opacity="0.46" d="M847.85 391.039L515.91 205.599L183.97 391.039V761.911L515.91 947.342L847.85 761.911V391.039Z" stroke="#71E38D" stroke-width="0.5" stroke-miterlimit="10"/>
<path opacity="0.45" d="M851.85 388.804L515.91 201.129L179.97 388.804V764.146L515.91 951.812L851.85 764.146V388.804Z" stroke="#71E38D" stroke-width="0.5" stroke-miterlimit="10"/>
<path opacity="0.44" d="M855.85 386.569L515.91 196.668L175.97 386.569V766.371L515.91 956.282L855.85 766.371V386.569Z" stroke="#71E38D" stroke-width="0.5" stroke-miterlimit="10"/>
<path opacity="0.43" d="M859.84 384.334L515.91 192.198L171.97 384.334V768.607L515.91 960.753L859.84 768.607V384.334Z" stroke="#71E38D" stroke-width="0.5" stroke-miterlimit="10"/>
<path opacity="0.42" d="M863.84 382.099L515.91 187.727L167.97 382.099V770.841L515.91 965.213L863.84 770.841V382.099Z" stroke="#71E38D" stroke-width="0.5" stroke-miterlimit="10"/>
<path opacity="0.41" d="M867.84 379.864L515.91 183.257L163.97 379.864V773.077L515.91 969.684L867.84 773.077V379.864Z" stroke="#71E38D" stroke-width="0.5" stroke-miterlimit="10"/>
<path opacity="0.4" d="M871.84 377.628L515.91 178.786L159.97 377.628V775.312L515.91 974.154L871.84 775.312V377.628Z" stroke="#71E38D" stroke-width="0.5" stroke-miterlimit="10"/>
<path opacity="0.39" d="M875.84 375.393L515.91 174.326L155.98 375.393V777.547L515.91 978.624L875.84 777.547V375.393Z" stroke="#71E38D" stroke-width="0.5" stroke-miterlimit="10"/>
<path opacity="0.38" d="M879.84 373.158L515.91 169.856L151.98 373.158V779.782L515.91 983.094L879.84 779.782V373.158Z" stroke="#71E38D" stroke-width="0.5" stroke-miterlimit="10"/>
<path opacity="0.37" d="M883.84 370.933L515.91 165.385L147.98 370.933V782.018L515.91 987.555L883.84 782.018V370.933Z" stroke="#71E38D" stroke-width="0.5" stroke-miterlimit="10"/>
<path opacity="0.36" d="M887.84 368.697L515.91 160.915L143.98 368.697V784.253L515.91 992.025L887.84 784.253V368.697Z" stroke="#71E38D" stroke-width="0.5" stroke-miterlimit="10"/>
<path opacity="0.35" d="M891.84 366.462L515.91 156.445L139.98 366.462V786.478L515.91 996.496L891.84 786.478V366.462Z" stroke="#71E38D" stroke-width="0.5" stroke-miterlimit="10"/>
<path opacity="0.34" d="M895.84 364.227L515.91 151.984L135.98 364.227V788.713L515.91 1000.97L895.84 788.713V364.227Z" stroke="#71E38D" stroke-width="0.5" stroke-miterlimit="10"/>
<path opacity="0.33" d="M899.84 361.992L515.91 147.514L131.98 361.992V790.948L515.91 1005.44L899.84 790.948V361.992Z" stroke="#71E38D" stroke-width="0.5" stroke-miterlimit="10"/>
<path opacity="0.32" d="M903.84 359.757L515.91 143.043L127.98 359.757V793.183L515.91 1009.9L903.84 793.183V359.757Z" stroke="#71E38D" stroke-width="0.5" stroke-miterlimit="10"/>
<path opacity="0.31" d="M907.84 357.522L515.91 138.573L123.98 357.522V795.419L515.91 1014.37L907.84 795.419V357.522Z" stroke="#71E38D" stroke-width="0.5" stroke-miterlimit="10"/>
<path opacity="0.3" d="M911.83 355.287L515.91 134.113L119.98 355.287V797.654L515.91 1018.84L911.83 797.654V355.287Z" stroke="#71E38D" stroke-width="0.5" stroke-miterlimit="10"/>
<path opacity="0.29" d="M915.83 353.061L515.91 129.642L115.98 353.061V799.889L515.91 1023.31L915.83 799.889V353.061Z" stroke="#71E38D" stroke-width="0.5" stroke-miterlimit="10"/>
<path opacity="0.28" d="M919.83 350.826L515.91 125.172L111.98 350.826V802.125L515.91 1027.77L919.83 802.125V350.826Z" stroke="#71E38D" stroke-width="0.5" stroke-miterlimit="10"/>
<path opacity="0.27" d="M923.83 348.591L515.91 120.702L107.98 348.591V804.359L515.91 1032.24L923.83 804.359V348.591Z" stroke="#71E38D" stroke-width="0.5" stroke-miterlimit="10"/>
<path opacity="0.26" d="M927.83 346.356L515.91 116.231L103.99 346.356V806.595L515.91 1036.71L927.83 806.595V346.356Z" stroke="#71E38D" stroke-width="0.5" stroke-miterlimit="10"/>
<path opacity="0.25" d="M931.83 344.12L515.91 111.771L99.99 344.12V808.82L515.91 1041.18L931.83 808.82V344.12Z" stroke="#71E38D" stroke-width="0.5" stroke-miterlimit="10"/>
<path opacity="0.24" d="M935.83 341.885L515.91 107.3L95.99 341.885V811.055L515.91 1045.65L935.83 811.055V341.885Z" stroke="#71E38D" stroke-width="0.5" stroke-miterlimit="10"/>
<path opacity="0.23" d="M939.83 339.65L515.91 102.83L91.99 339.65V813.29L515.91 1050.11L939.83 813.29V339.65Z" stroke="#71E38D" stroke-width="0.5" stroke-miterlimit="10"/>
<path opacity="0.22" d="M943.83 337.415L515.91 98.3596L87.99 337.415V815.525L515.91 1054.58L943.83 815.525V337.415Z" stroke="#71E38D" stroke-width="0.5" stroke-miterlimit="10"/>
<path opacity="0.21" d="M947.83 335.18L515.91 93.8894L83.99 335.18V817.761L515.91 1059.05L947.83 817.761V335.18Z" stroke="#71E38D" stroke-width="0.5" stroke-miterlimit="10"/>
<path opacity="0.2" d="M951.83 332.945L515.91 89.4287L79.99 332.945V819.996L515.91 1063.52L951.83 819.996V332.945Z" stroke="#71E38D" stroke-width="0.5" stroke-miterlimit="10"/>
<path opacity="0.19" d="M955.83 330.709L515.91 84.9584L75.99 330.709V822.231L515.91 1067.98L955.83 822.231V330.709Z" stroke="#71E38D" stroke-width="0.5" stroke-miterlimit="10"/>
<path opacity="0.18" d="M959.82 328.484L515.91 80.488L71.99 328.484V824.466L515.91 1072.45L959.82 824.466V328.484Z" stroke="#71E38D" stroke-width="0.5" stroke-miterlimit="10"/>
<path opacity="0.17" d="M963.82 326.249L515.91 76.0178L67.99 326.249V826.701L515.91 1076.92L963.82 826.701V326.249Z" stroke="#71E38D" stroke-width="0.5" stroke-miterlimit="10"/>
<path opacity="0.16" d="M967.82 324.014L515.91 71.5475L63.99 324.014V828.927L515.91 1081.39L967.82 828.927V324.014Z" stroke="#71E38D" stroke-width="0.5" stroke-miterlimit="10"/>
<path opacity="0.15" d="M971.82 321.779L515.91 67.0869L59.99 321.779V831.162L515.91 1085.86L971.82 831.162V321.779Z" stroke="#71E38D" stroke-width="0.5" stroke-miterlimit="10"/>
<path opacity="0.14" d="M975.82 319.543L515.91 62.6165L55.99 319.543V833.397L515.91 1090.33L975.82 833.397V319.543Z" stroke="#71E38D" stroke-width="0.5" stroke-miterlimit="10"/>
<path opacity="0.13" d="M979.82 317.308L515.91 58.1462L52 317.308V835.632L515.91 1094.79L979.82 835.632V317.308Z" stroke="#71E38D" stroke-width="0.5" stroke-miterlimit="10"/>
<path opacity="0.12" d="M983.82 315.073L515.91 53.676L48 315.073V837.867L515.91 1099.26L983.82 837.867V315.073Z" stroke="#71E38D" stroke-width="0.5" stroke-miterlimit="10"/>
<path opacity="0.11" d="M987.82 312.838L515.91 49.2152L44 312.838V840.102L515.91 1103.73L987.82 840.102V312.838Z" stroke="#71E38D" stroke-width="0.5" stroke-miterlimit="10"/>
<path opacity="0.1" d="M991.82 310.613L515.91 44.7451L40 310.613V842.338L515.91 1108.21L991.82 842.338V310.613Z" stroke="#71E38D" stroke-width="0.5" stroke-miterlimit="10"/>
<path opacity="0.09" d="M995.82 308.377L515.91 40.2747L36 308.377V844.573L515.91 1112.67L995.82 844.573V308.377Z" stroke="#71E38D" stroke-width="0.5" stroke-miterlimit="10"/>
<path opacity="0.08" d="M999.82 306.142L515.91 35.8043L32 306.142V846.808L515.91 1117.14L999.82 846.808V306.142Z" stroke="#71E38D" stroke-width="0.5" stroke-miterlimit="10"/>
<path opacity="0.07" d="M1003.82 303.907L515.91 31.334L28 303.907V849.043L515.91 1121.61L1003.82 849.043V303.907Z" stroke="#71E38D" stroke-width="0.5" stroke-miterlimit="10"/>
<path opacity="0.06" d="M1007.82 301.672L515.91 26.8734L24 301.672V851.269L515.91 1126.08L1007.82 851.269V301.672Z" stroke="#71E38D" stroke-width="0.5" stroke-miterlimit="10"/>
<path opacity="0.05" d="M1011.81 299.437L515.91 22.4031L20 299.437V853.504L515.91 1130.55L1011.81 853.504V299.437Z" stroke="#71E38D" stroke-width="0.5" stroke-miterlimit="10"/>
<path opacity="0.04" d="M1015.81 297.201L515.91 17.9327L16 297.201V855.739L515.91 1135.01L1015.81 855.739V297.201Z" stroke="#71E38D" stroke-width="0.5" stroke-miterlimit="10"/>
<path opacity="0.03" d="M1019.81 294.966L515.91 13.4624L12 294.966V857.974L515.91 1139.48L1019.81 857.974V294.966Z" stroke="#71E38D" stroke-width="0.5" stroke-miterlimit="10"/>
<path opacity="0.02" d="M1023.81 292.731L515.91 8.99219L8 292.731V860.209L515.91 1143.95L1023.81 860.209V292.731Z" stroke="#71E38D" stroke-width="0.5" stroke-miterlimit="10"/>
<path opacity="0.01" d="M1027.81 290.496L515.91 4.53149L4 290.496V862.445L515.91 1148.42L1027.81 862.445V290.496Z" stroke="#71E38D" stroke-width="0.5" stroke-miterlimit="10"/>
</g>
<path opacity="0.1" d="M623 636.297L515.91 576.47L623 516.653V636.297Z" fill="#71E38D"/>
<path opacity="0.2" d="M408.82 636.297L515.91 576.47L408.82 516.653V636.297Z" fill="#71E38D"/>
<path opacity="0.1" d="M623 516.653L515.91 576.47V456.826L623 516.653Z" fill="#71E38D"/>
<path opacity="0.2" d="M515.91 696.124V576.47L408.82 636.297L515.91 696.124Z" fill="#71E38D"/>
<g opacity="0.1">
<g opacity="0.4">
<path opacity="0.4" d="M515.91 456.826V576.47L408.82 516.653L515.91 456.826Z" fill="#71E38D"/>
</g>
<g opacity="0.4">
<path opacity="0.4" d="M623 636.297L515.91 576.47V696.124L623 636.297Z" fill="#71E38D"/>
</g>
</g>
<path opacity="0.1" d="M568.27 605.808L515.95 576.577L568.27 547.355V605.808Z" fill="#71E38D"/>
<path opacity="0.2" d="M463.63 605.808L515.95 576.577L463.63 547.355V605.808Z" fill="#71E38D"/>
<path opacity="0.1" d="M568.27 547.355L515.95 576.577V518.124L568.27 547.355Z" fill="#71E38D"/>
<path opacity="0.2" d="M515.95 635.029V576.577L463.63 605.808L515.95 635.029Z" fill="#71E38D"/>
<g opacity="0.1">
<g opacity="0.4">
<path opacity="0.4" d="M515.95 518.124V576.577L463.63 547.355L515.95 518.124Z" fill="#71E38D"/>
</g>
<g opacity="0.4">
<path opacity="0.4" d="M568.27 605.808L515.95 576.577V635.029L568.27 605.808Z" fill="#71E38D"/>
</g>
</g>
<path opacity="0.1" d="M363.28 692.002L343.34 680.855L363.28 669.708V692.002Z" fill="#71E38D"/>
<path opacity="0.2" d="M323.39 692.002L343.34 680.855L323.39 669.708V692.002Z" fill="#71E38D"/>
<path opacity="0.1" d="M363.28 669.708L343.34 680.855V658.571L363.28 669.708Z" fill="#71E38D"/>
<path opacity="0.2" d="M343.34 703.139V680.855L323.39 692.002L343.34 703.139Z" fill="#71E38D"/>
<g opacity="0.1">
<g opacity="0.4">
<path opacity="0.4" d="M343.34 658.571V680.855L323.39 669.708L343.34 658.571Z" fill="#71E38D"/>
</g>
<g opacity="0.4">
<path opacity="0.4" d="M363.28 692.002L343.34 680.855V703.139L363.28 692.002Z" fill="#71E38D"/>
</g>
</g>
<path opacity="0.1" d="M419.8 732.176L407.74 725.442L419.8 718.698V732.176Z" fill="#71E38D"/>
<path opacity="0.2" d="M395.68 732.176L407.74 725.442L395.68 718.698V732.176Z" fill="#71E38D"/>
<path opacity="0.1" d="M419.8 718.698L407.74 725.442V711.963L419.8 718.698Z" fill="#71E38D"/>
<path opacity="0.2" d="M407.74 738.911V725.442L395.68 732.176L407.74 738.911Z" fill="#71E38D"/>
<g opacity="0.1">
<g opacity="0.4">
<path opacity="0.4" d="M407.74 711.963V725.442L395.68 718.698L407.74 711.963Z" fill="#71E38D"/>
</g>
<g opacity="0.4">
<path opacity="0.4" d="M419.8 732.176L407.74 725.442V738.911L419.8 732.176Z" fill="#71E38D"/>
</g>
</g>
</svg>
