<svg width="16" height="16" viewBox="0 0 16 16" fill="none" xmlns="http://www.w3.org/2000/svg">
<path d="M4 6.66663H5.33333V8.66663H4V6.66663Z" fill="#324558"/>
<path d="M7.33333 6.66663H8.66667V8.66663H7.33333V6.66663Z" fill="#324558"/>
<path d="M12 6.66663H10.6667V8.66663H12V6.66663Z" fill="#324558"/>
<path fill-rule="evenodd" clip-rule="evenodd" d="M1.99998 2C1.63179 2 1.33331 2.29848 1.33331 2.66667V14.1273C1.33331 14.3751 1.59408 14.5363 1.81572 14.4255L3.9296 13.3685C3.97588 13.3454 4.02692 13.3333 4.07867 13.3333H14C14.3682 13.3333 14.6666 13.0349 14.6666 12.6667V2.66667C14.6666 2.29848 14.3682 2 14 2H1.99998ZM3.99998 6.66667H5.33331V8.66667H3.99998V6.66667ZM7.33331 6.66667H8.66665V8.66667H7.33331V6.66667ZM10.6666 6.66667H12V8.66667H10.6666V6.66667Z" fill="#B6C2CD"/>
</svg>
