<svg width="20" height="20" viewBox="0 0 20 20" fill="none" xmlns="http://www.w3.org/2000/svg">
<rect opacity="0.01" x="0.833374" y="0.833496" width="18.3333" height="18.3333" fill="#304357"/>
<path d="M10 0.833496C4.9652 0.833496 0.833374 4.96532 0.833374 10.0002C0.833374 14.2966 3.84818 18.1995 7.8516 19.1668V16.1341C7.45493 16.221 7.08986 16.2235 6.68605 16.1045C6.14432 15.9446 5.70414 15.5837 5.3774 15.0335C5.16913 14.6821 4.80001 14.3011 4.41494 14.3291L4.32053 13.259C5.15319 13.1877 5.87353 13.7664 6.30112 14.4847C6.49107 14.8042 6.70969 14.9915 6.99027 15.0743C7.26148 15.1542 7.5527 15.1159 7.89203 14.996C7.97721 14.3166 8.28842 14.0623 8.52355 13.7043V13.7037C6.13593 13.3476 5.18438 12.0809 4.80672 11.0811C4.30626 9.75357 4.57482 8.0951 5.45979 7.04704C5.47699 7.02662 5.50804 6.97319 5.49602 6.93584C5.09025 5.71014 5.58469 4.69621 5.60288 4.58865C6.07117 4.72712 6.14726 4.44933 7.63704 5.35445L7.89454 5.50915C8.00225 5.57335 7.9684 5.5367 8.0761 5.52859C8.69811 5.35962 9.35383 5.26633 9.9999 5.25793C10.6509 5.26633 11.3024 5.35962 11.9501 5.53544L12.0335 5.54383C12.0262 5.54271 12.0562 5.53852 12.1064 5.50859C13.9674 4.38136 13.9005 4.74978 14.3996 4.58753C14.4176 4.69523 14.9055 5.72567 14.5041 6.93584C14.4499 7.10257 16.1175 8.62956 15.1932 11.0807C14.8156 12.0809 13.8642 13.3476 11.4765 13.7037V13.7043C11.7826 14.1707 12.1503 14.4189 12.1483 15.3812V19.1668C16.1519 18.1995 19.1666 14.2966 19.1666 10.0002C19.1667 4.96532 15.0349 0.833496 10 0.833496Z" fill="white" fill-opacity="0.5"/>
</svg>
