<svg width="16" height="16" viewBox="0 0 16 16" fill="none" xmlns="http://www.w3.org/2000/svg">
<path fill-rule="evenodd" clip-rule="evenodd" d="M8.27912 7.07877C8.10729 7.18405 8.0278 7.31325 7.99031 7.44644C7.94454 7.60902 7.95373 7.80831 8.00533 8.02614C8.14116 7.66948 8.23456 7.35996 8.27127 7.13289C8.27436 7.11375 8.27696 7.09571 8.27912 7.07877ZM8.36966 8.8878C8.64371 8.2716 8.85948 7.67167 8.92939 7.2393C8.94785 7.12512 8.95801 7.01193 8.95309 6.90689C8.94838 6.8063 8.92873 6.68444 8.86358 6.57488C8.78947 6.45023 8.66682 6.36087 8.51095 6.33869C8.37437 6.31925 8.24509 6.35606 8.14054 6.40164C7.70399 6.59194 7.45124 6.9011 7.34858 7.2658C7.25111 7.61205 7.29816 7.97428 7.38178 8.27798C7.44643 8.51281 7.53828 8.73166 7.62578 8.91096C7.45169 9.28028 7.25647 9.65625 7.05575 10.0079C5.9787 10.2197 5.36268 10.6689 5.11674 11.1574C4.9505 11.4875 4.94436 11.8929 5.21687 12.1508C5.50341 12.4221 5.91707 12.3677 6.25398 12.1434C6.43023 12.0261 6.60971 11.839 6.78135 11.6272C6.95689 11.4105 7.14003 11.148 7.32119 10.8613C7.37224 10.7805 7.42334 10.6975 7.47427 10.6126C7.77161 10.5711 8.1141 10.5468 8.50754 10.5468C8.51697 10.5468 8.52636 10.5468 8.53571 10.5469C8.86285 11.0376 9.18312 11.3745 9.48068 11.5888C9.72873 11.7674 9.97602 11.8714 10.2083 11.8915C10.4431 11.9118 10.6755 11.8445 10.8339 11.6674C11.1697 11.2918 10.9633 10.7669 10.5897 10.4518C10.2475 10.1631 9.69655 9.94849 8.9122 9.89377C8.77284 9.65957 8.62917 9.38803 8.48347 9.07429L8.47167 9.04887L8.45603 9.02614L8.45582 9.02582L8.45405 9.02321C8.4523 9.0206 8.44941 9.01628 8.44551 9.01034C8.4377 8.99844 8.42587 8.98011 8.41096 8.9561C8.39897 8.93679 8.38504 8.91389 8.36966 8.8878ZM8.01345 9.635C7.9681 9.72427 7.92189 9.8133 7.87499 9.90171C7.96228 9.89551 8.05176 9.8906 8.14346 9.88704C8.10012 9.80592 8.05677 9.72193 8.01345 9.635ZM9.43959 10.641C9.59643 10.8228 9.74153 10.9551 9.87028 11.0478C10.0527 11.1792 10.1872 11.2205 10.2657 11.2273C10.2986 11.2301 10.3186 11.2272 10.3297 11.224C10.3346 11.1939 10.3305 11.1053 10.1599 10.9614C10.0221 10.8451 9.79141 10.7225 9.43959 10.641ZM6.53318 10.845C6.03975 11.0372 5.79994 11.2829 5.71219 11.4572C5.6474 11.5859 5.66766 11.6476 5.67539 11.6643C5.697 11.6701 5.75936 11.6718 5.88457 11.5884C5.97631 11.5274 6.10527 11.4026 6.26337 11.2075C6.34957 11.1011 6.44007 10.9793 6.53318 10.845ZM5.66634 11.6603C5.66634 11.6603 5.66792 11.6607 5.67069 11.6628C5.66766 11.6616 5.66634 11.6603 5.66634 11.6603Z" fill="#324558"/>
<path d="M7.99033 7.44643C8.02782 7.31324 8.10731 7.18403 8.27914 7.07875C8.27698 7.0957 8.27438 7.11373 8.27129 7.13288C8.23457 7.35995 8.14118 7.66947 8.00535 8.02612C7.95375 7.8083 7.94456 7.60901 7.99033 7.44643Z" fill="#B6C2CD"/>
<path d="M7.87501 9.90169C7.92191 9.81329 7.96812 9.72426 8.01347 9.63499C8.05679 9.72191 8.10014 9.8059 8.14348 9.88703C8.05178 9.89059 7.9623 9.8955 7.87501 9.90169Z" fill="#B6C2CD"/>
<path d="M9.8703 11.0478C9.74155 10.955 9.59645 10.8227 9.43961 10.641C9.79143 10.7225 10.0221 10.8451 10.1599 10.9613C10.3305 11.1053 10.3347 11.1939 10.3297 11.224C10.3186 11.2272 10.2986 11.2301 10.2657 11.2273C10.1873 11.2205 10.0527 11.1792 9.8703 11.0478Z" fill="#B6C2CD"/>
<path d="M5.71221 11.4572C5.79996 11.2829 6.03977 11.0372 6.5332 10.845C6.44009 10.9793 6.34959 11.1011 6.26339 11.2075C6.10529 11.4026 5.97633 11.5274 5.88459 11.5884C5.75938 11.6718 5.69702 11.67 5.67541 11.6643C5.66768 11.6476 5.64742 11.5858 5.71221 11.4572Z" fill="#B6C2CD"/>
<path d="M5.66636 11.6603C5.66636 11.6603 5.66794 11.6607 5.67071 11.6628C5.66768 11.6616 5.66636 11.6603 5.66636 11.6603Z" fill="#B6C2CD"/>
<path fill-rule="evenodd" clip-rule="evenodd" d="M2.66669 2.00004C2.66669 1.63185 2.96516 1.33337 3.33335 1.33337H9.33335L13.3334 5.33337V14C13.3334 14.3682 13.0349 14.6667 12.6667 14.6667H3.33335C2.96516 14.6667 2.66669 14.3682 2.66669 14V2.00004ZM8.92941 7.23929C8.8595 7.67166 8.64373 8.27158 8.36968 8.88779C8.38506 8.91388 8.39899 8.93677 8.41098 8.95608C8.42589 8.98009 8.43772 8.99843 8.44553 9.01032C8.44943 9.01627 8.45232 9.02059 8.45407 9.0232L8.45584 9.02581L8.45605 9.02613L8.47169 9.04886L8.48349 9.07428C8.62919 9.38802 8.77286 9.65956 8.91222 9.89376C9.69657 9.94848 10.2475 10.1631 10.5897 10.4518C10.9633 10.7669 11.1697 11.2918 10.8339 11.6674C10.6756 11.8445 10.4431 11.9118 10.2083 11.8914C9.97603 11.8714 9.72875 11.7674 9.4807 11.5887C9.18314 11.3744 8.86287 11.0376 8.53573 10.5468L8.50756 10.5468C8.11412 10.5468 7.77163 10.5711 7.47429 10.6126C7.42336 10.6975 7.37226 10.7805 7.32121 10.8613C7.14005 11.148 6.95691 11.4105 6.78137 11.6272C6.60973 11.839 6.43025 12.0261 6.254 12.1434C5.91709 12.3677 5.50343 12.4221 5.21689 12.1508C4.94438 11.8929 4.95052 11.4875 5.11676 11.1574C5.3627 10.6689 5.97872 10.2197 7.05577 10.0079C7.25649 9.65624 7.45171 9.28027 7.6258 8.91095C7.5383 8.73165 7.44645 8.5128 7.3818 8.27797C7.29818 7.97427 7.25113 7.61204 7.3486 7.26578C7.45126 6.90108 7.70401 6.59193 8.14055 6.40162C8.24511 6.35604 8.37439 6.31924 8.51097 6.33867C8.66684 6.36085 8.78949 6.45021 8.8636 6.57487C8.92874 6.68443 8.9484 6.80629 8.95311 6.90688C8.95803 7.01192 8.94787 7.12511 8.92941 7.23929Z" fill="#B6C2CD"/>
</svg>
