<svg width="16" height="16" viewBox="0 0 16 16" fill="none" xmlns="http://www.w3.org/2000/svg">
<rect opacity="0.01" width="16" height="16" fill="#242E42"/>
<path d="M8.00032 2.19885C6.03252 2.19885 4.4303 3.80047 4.4303 5.76886C4.4303 7.73608 6.03134 9.33831 8.00032 9.33831C9.96871 9.33831 11.5709 7.73609 11.5709 5.76886C11.5709 3.80047 9.96871 2.19885 8.00032 2.19885Z" fill="#242E42"/>
<path d="M10.7519 9.25684C9.9912 9.85812 9.04394 10.2307 8.00027 10.2307C6.95659 10.2307 6.00993 9.85697 5.24752 9.25684C3.80415 10.1758 2.79917 11.7896 2.66113 13.6586C3.1665 13.7273 4.0658 13.8012 5.34917 13.8012H10.649C11.933 13.8012 12.8329 13.7273 13.3388 13.6586C13.2019 11.7884 12.197 10.1758 10.7519 9.25684Z" fill="#242E42"/>
</svg>
