<svg width="16" height="16" viewBox="0 0 16 16" fill="none" xmlns="http://www.w3.org/2000/svg">
<path d="M14.3593 13.1953L12.7631 11.5197C12.5919 11.3466 12.3922 11.2601 12.1643 11.2601C11.936 11.2601 11.7367 11.3466 11.5656 11.5197C11.2233 11.8665 11.2233 12.4158 11.5656 12.7619L13.1621 14.4382C13.3333 14.6113 13.5326 14.6978 13.7609 14.6978C13.9888 14.6978 14.1885 14.6113 14.3593 14.4382C14.7016 14.0913 14.7016 13.5421 14.3593 13.1953ZM7.08949 1.23438C3.95351 1.23438 1.3877 3.8347 1.3877 7.01283C1.3877 10.1909 3.95351 12.7912 7.08949 12.7912C10.2255 12.7912 12.7913 10.1909 12.7913 7.01283C12.7913 3.8053 10.2255 1.23438 7.08949 1.23438ZM7.08949 10.865C4.99887 10.865 3.2883 9.13156 3.2883 7.01283C3.2883 4.89405 4.99887 3.16055 7.08949 3.16055C9.18019 3.16055 10.8907 4.87452 10.8907 7.01283C10.8907 9.13156 9.18019 10.865 7.08949 10.865Z" fill="#79879C"/>
</svg>
