<svg width="16" height="16" viewBox="0 0 16 16" fill="none" xmlns="http://www.w3.org/2000/svg">
<rect opacity="0.01" width="16" height="16" fill="#242E42"/>
<path fill-rule="evenodd" clip-rule="evenodd" d="M2 7.99933C2 4.68571 4.68571 2 7.99933 2C11.3143 2 14 4.68571 14 7.99933C14 11.3143 11.3143 14 8.00067 14C4.68705 14 2 11.313 2 7.99933ZM9.99286 10.4708C10.1468 10.4708 10.2981 10.4039 10.4025 10.2767C10.5873 10.0518 10.5538 9.7184 10.3289 9.53364L8.4465 7.99398V5.76615C8.4465 5.47428 8.20953 5.23731 7.91766 5.23731C7.62579 5.23731 7.38882 5.47428 7.38882 5.76615V8.24568C7.38884 8.40406 7.46014 8.55402 7.58295 8.65402L9.65815 10.3517C9.75722 10.432 9.87504 10.4708 9.99286 10.4708Z" fill="#242E42"/>
</svg>
