<svg width="59" height="28" viewBox="0 0 59 28" fill="none" xmlns="http://www.w3.org/2000/svg">
<path d="M42.3377 1.28158C41.0147 0.328949 39.169 1.27434 39.169 2.90459V25.0951C39.169 26.7254 41.0147 27.6708 42.3377 26.7181L57.7461 15.6228C58.8545 14.8247 58.8545 13.1749 57.7461 12.3768L42.3377 1.28158ZM24.5696 7.77264C24.5696 6.66807 25.4651 5.77264 26.5696 5.77264L34.6765 5.77264C35.781 5.77264 36.6765 6.66807 36.6765 7.77264V20.4001C36.6765 21.5047 35.781 22.4001 34.6765 22.4001H26.5696C25.4651 22.4001 24.5696 21.5047 24.5696 20.4001V7.77264ZM12.1067 7.77264C12.1067 6.66807 13.0022 5.77264 14.1067 5.77264H18.2967C19.4013 5.77264 20.2967 6.66807 20.2967 7.77264V20.4001C20.2967 21.5047 19.4013 22.4001 18.2967 22.4001H14.1067C13.0022 22.4001 12.1067 21.5047 12.1067 20.4001L12.1067 7.77264ZM0 7.77264C0 6.66807 0.89543 5.77264 2 5.77264H4.05333C5.1579 5.77264 6.05334 6.66807 6.05334 7.77264V20.4001C6.05334 21.5047 5.15791 22.4001 4.05334 22.4001H2C0.895433 22.4001 0 21.5047 0 20.4001L0 7.77264Z" fill="url(#paint0_linear)"/>
<defs>
<linearGradient id="paint0_linear" x1="-1.875" y1="13.9999" x2="60" y2="13.9999" gradientUnits="userSpaceOnUse">
<stop stop-color="#71E38D" stop-opacity="0"/>
<stop offset="1" stop-color="#71E38D"/>
</linearGradient>
</defs>
</svg>
