<svg width="486" height="1204" viewBox="0 0 486 1204" fill="none" xmlns="http://www.w3.org/2000/svg">
<g opacity="0.7">
<g opacity="0.2">
<path opacity="0.2" d="M84.8901 569.127L-27.0898 506.572L-139.07 569.127V694.238L-27.0898 756.803L84.8901 694.238V569.127Z" stroke="#326BF6" stroke-width="0.5" stroke-linecap="round" stroke-linejoin="round"/>
<path opacity="0.99" d="M88.8901 566.892L-27.0898 502.102L-143.07 566.892V696.473L-27.0898 761.273L88.8901 696.473V566.892Z" stroke="#326BF6" stroke-width="0.5" stroke-miterlimit="10"/>
<path opacity="0.98" d="M92.8901 564.657L-27.0898 497.631L-147.07 564.657V698.708L-27.0898 765.734L92.8901 698.708V564.657Z" stroke="#326BF6" stroke-width="0.5" stroke-miterlimit="10"/>
<path opacity="0.97" d="M96.8901 562.421L-27.0898 493.161L-151.07 562.421V700.943L-27.0898 770.204L96.8901 700.943V562.421Z" stroke="#326BF6" stroke-width="0.5" stroke-miterlimit="10"/>
<path opacity="0.96" d="M100.89 560.186L-27.0898 488.7L-155.07 560.186V703.178L-27.0898 774.674L100.89 703.178V560.186Z" stroke="#326BF6" stroke-width="0.5" stroke-miterlimit="10"/>
<path opacity="0.95" d="M104.89 557.951L-27.0898 484.23L-159.07 557.951V705.414L-27.0898 779.145L104.89 705.414V557.951Z" stroke="#326BF6" stroke-width="0.5" stroke-miterlimit="10"/>
<path opacity="0.94" d="M108.89 555.726L-27.0898 479.76L-163.07 555.726V707.649L-27.0898 783.605L108.89 707.649V555.726Z" stroke="#326BF6" stroke-width="0.5" stroke-miterlimit="10"/>
<path opacity="0.93" d="M112.89 553.491L-27.0898 475.289L-167.07 553.491V709.884L-27.0898 788.076L112.89 709.884V553.491Z" stroke="#326BF6" stroke-width="0.5" stroke-miterlimit="10"/>
<path opacity="0.92" d="M116.88 551.255L-27.0898 470.819L-171.07 551.255V712.119L-27.0898 792.546L116.88 712.119V551.255Z" stroke="#326BF6" stroke-width="0.5" stroke-miterlimit="10"/>
<path opacity="0.91" d="M120.88 549.021L-27.0898 466.349L-175.07 549.021V714.344L-27.0898 797.016L120.88 714.344V549.021Z" stroke="#326BF6" stroke-width="0.5" stroke-miterlimit="10"/>
<path opacity="0.9" d="M124.88 546.785L-27.0898 461.888L-179.07 546.785V716.58L-27.0898 801.486L124.88 716.58V546.785Z" stroke="#326BF6" stroke-width="0.5" stroke-miterlimit="10"/>
<path opacity="0.89" d="M128.88 544.55L-27.09 457.417L-183.06 544.55V718.815L-27.09 805.957L128.88 718.815V544.55Z" stroke="#326BF6" stroke-width="0.5" stroke-miterlimit="10"/>
<path opacity="0.88" d="M132.88 542.315L-27.09 452.947L-187.06 542.315V721.05L-27.09 810.417L132.88 721.05V542.315Z" stroke="#326BF6" stroke-width="0.5" stroke-miterlimit="10"/>
<path opacity="0.87" d="M136.88 540.08L-27.09 448.477L-191.06 540.08V723.285L-27.09 814.888L136.88 723.285V540.08Z" stroke="#326BF6" stroke-width="0.5" stroke-miterlimit="10"/>
<path opacity="0.86" d="M140.88 537.844L-27.09 444.016L-195.06 537.844V725.52L-27.09 819.358L140.88 725.52V537.844Z" stroke="#326BF6" stroke-width="0.5" stroke-miterlimit="10"/>
<path opacity="0.85" d="M144.88 535.609L-27.09 439.546L-199.06 535.609V727.755L-27.09 823.828L144.88 727.755V535.609Z" stroke="#326BF6" stroke-width="0.5" stroke-miterlimit="10"/>
<path opacity="0.84" d="M148.88 533.384L-27.09 435.076L-203.06 533.384V729.99L-27.09 828.289L148.88 729.99V533.384Z" stroke="#326BF6" stroke-width="0.5" stroke-miterlimit="10"/>
<path opacity="0.83" d="M152.88 531.149L-27.09 430.605L-207.06 531.149V732.226L-27.09 832.759L152.88 732.226V531.149Z" stroke="#326BF6" stroke-width="0.5" stroke-miterlimit="10"/>
<path opacity="0.82" d="M156.88 528.914L-27.09 426.135L-211.06 528.914V734.461L-27.09 837.23L156.88 734.461V528.914Z" stroke="#326BF6" stroke-width="0.5" stroke-miterlimit="10"/>
<path opacity="0.81" d="M160.88 526.678L-27.09 421.674L-215.06 526.678V736.686L-27.09 841.7L160.88 736.686V526.678Z" stroke="#326BF6" stroke-width="0.5" stroke-miterlimit="10"/>
<path opacity="0.8" d="M164.88 524.443L-27.09 417.204L-219.06 524.443V738.921L-27.09 846.17L164.88 738.921V524.443Z" stroke="#326BF6" stroke-width="0.5" stroke-miterlimit="10"/>
<path opacity="0.79" d="M168.87 522.208L-27.09 412.734L-223.06 522.208V741.157L-27.09 850.631L168.87 741.157V522.208Z" stroke="#326BF6" stroke-width="0.5" stroke-miterlimit="10"/>
<path opacity="0.78" d="M172.87 519.973L-27.09 408.264L-227.06 519.973V743.392L-27.09 855.101L172.87 743.392V519.973Z" stroke="#326BF6" stroke-width="0.5" stroke-miterlimit="10"/>
<path opacity="0.77" d="M176.87 517.738L-27.09 403.803L-231.06 517.738V745.627L-27.09 859.571L176.87 745.627V517.738Z" stroke="#326BF6" stroke-width="0.5" stroke-miterlimit="10"/>
<path opacity="0.76" d="M180.87 515.503L-27.09 399.333L-235.05 515.503V747.862L-27.09 864.042L180.87 747.862V515.503Z" stroke="#326BF6" stroke-width="0.5" stroke-miterlimit="10"/>
<path opacity="0.75" d="M184.87 513.277L-27.09 394.862L-239.05 513.277V750.097L-27.09 868.502L184.87 750.097V513.277Z" stroke="#326BF6" stroke-width="0.5" stroke-miterlimit="10"/>
<path opacity="0.74" d="M188.87 511.042L-27.09 390.392L-243.05 511.042V752.332L-27.09 872.973L188.87 752.332V511.042Z" stroke="#326BF6" stroke-width="0.5" stroke-miterlimit="10"/>
<path opacity="0.73" d="M192.87 508.807L-27.09 385.922L-247.05 508.807V754.567L-27.09 877.443L192.87 754.567V508.807Z" stroke="#326BF6" stroke-width="0.5" stroke-miterlimit="10"/>
<path opacity="0.72" d="M196.87 506.572L-27.09 381.451L-251.05 506.572V756.793L-27.09 881.913L196.87 756.793V506.572Z" stroke="#326BF6" stroke-width="0.5" stroke-miterlimit="10"/>
<path opacity="0.71" d="M200.87 504.336L-27.09 376.991L-255.05 504.336V759.028L-27.09 886.383L200.87 759.028V504.336Z" stroke="#326BF6" stroke-width="0.5" stroke-miterlimit="10"/>
<path opacity="0.7" d="M204.87 502.101L-27.09 372.52L-259.05 502.101V761.263L-27.09 890.854L204.87 761.263V502.101Z" stroke="#326BF6" stroke-width="0.5" stroke-miterlimit="10"/>
<path opacity="0.69" d="M208.87 499.866L-27.09 368.05L-263.05 499.866V763.498L-27.09 895.315L208.87 763.498V499.866Z" stroke="#326BF6" stroke-width="0.5" stroke-miterlimit="10"/>
<path opacity="0.68" d="M212.86 497.631L-27.09 363.58L-267.05 497.631V765.734L-27.09 899.785L212.86 765.734V497.631Z" stroke="#326BF6" stroke-width="0.5" stroke-miterlimit="10"/>
<path opacity="0.67" d="M216.86 495.396L-27.09 359.119L-271.05 495.396V767.969L-27.09 904.255L216.86 767.969V495.396Z" stroke="#326BF6" stroke-width="0.5" stroke-miterlimit="10"/>
<path opacity="0.66" d="M220.86 493.17L-27.09 354.649L-275.05 493.17V770.204L-27.09 908.726L220.86 770.204V493.17Z" stroke="#326BF6" stroke-width="0.5" stroke-miterlimit="10"/>
<path opacity="0.65" d="M224.86 490.935L-27.09 350.179L-279.05 490.935V772.439L-27.09 913.186L224.86 772.439V490.935Z" stroke="#326BF6" stroke-width="0.5" stroke-miterlimit="10"/>
<path opacity="0.64" d="M228.86 488.7L-27.09 345.708L-283.05 488.7V774.674L-27.09 917.657L228.86 774.674V488.7Z" stroke="#326BF6" stroke-width="0.5" stroke-miterlimit="10"/>
<path opacity="0.63" d="M232.86 486.465L-27.09 341.238L-287.04 486.465V776.909L-27.09 922.127L232.86 776.909V486.465Z" stroke="#326BF6" stroke-width="0.5" stroke-miterlimit="10"/>
<path opacity="0.62" d="M236.86 484.23L-27.09 336.777L-291.04 484.23V779.135L-27.09 926.597L236.86 779.135V484.23Z" stroke="#326BF6" stroke-width="0.5" stroke-miterlimit="10"/>
<path opacity="0.61" d="M240.86 481.994L-27.09 332.307L-295.04 481.994V781.37L-27.09 931.067L240.86 781.37V481.994Z" stroke="#326BF6" stroke-width="0.5" stroke-miterlimit="10"/>
<path opacity="0.6" d="M244.86 479.759L-27.09 327.837L-299.04 479.759V783.605L-27.09 935.528L244.86 783.605V479.759Z" stroke="#326BF6" stroke-width="0.5" stroke-miterlimit="10"/>
<path opacity="0.59" d="M248.86 477.524L-27.09 323.366L-303.04 477.524V785.84L-27.09 939.998L248.86 785.84V477.524Z" stroke="#326BF6" stroke-width="0.5" stroke-miterlimit="10"/>
<path opacity="0.58" d="M252.86 475.289L-27.09 318.905L-307.04 475.289V788.075L-27.09 944.469L252.86 788.075V475.289Z" stroke="#326BF6" stroke-width="0.5" stroke-miterlimit="10"/>
<path opacity="0.57" d="M256.86 473.054L-27.09 314.435L-311.04 473.054V790.311L-27.09 948.939L256.86 790.311V473.054Z" stroke="#326BF6" stroke-width="0.5" stroke-miterlimit="10"/>
<path opacity="0.56" d="M260.86 470.819L-27.09 309.965L-315.04 470.819V792.546L-27.09 953.409L260.86 792.546V470.819Z" stroke="#326BF6" stroke-width="0.5" stroke-miterlimit="10"/>
<path opacity="0.55" d="M264.85 468.593L-27.09 305.495L-319.04 468.593V794.781L-27.09 957.87L264.85 794.781V468.593Z" stroke="#326BF6" stroke-width="0.5" stroke-miterlimit="10"/>
<path opacity="0.54" d="M268.85 466.358L-27.09 301.024L-323.04 466.358V797.016L-27.09 962.34L268.85 797.016V466.358Z" stroke="#326BF6" stroke-width="0.5" stroke-miterlimit="10"/>
<path opacity="0.53" d="M272.85 464.123L-27.09 296.564L-327.04 464.123V799.242L-27.09 966.811L272.85 799.242V464.123Z" stroke="#326BF6" stroke-width="0.5" stroke-miterlimit="10"/>
<path opacity="0.52" d="M276.85 461.888L-27.09 292.094L-331.04 461.888V801.477L-27.09 971.281L276.85 801.477V461.888Z" stroke="#326BF6" stroke-width="0.5" stroke-miterlimit="10"/>
<path opacity="0.51" d="M280.85 459.653L-27.09 287.623L-335.03 459.653V803.712L-27.09 975.751L280.85 803.712V459.653Z" stroke="#326BF6" stroke-width="0.5" stroke-miterlimit="10"/>
<path opacity="0.5" d="M284.85 457.418L-27.09 283.153L-339.03 457.418V805.947L-27.09 980.212L284.85 805.947V457.418Z" stroke="#326BF6" stroke-width="0.5" stroke-miterlimit="10"/>
<path opacity="0.5" d="M288.85 455.182L-27.09 278.682L-343.03 455.182V808.182L-27.09 984.682L288.85 808.182V455.182Z" stroke="#326BF6" stroke-width="0.5" stroke-miterlimit="10"/>
<path opacity="0.49" d="M292.85 452.947L-27.09 274.222L-347.03 452.947V810.417L-27.09 989.152L292.85 810.417V452.947Z" stroke="#326BF6" stroke-width="0.5" stroke-miterlimit="10"/>
<path opacity="0.48" d="M296.85 450.722L-27.09 269.752L-351.03 450.722V812.653L-27.09 993.623L296.85 812.653V450.722Z" stroke="#326BF6" stroke-width="0.5" stroke-miterlimit="10"/>
<path opacity="0.47" d="M300.85 448.487L-27.09 265.281L-355.03 448.487V814.888L-27.09 998.083L300.85 814.888V448.487Z" stroke="#326BF6" stroke-width="0.5" stroke-miterlimit="10"/>
<path opacity="0.46" d="M304.85 446.251L-27.09 260.811L-359.03 446.251V817.123L-27.09 1002.55L304.85 817.123V446.251Z" stroke="#326BF6" stroke-width="0.5" stroke-miterlimit="10"/>
<path opacity="0.45" d="M308.85 444.016L-27.09 256.341L-363.03 444.016V819.358L-27.09 1007.02L308.85 819.358V444.016Z" stroke="#326BF6" stroke-width="0.5" stroke-miterlimit="10"/>
<path opacity="0.44" d="M312.85 441.781L-27.09 251.88L-367.03 441.781V821.583L-27.09 1011.49L312.85 821.583V441.781Z" stroke="#326BF6" stroke-width="0.5" stroke-miterlimit="10"/>
<path opacity="0.43" d="M316.84 439.546L-27.09 247.41L-371.03 439.546V823.819L-27.09 1015.96L316.84 823.819V439.546Z" stroke="#326BF6" stroke-width="0.5" stroke-miterlimit="10"/>
<path opacity="0.42" d="M320.84 437.311L-27.09 242.939L-375.03 437.311V826.054L-27.09 1020.43L320.84 826.054V437.311Z" stroke="#326BF6" stroke-width="0.5" stroke-miterlimit="10"/>
<path opacity="0.41" d="M324.84 435.076L-27.09 238.469L-379.03 435.076V828.289L-27.09 1024.9L324.84 828.289V435.076Z" stroke="#326BF6" stroke-width="0.5" stroke-miterlimit="10"/>
<path opacity="0.4" d="M328.84 432.84L-27.09 233.999L-383.03 432.84V830.524L-27.09 1029.37L328.84 830.524V432.84Z" stroke="#326BF6" stroke-width="0.5" stroke-miterlimit="10"/>
<path opacity="0.39" d="M332.84 430.605L-27.09 229.538L-387.02 430.605V832.759L-27.09 1033.84L332.84 832.759V430.605Z" stroke="#326BF6" stroke-width="0.5" stroke-miterlimit="10"/>
<path opacity="0.38" d="M336.84 428.37L-27.09 225.068L-391.02 428.37V834.994L-27.09 1038.31L336.84 834.994V428.37Z" stroke="#326BF6" stroke-width="0.5" stroke-miterlimit="10"/>
<path opacity="0.37" d="M340.84 426.145L-27.09 220.597L-395.02 426.145V837.23L-27.09 1042.77L340.84 837.23V426.145Z" stroke="#326BF6" stroke-width="0.5" stroke-miterlimit="10"/>
<path opacity="0.36" d="M344.84 423.91L-27.09 216.127L-399.02 423.91V839.465L-27.09 1047.24L344.84 839.465V423.91Z" stroke="#326BF6" stroke-width="0.5" stroke-miterlimit="10"/>
<path opacity="0.35" d="M348.84 421.674L-27.09 211.657L-403.02 421.674V841.69L-27.09 1051.71L348.84 841.69V421.674Z" stroke="#326BF6" stroke-width="0.5" stroke-miterlimit="10"/>
<path opacity="0.34" d="M352.84 419.439L-27.09 207.196L-407.02 419.439V843.925L-27.09 1056.18L352.84 843.925V419.439Z" stroke="#326BF6" stroke-width="0.5" stroke-miterlimit="10"/>
<path opacity="0.33" d="M356.84 417.204L-27.09 202.726L-411.02 417.204V846.161L-27.09 1060.65L356.84 846.161V417.204Z" stroke="#326BF6" stroke-width="0.5" stroke-miterlimit="10"/>
<path opacity="0.32" d="M360.84 414.969L-27.09 198.256L-415.02 414.969V848.396L-27.09 1065.11L360.84 848.396V414.969Z" stroke="#326BF6" stroke-width="0.5" stroke-miterlimit="10"/>
<path opacity="0.31" d="M364.84 412.734L-27.09 193.785L-419.02 412.734V850.631L-27.09 1069.58L364.84 850.631V412.734Z" stroke="#326BF6" stroke-width="0.5" stroke-miterlimit="10"/>
<path opacity="0.3" d="M368.83 410.499L-27.09 189.325L-423.02 410.499V852.866L-27.09 1074.05L368.83 852.866V410.499Z" stroke="#326BF6" stroke-width="0.5" stroke-miterlimit="10"/>
<path opacity="0.29" d="M372.83 408.273L-27.09 184.854L-427.02 408.273V855.101L-27.09 1078.52L372.83 855.101V408.273Z" stroke="#326BF6" stroke-width="0.5" stroke-miterlimit="10"/>
<path opacity="0.28" d="M376.83 406.038L-27.09 180.384L-431.02 406.038V857.336L-27.09 1082.98L376.83 857.336V406.038Z" stroke="#326BF6" stroke-width="0.5" stroke-miterlimit="10"/>
<path opacity="0.27" d="M380.83 403.803L-27.09 175.914L-435.02 403.803V859.572L-27.09 1087.45L380.83 859.572V403.803Z" stroke="#326BF6" stroke-width="0.5" stroke-miterlimit="10"/>
<path opacity="0.26" d="M384.83 401.568L-27.09 171.443L-439.01 401.568V861.807L-27.09 1091.92L384.83 861.807V401.568Z" stroke="#326BF6" stroke-width="0.5" stroke-miterlimit="10"/>
<path opacity="0.25" d="M388.83 399.332L-27.09 166.983L-443.01 399.332V864.032L-27.09 1096.39L388.83 864.032V399.332Z" stroke="#326BF6" stroke-width="0.5" stroke-miterlimit="10"/>
<path opacity="0.24" d="M392.83 397.097L-27.09 162.512L-447.01 397.097V866.267L-27.09 1100.86L392.83 866.267V397.097Z" stroke="#326BF6" stroke-width="0.5" stroke-miterlimit="10"/>
<path opacity="0.23" d="M396.83 394.862L-27.09 158.042L-451.01 394.862V868.502L-27.09 1105.32L396.83 868.502V394.862Z" stroke="#326BF6" stroke-width="0.5" stroke-miterlimit="10"/>
<path opacity="0.22" d="M400.83 392.627L-27.09 153.572L-455.01 392.627V870.738L-27.09 1109.79L400.83 870.738V392.627Z" stroke="#326BF6" stroke-width="0.5" stroke-miterlimit="10"/>
<path opacity="0.21" d="M404.83 390.392L-27.09 149.101L-459.01 390.392V872.973L-27.09 1114.26L404.83 872.973V390.392Z" stroke="#326BF6" stroke-width="0.5" stroke-miterlimit="10"/>
<path opacity="0.2" d="M408.83 388.157L-27.09 144.641L-463.01 388.157V875.208L-27.09 1118.73L408.83 875.208V388.157Z" stroke="#326BF6" stroke-width="0.5" stroke-miterlimit="10"/>
<path opacity="0.19" d="M412.83 385.922L-27.09 140.171L-467.01 385.922V877.443L-27.09 1123.19L412.83 877.443V385.922Z" stroke="#326BF6" stroke-width="0.5" stroke-miterlimit="10"/>
<path opacity="0.18" d="M416.82 383.696L-27.09 135.7L-471.01 383.696V879.678L-27.09 1127.66L416.82 879.678V383.696Z" stroke="#326BF6" stroke-width="0.5" stroke-miterlimit="10"/>
<path opacity="0.17" d="M420.82 381.461L-27.09 131.23L-475.01 381.461V881.913L-27.09 1132.13L420.82 881.913V381.461Z" stroke="#326BF6" stroke-width="0.5" stroke-miterlimit="10"/>
<path opacity="0.16" d="M424.82 379.226L-27.09 126.76L-479.01 379.226V884.139L-27.09 1136.6L424.82 884.139V379.226Z" stroke="#326BF6" stroke-width="0.5" stroke-miterlimit="10"/>
<path opacity="0.15" d="M428.82 376.991L-27.09 122.299L-483.01 376.991V886.374L-27.09 1141.08L428.82 886.374V376.991Z" stroke="#326BF6" stroke-width="0.5" stroke-miterlimit="10"/>
<path opacity="0.14" d="M432.82 374.755L-27.09 117.829L-487.01 374.755V888.609L-27.09 1145.55L432.82 888.609V374.755Z" stroke="#326BF6" stroke-width="0.5" stroke-miterlimit="10"/>
<path opacity="0.13" d="M436.82 372.52L-27.09 113.358L-491 372.52V890.844L-27.09 1150.01L436.82 890.844V372.52Z" stroke="#326BF6" stroke-width="0.5" stroke-miterlimit="10"/>
<path opacity="0.12" d="M440.82 370.285L-27.09 108.888L-495 370.285V893.079L-27.09 1154.48L440.82 893.079V370.285Z" stroke="#326BF6" stroke-width="0.5" stroke-miterlimit="10"/>
<path opacity="0.11" d="M444.82 368.05L-27.09 104.427L-499 368.05V895.315L-27.09 1158.95L444.82 895.315V368.05Z" stroke="#326BF6" stroke-width="0.5" stroke-miterlimit="10"/>
<path opacity="0.1" d="M448.82 365.825L-27.09 99.9573L-503 365.825V897.55L-27.09 1163.42L448.82 897.55V365.825Z" stroke="#326BF6" stroke-width="0.5" stroke-miterlimit="10"/>
<path opacity="0.09" d="M452.82 363.589L-27.09 95.4868L-507 363.589V899.785L-27.09 1167.88L452.82 899.785V363.589Z" stroke="#326BF6" stroke-width="0.5" stroke-miterlimit="10"/>
<path opacity="0.08" d="M456.82 361.354L-27.09 91.0164L-511 361.354V902.02L-27.09 1172.35L456.82 902.02V361.354Z" stroke="#326BF6" stroke-width="0.5" stroke-miterlimit="10"/>
<path opacity="0.07" d="M460.82 359.119L-27.09 86.5461L-515 359.119V904.255L-27.09 1176.82L460.82 904.255V359.119Z" stroke="#326BF6" stroke-width="0.5" stroke-miterlimit="10"/>
<path opacity="0.06" d="M464.82 356.884L-27.09 82.0856L-519 356.884V906.481L-27.09 1181.29L464.82 906.481V356.884Z" stroke="#326BF6" stroke-width="0.5" stroke-miterlimit="10"/>
<path opacity="0.05" d="M468.81 354.649L-27.09 77.6151L-523 354.649V908.716L-27.09 1185.76L468.81 908.716V354.649Z" stroke="#326BF6" stroke-width="0.5" stroke-miterlimit="10"/>
<path opacity="0.04" d="M472.81 352.414L-27.09 73.1449L-527 352.414V910.951L-27.09 1190.22L472.81 910.951V352.414Z" stroke="#326BF6" stroke-width="0.5" stroke-miterlimit="10"/>
<path opacity="0.03" d="M476.81 350.179L-27.09 68.6746L-531 350.179V913.186L-27.09 1194.69L476.81 913.186V350.179Z" stroke="#326BF6" stroke-width="0.5" stroke-miterlimit="10"/>
<path opacity="0.02" d="M480.81 347.943L-27.09 64.2043L-535 347.943V915.421L-27.09 1199.16L480.81 915.421V347.943Z" stroke="#326BF6" stroke-width="0.5" stroke-miterlimit="10"/>
<path opacity="0.01" d="M484.81 345.708L-27.09 59.7437L-539 345.708V917.657L-27.09 1203.63L484.81 917.657V345.708Z" stroke="#326BF6" stroke-width="0.5" stroke-miterlimit="10"/>
</g>
<path opacity="0.1" d="M80.0001 691.509L-27.0898 631.682L80.0001 571.865V691.509Z" fill="#326BF6"/>
<path opacity="0.1" d="M80.0001 571.865L-27.0898 631.682V512.039L80.0001 571.865Z" fill="#326BF6"/>
<g opacity="0.1">
<g opacity="0.4">
<path opacity="0.4" d="M79.9999 691.509L-27.0901 631.682V751.336L79.9999 691.509Z" fill="#326BF6"/>
</g>
</g>
<path opacity="0.1" d="M25.27 661.02L-27.05 631.789L25.27 602.567V661.02Z" fill="#326BF6"/>
<path opacity="0.1" d="M25.27 602.567L-27.05 631.789V573.336L25.27 602.567Z" fill="#326BF6"/>
<g opacity="0.1">
<g opacity="0.4">
<path opacity="0.4" d="M25.2698 661.02L-27.0503 631.789V690.242L25.2698 661.02Z" fill="#326BF6"/>
</g>
</g>
</g>
</svg>
