<svg width="620" height="1196" viewBox="0 0 620 1196" fill="none" xmlns="http://www.w3.org/2000/svg">
<g opacity="0.2">
<path opacity="0.2" d="M627.89 560.854L515.91 498.298L403.93 560.854V685.964L515.91 748.529L627.89 685.964V560.854Z" stroke="#71E38D" stroke-width="0.5" stroke-linecap="round" stroke-linejoin="round"/>
<path opacity="0.99" d="M631.89 558.619L515.91 493.828L399.93 558.619V688.2L515.91 753L631.89 688.2V558.619Z" stroke="#71E38D" stroke-width="0.5" stroke-miterlimit="10"/>
<path opacity="0.98" d="M635.89 556.383L515.91 489.358L395.93 556.383V690.435L515.91 757.46L635.89 690.435V556.383Z" stroke="#71E38D" stroke-width="0.5" stroke-miterlimit="10"/>
<path opacity="0.97" d="M639.89 554.148L515.91 484.887L391.93 554.148V692.67L515.91 761.931L639.89 692.67V554.148Z" stroke="#71E38D" stroke-width="0.5" stroke-miterlimit="10"/>
<path opacity="0.96" d="M643.89 551.913L515.91 480.427L387.93 551.913V694.905L515.91 766.401L643.89 694.905V551.913Z" stroke="#71E38D" stroke-width="0.5" stroke-miterlimit="10"/>
<path opacity="0.95" d="M647.89 549.678L515.91 475.956L383.93 549.678V697.14L515.91 770.871L647.89 697.14V549.678Z" stroke="#71E38D" stroke-width="0.5" stroke-miterlimit="10"/>
<path opacity="0.94" d="M651.89 547.452L515.91 471.486L379.93 547.452V699.375L515.91 775.332L651.89 699.375V547.452Z" stroke="#71E38D" stroke-width="0.5" stroke-miterlimit="10"/>
<path opacity="0.93" d="M655.89 545.217L515.91 467.016L375.93 545.217V701.611L515.91 779.802L655.89 701.611V545.217Z" stroke="#71E38D" stroke-width="0.5" stroke-miterlimit="10"/>
<path opacity="0.92" d="M659.88 542.982L515.91 462.545L371.93 542.982V703.845L515.91 784.272L659.88 703.845V542.982Z" stroke="#71E38D" stroke-width="0.5" stroke-miterlimit="10"/>
<path opacity="0.91" d="M663.88 540.747L515.91 458.075L367.93 540.747V706.071L515.91 788.743L663.88 706.071V540.747Z" stroke="#71E38D" stroke-width="0.5" stroke-miterlimit="10"/>
<path opacity="0.9" d="M667.88 538.512L515.91 453.615L363.93 538.512V708.306L515.91 793.213L667.88 708.306V538.512Z" stroke="#71E38D" stroke-width="0.5" stroke-miterlimit="10"/>
<path opacity="0.89" d="M671.88 536.277L515.91 449.144L359.94 536.277V710.541L515.91 797.683L671.88 710.541V536.277Z" stroke="#71E38D" stroke-width="0.5" stroke-miterlimit="10"/>
<path opacity="0.88" d="M675.88 534.041L515.91 444.674L355.94 534.041V712.776L515.91 802.144L675.88 712.776V534.041Z" stroke="#71E38D" stroke-width="0.5" stroke-miterlimit="10"/>
<path opacity="0.87" d="M679.88 531.806L515.91 440.204L351.94 531.806V715.012L515.91 806.615L679.88 715.012V531.806Z" stroke="#71E38D" stroke-width="0.5" stroke-miterlimit="10"/>
<path opacity="0.86" d="M683.88 529.571L515.91 435.743L347.94 529.571V717.247L515.91 811.084L683.88 717.247V529.571Z" stroke="#71E38D" stroke-width="0.5" stroke-miterlimit="10"/>
<path opacity="0.85" d="M687.88 527.336L515.91 431.273L343.94 527.336V719.482L515.91 815.555L687.88 719.482V527.336Z" stroke="#71E38D" stroke-width="0.5" stroke-miterlimit="10"/>
<path opacity="0.84" d="M691.88 525.111L515.91 426.802L339.94 525.111V721.717L515.91 820.016L691.88 721.717V525.111Z" stroke="#71E38D" stroke-width="0.5" stroke-miterlimit="10"/>
<path opacity="0.83" d="M695.88 522.875L515.91 422.332L335.94 522.875V723.952L515.91 824.486L695.88 723.952V522.875Z" stroke="#71E38D" stroke-width="0.5" stroke-miterlimit="10"/>
<path opacity="0.82" d="M699.88 520.64L515.91 417.862L331.94 520.64V726.187L515.91 828.956L699.88 726.187V520.64Z" stroke="#71E38D" stroke-width="0.5" stroke-miterlimit="10"/>
<path opacity="0.81" d="M703.88 518.405L515.91 413.401L327.94 518.405V728.413L515.91 833.427L703.88 728.413V518.405Z" stroke="#71E38D" stroke-width="0.5" stroke-miterlimit="10"/>
<path opacity="0.8" d="M707.88 516.17L515.91 408.931L323.94 516.17V730.648L515.91 837.897L707.88 730.648V516.17Z" stroke="#71E38D" stroke-width="0.5" stroke-miterlimit="10"/>
<path opacity="0.79" d="M711.87 513.935L515.91 404.46L319.94 513.935V732.883L515.91 842.358L711.87 732.883V513.935Z" stroke="#71E38D" stroke-width="0.5" stroke-miterlimit="10"/>
<path opacity="0.78" d="M715.87 511.7L515.91 399.99L315.94 511.7V735.119L515.91 846.828L715.87 735.119V511.7Z" stroke="#71E38D" stroke-width="0.5" stroke-miterlimit="10"/>
<path opacity="0.77" d="M719.87 509.464L515.91 395.529L311.94 509.464V737.354L515.91 851.298L719.87 737.354V509.464Z" stroke="#71E38D" stroke-width="0.5" stroke-miterlimit="10"/>
<path opacity="0.76" d="M723.87 507.229L515.91 391.059L307.95 507.229V739.589L515.91 855.768L723.87 739.589V507.229Z" stroke="#71E38D" stroke-width="0.5" stroke-miterlimit="10"/>
<path opacity="0.75" d="M727.87 505.004L515.91 386.589L303.95 505.004V741.824L515.91 860.229L727.87 741.824V505.004Z" stroke="#71E38D" stroke-width="0.5" stroke-miterlimit="10"/>
<path opacity="0.74" d="M731.87 502.769L515.91 382.119L299.95 502.769V744.059L515.91 864.699L731.87 744.059V502.769Z" stroke="#71E38D" stroke-width="0.5" stroke-miterlimit="10"/>
<path opacity="0.73" d="M735.87 500.533L515.91 377.648L295.95 500.533V746.294L515.91 869.17L735.87 746.294V500.533Z" stroke="#71E38D" stroke-width="0.5" stroke-miterlimit="10"/>
<path opacity="0.72" d="M739.87 498.298L515.91 373.178L291.95 498.298V748.52L515.91 873.64L739.87 748.52V498.298Z" stroke="#71E38D" stroke-width="0.5" stroke-miterlimit="10"/>
<path opacity="0.71" d="M743.87 496.063L515.91 368.717L287.95 496.063V750.755L515.91 878.111L743.87 750.755V496.063Z" stroke="#71E38D" stroke-width="0.5" stroke-miterlimit="10"/>
<path opacity="0.7" d="M747.87 493.828L515.91 364.247L283.95 493.828V752.99L515.91 882.58L747.87 752.99V493.828Z" stroke="#71E38D" stroke-width="0.5" stroke-miterlimit="10"/>
<path opacity="0.69" d="M751.87 491.593L515.91 359.777L279.95 491.593V755.225L515.91 887.041L751.87 755.225V491.593Z" stroke="#71E38D" stroke-width="0.5" stroke-miterlimit="10"/>
<path opacity="0.68" d="M755.86 489.358L515.91 355.306L275.95 489.358V757.46L515.91 891.512L755.86 757.46V489.358Z" stroke="#71E38D" stroke-width="0.5" stroke-miterlimit="10"/>
<path opacity="0.67" d="M759.86 487.123L515.91 350.846L271.95 487.123V759.695L515.91 895.982L759.86 759.695V487.123Z" stroke="#71E38D" stroke-width="0.5" stroke-miterlimit="10"/>
<path opacity="0.66" d="M763.86 484.897L515.91 346.375L267.95 484.897V761.931L515.91 900.453L763.86 761.931V484.897Z" stroke="#71E38D" stroke-width="0.5" stroke-miterlimit="10"/>
<path opacity="0.65" d="M767.86 482.662L515.91 341.905L263.95 482.662V764.165L515.91 904.912L767.86 764.165V482.662Z" stroke="#71E38D" stroke-width="0.5" stroke-miterlimit="10"/>
<path opacity="0.64" d="M771.86 480.427L515.91 337.435L259.95 480.427V766.401L515.91 909.383L771.86 766.401V480.427Z" stroke="#71E38D" stroke-width="0.5" stroke-miterlimit="10"/>
<path opacity="0.63" d="M775.86 478.192L515.91 332.965L255.96 478.192V768.636L515.91 913.854L775.86 768.636V478.192Z" stroke="#71E38D" stroke-width="0.5" stroke-miterlimit="10"/>
<path opacity="0.62" d="M779.86 475.956L515.91 328.504L251.96 475.956V770.862L515.91 918.324L779.86 770.862V475.956Z" stroke="#71E38D" stroke-width="0.5" stroke-miterlimit="10"/>
<path opacity="0.61" d="M783.86 473.721L515.91 324.034L247.96 473.721V773.097L515.91 922.794L783.86 773.097V473.721Z" stroke="#71E38D" stroke-width="0.5" stroke-miterlimit="10"/>
<path opacity="0.6" d="M787.86 471.486L515.91 319.563L243.96 471.486V775.332L515.91 927.255L787.86 775.332V471.486Z" stroke="#71E38D" stroke-width="0.5" stroke-miterlimit="10"/>
<path opacity="0.59" d="M791.86 469.251L515.91 315.093L239.96 469.251V777.567L515.91 931.725L791.86 777.567V469.251Z" stroke="#71E38D" stroke-width="0.5" stroke-miterlimit="10"/>
<path opacity="0.58" d="M795.86 467.016L515.91 310.632L235.96 467.016V779.802L515.91 936.195L795.86 779.802V467.016Z" stroke="#71E38D" stroke-width="0.5" stroke-miterlimit="10"/>
<path opacity="0.57" d="M799.86 464.781L515.91 306.162L231.96 464.781V782.037L515.91 940.666L799.86 782.037V464.781Z" stroke="#71E38D" stroke-width="0.5" stroke-miterlimit="10"/>
<path opacity="0.56" d="M803.86 462.546L515.91 301.692L227.96 462.546V784.273L515.91 945.136L803.86 784.273V462.546Z" stroke="#71E38D" stroke-width="0.5" stroke-miterlimit="10"/>
<path opacity="0.55" d="M807.85 460.32L515.91 297.221L223.96 460.32V786.508L515.91 949.597L807.85 786.508V460.32Z" stroke="#71E38D" stroke-width="0.5" stroke-miterlimit="10"/>
<path opacity="0.54" d="M811.85 458.085L515.91 292.751L219.96 458.085V788.743L515.91 954.067L811.85 788.743V458.085Z" stroke="#71E38D" stroke-width="0.5" stroke-miterlimit="10"/>
<path opacity="0.53" d="M815.85 455.85L515.91 288.29L215.96 455.85V790.968L515.91 958.537L815.85 790.968V455.85Z" stroke="#71E38D" stroke-width="0.5" stroke-miterlimit="10"/>
<path opacity="0.52" d="M819.85 453.615L515.91 283.82L211.96 453.615V793.203L515.91 963.007L819.85 793.203V453.615Z" stroke="#71E38D" stroke-width="0.5" stroke-miterlimit="10"/>
<path opacity="0.51" d="M823.85 451.379L515.91 279.35L207.97 451.379V795.439L515.91 967.478L823.85 795.439V451.379Z" stroke="#71E38D" stroke-width="0.5" stroke-miterlimit="10"/>
<path opacity="0.5" d="M827.85 449.144L515.91 274.88L203.97 449.144V797.674L515.91 971.938L827.85 797.674V449.144Z" stroke="#71E38D" stroke-width="0.5" stroke-miterlimit="10"/>
<path opacity="0.5" d="M831.85 446.909L515.91 270.409L199.97 446.909V799.909L515.91 976.409L831.85 799.909V446.909Z" stroke="#71E38D" stroke-width="0.5" stroke-miterlimit="10"/>
<path opacity="0.49" d="M835.85 444.674L515.91 265.949L195.97 444.674V802.144L515.91 980.879L835.85 802.144V444.674Z" stroke="#71E38D" stroke-width="0.5" stroke-miterlimit="10"/>
<path opacity="0.48" d="M839.85 442.449L515.91 261.478L191.97 442.449V804.379L515.91 985.349L839.85 804.379V442.449Z" stroke="#71E38D" stroke-width="0.5" stroke-miterlimit="10"/>
<path opacity="0.47" d="M843.85 440.213L515.91 257.008L187.97 440.213V806.614L515.91 989.81L843.85 806.614V440.213Z" stroke="#71E38D" stroke-width="0.5" stroke-miterlimit="10"/>
<path opacity="0.46" d="M847.85 437.978L515.91 252.538L183.97 437.978V808.85L515.91 994.281L847.85 808.85V437.978Z" stroke="#71E38D" stroke-width="0.5" stroke-miterlimit="10"/>
<path opacity="0.45" d="M851.85 435.743L515.91 248.067L179.97 435.743V811.085L515.91 998.751L851.85 811.085V435.743Z" stroke="#71E38D" stroke-width="0.5" stroke-miterlimit="10"/>
<path opacity="0.44" d="M855.85 433.508L515.91 243.607L175.97 433.508V813.31L515.91 1003.22L855.85 813.31V433.508Z" stroke="#71E38D" stroke-width="0.5" stroke-miterlimit="10"/>
<path opacity="0.43" d="M859.84 431.273L515.91 239.136L171.97 431.273V815.546L515.91 1007.69L859.84 815.546V431.273Z" stroke="#71E38D" stroke-width="0.5" stroke-miterlimit="10"/>
<path opacity="0.42" d="M863.84 429.038L515.91 234.666L167.97 429.038V817.78L515.91 1012.15L863.84 817.78V429.038Z" stroke="#71E38D" stroke-width="0.5" stroke-miterlimit="10"/>
<path opacity="0.41" d="M867.84 426.802L515.91 230.196L163.97 426.802V820.016L515.91 1016.62L867.84 820.016V426.802Z" stroke="#71E38D" stroke-width="0.5" stroke-miterlimit="10"/>
<path opacity="0.4" d="M871.84 424.567L515.91 225.725L159.97 424.567V822.251L515.91 1021.09L871.84 822.251V424.567Z" stroke="#71E38D" stroke-width="0.5" stroke-miterlimit="10"/>
<path opacity="0.39" d="M875.84 422.332L515.91 221.265L155.98 422.332V824.486L515.91 1025.56L875.84 824.486V422.332Z" stroke="#71E38D" stroke-width="0.5" stroke-miterlimit="10"/>
<path opacity="0.38" d="M879.84 420.097L515.91 216.795L151.98 420.097V826.721L515.91 1030.03L879.84 826.721V420.097Z" stroke="#71E38D" stroke-width="0.5" stroke-miterlimit="10"/>
<path opacity="0.37" d="M883.84 417.871L515.91 212.324L147.98 417.871V828.956L515.91 1034.49L883.84 828.956V417.871Z" stroke="#71E38D" stroke-width="0.5" stroke-miterlimit="10"/>
<path opacity="0.36" d="M887.84 415.636L515.91 207.854L143.98 415.636V831.191L515.91 1038.96L887.84 831.191V415.636Z" stroke="#71E38D" stroke-width="0.5" stroke-miterlimit="10"/>
<path opacity="0.35" d="M891.84 413.401L515.91 203.384L139.98 413.401V833.417L515.91 1043.43L891.84 833.417V413.401Z" stroke="#71E38D" stroke-width="0.5" stroke-miterlimit="10"/>
<path opacity="0.34" d="M895.84 411.166L515.91 198.923L135.98 411.166V835.652L515.91 1047.9L895.84 835.652V411.166Z" stroke="#71E38D" stroke-width="0.5" stroke-miterlimit="10"/>
<path opacity="0.33" d="M899.84 408.931L515.91 194.453L131.98 408.931V837.887L515.91 1052.38L899.84 837.887V408.931Z" stroke="#71E38D" stroke-width="0.5" stroke-miterlimit="10"/>
<path opacity="0.32" d="M903.84 406.696L515.91 189.982L127.98 406.696V840.122L515.91 1056.84L903.84 840.122V406.696Z" stroke="#71E38D" stroke-width="0.5" stroke-miterlimit="10"/>
<path opacity="0.31" d="M907.84 404.461L515.91 185.512L123.98 404.461V842.358L515.91 1061.31L907.84 842.358V404.461Z" stroke="#71E38D" stroke-width="0.5" stroke-miterlimit="10"/>
<path opacity="0.3" d="M911.83 402.225L515.91 181.051L119.98 402.225V844.593L515.91 1065.78L911.83 844.593V402.225Z" stroke="#71E38D" stroke-width="0.5" stroke-miterlimit="10"/>
<path opacity="0.29" d="M915.83 400L515.91 176.581L115.98 400V846.828L515.91 1070.25L915.83 846.828V400Z" stroke="#71E38D" stroke-width="0.5" stroke-miterlimit="10"/>
<path opacity="0.28" d="M919.83 397.765L515.91 172.111L111.98 397.765V849.063L515.91 1074.71L919.83 849.063V397.765Z" stroke="#71E38D" stroke-width="0.5" stroke-miterlimit="10"/>
<path opacity="0.27" d="M923.83 395.53L515.91 167.641L107.98 395.53V851.298L515.91 1079.18L923.83 851.298V395.53Z" stroke="#71E38D" stroke-width="0.5" stroke-miterlimit="10"/>
<path opacity="0.26" d="M927.83 393.294L515.91 163.17L103.99 393.294V853.533L515.91 1083.65L927.83 853.533V393.294Z" stroke="#71E38D" stroke-width="0.5" stroke-miterlimit="10"/>
<path opacity="0.25" d="M931.83 391.059L515.91 158.709L99.9902 391.059V855.759L515.91 1088.12L931.83 855.759V391.059Z" stroke="#71E38D" stroke-width="0.5" stroke-miterlimit="10"/>
<path opacity="0.24" d="M935.83 388.824L515.91 154.239L95.9902 388.824V857.994L515.91 1092.59L935.83 857.994V388.824Z" stroke="#71E38D" stroke-width="0.5" stroke-miterlimit="10"/>
<path opacity="0.23" d="M939.83 386.589L515.91 149.769L91.9902 386.589V860.229L515.91 1097.05L939.83 860.229V386.589Z" stroke="#71E38D" stroke-width="0.5" stroke-miterlimit="10"/>
<path opacity="0.22" d="M943.83 384.354L515.91 145.298L87.9902 384.354V862.464L515.91 1101.52L943.83 862.464V384.354Z" stroke="#71E38D" stroke-width="0.5" stroke-miterlimit="10"/>
<path opacity="0.21" d="M947.83 382.119L515.91 140.828L83.9902 382.119V864.699L515.91 1105.99L947.83 864.699V382.119Z" stroke="#71E38D" stroke-width="0.5" stroke-miterlimit="10"/>
<path opacity="0.2" d="M951.83 379.884L515.91 136.368L79.9902 379.884V866.935L515.91 1110.46L951.83 866.935V379.884Z" stroke="#71E38D" stroke-width="0.5" stroke-miterlimit="10"/>
<path opacity="0.19" d="M955.83 377.648L515.91 131.897L75.9902 377.648V869.17L515.91 1114.92L955.83 869.17V377.648Z" stroke="#71E38D" stroke-width="0.5" stroke-miterlimit="10"/>
<path opacity="0.18" d="M959.82 375.423L515.91 127.427L71.99 375.423V871.405L515.91 1119.39L959.82 871.405V375.423Z" stroke="#71E38D" stroke-width="0.5" stroke-miterlimit="10"/>
<path opacity="0.17" d="M963.82 373.188L515.91 122.957L67.99 373.188V873.64L515.91 1123.86L963.82 873.64V373.188Z" stroke="#71E38D" stroke-width="0.5" stroke-miterlimit="10"/>
<path opacity="0.16" d="M967.82 370.952L515.91 118.486L63.99 370.952V875.865L515.91 1128.33L967.82 875.865V370.952Z" stroke="#71E38D" stroke-width="0.5" stroke-miterlimit="10"/>
<path opacity="0.15" d="M971.82 368.717L515.91 114.026L59.99 368.717V878.101L515.91 1132.8L971.82 878.101V368.717Z" stroke="#71E38D" stroke-width="0.5" stroke-miterlimit="10"/>
<path opacity="0.14" d="M975.82 366.482L515.91 109.555L55.99 366.482V880.336L515.91 1137.27L975.82 880.336V366.482Z" stroke="#71E38D" stroke-width="0.5" stroke-miterlimit="10"/>
<path opacity="0.13" d="M979.82 364.247L515.91 105.085L52 364.247V882.571L515.91 1141.73L979.82 882.571V364.247Z" stroke="#71E38D" stroke-width="0.5" stroke-miterlimit="10"/>
<path opacity="0.12" d="M983.82 362.012L515.91 100.615L48 362.012V884.806L515.91 1146.2L983.82 884.806V362.012Z" stroke="#71E38D" stroke-width="0.5" stroke-miterlimit="10"/>
<path opacity="0.11" d="M987.82 359.777L515.91 96.1541L44 359.777V887.041L515.91 1150.67L987.82 887.041V359.777Z" stroke="#71E38D" stroke-width="0.5" stroke-miterlimit="10"/>
<path opacity="0.1" d="M991.82 357.551L515.91 91.684L40 357.551V889.277L515.91 1155.14L991.82 889.277V357.551Z" stroke="#71E38D" stroke-width="0.5" stroke-miterlimit="10"/>
<path opacity="0.09" d="M995.82 355.316L515.91 87.2135L36 355.316V891.512L515.91 1159.6L995.82 891.512V355.316Z" stroke="#71E38D" stroke-width="0.5" stroke-miterlimit="10"/>
<path opacity="0.08" d="M999.82 353.081L515.91 82.7432L32 353.081V893.747L515.91 1164.08L999.82 893.747V353.081Z" stroke="#71E38D" stroke-width="0.5" stroke-miterlimit="10"/>
<path opacity="0.07" d="M1003.82 350.846L515.91 78.2728L28 350.846V895.982L515.91 1168.55L1003.82 895.982V350.846Z" stroke="#71E38D" stroke-width="0.5" stroke-miterlimit="10"/>
<path opacity="0.06" d="M1007.82 348.611L515.91 73.8123L24 348.611V898.207L515.91 1173.02L1007.82 898.207V348.611Z" stroke="#71E38D" stroke-width="0.5" stroke-miterlimit="10"/>
<path opacity="0.05" d="M1011.81 346.376L515.91 69.3419L20 346.376V900.443L515.91 1177.49L1011.81 900.443V346.376Z" stroke="#71E38D" stroke-width="0.5" stroke-miterlimit="10"/>
<path opacity="0.04" d="M1015.81 344.14L515.91 64.8716L16 344.14V902.678L515.91 1181.95L1015.81 902.678V344.14Z" stroke="#71E38D" stroke-width="0.5" stroke-miterlimit="10"/>
<path opacity="0.03" d="M1019.81 341.905L515.91 60.4012L12 341.905V904.913L515.91 1186.42L1019.81 904.913V341.905Z" stroke="#71E38D" stroke-width="0.5" stroke-miterlimit="10"/>
<path opacity="0.02" d="M1023.81 339.67L515.91 55.931L8 339.67V907.148L515.91 1190.89L1023.81 907.148V339.67Z" stroke="#71E38D" stroke-width="0.5" stroke-miterlimit="10"/>
<path opacity="0.01" d="M1027.81 337.435L515.91 51.4703L4 337.435V909.383L515.91 1195.36L1027.81 909.383V337.435Z" stroke="#71E38D" stroke-width="0.5" stroke-miterlimit="10"/>
</g>
<path opacity="0.1" d="M623 683.236L515.91 623.409L623 563.592V683.236Z" fill="#71E38D"/>
<path opacity="0.2" d="M408.82 683.236L515.91 623.409L408.82 563.592V683.236Z" fill="#71E38D"/>
<path opacity="0.1" d="M623 563.592L515.91 623.409V503.765L623 563.592Z" fill="#71E38D"/>
<path opacity="0.2" d="M515.91 743.062V623.409L408.82 683.236L515.91 743.062Z" fill="#71E38D"/>
<g opacity="0.1">
<g opacity="0.4">
<path opacity="0.4" d="M515.91 503.765V623.409L408.82 563.592L515.91 503.765Z" fill="#71E38D"/>
</g>
<g opacity="0.4">
<path opacity="0.4" d="M623 683.236L515.91 623.409V743.062L623 683.236Z" fill="#71E38D"/>
</g>
</g>
<path opacity="0.1" d="M568.27 652.747L515.95 623.515L568.27 594.294V652.747Z" fill="#71E38D"/>
<path opacity="0.2" d="M463.63 652.747L515.95 623.515L463.63 594.294V652.747Z" fill="#71E38D"/>
<path opacity="0.1" d="M568.27 594.294L515.95 623.516V565.063L568.27 594.294Z" fill="#71E38D"/>
<path opacity="0.2" d="M515.95 681.968V623.516L463.63 652.747L515.95 681.968Z" fill="#71E38D"/>
<g opacity="0.1">
<g opacity="0.4">
<path opacity="0.4" d="M515.95 565.063V623.516L463.63 594.294L515.95 565.063Z" fill="#71E38D"/>
</g>
<g opacity="0.4">
<path opacity="0.4" d="M568.27 652.747L515.95 623.516V681.968L568.27 652.747Z" fill="#71E38D"/>
</g>
</g>
<path opacity="0.1" d="M363.28 738.941L343.34 727.794L363.28 716.647V738.941Z" fill="#71E38D"/>
<path opacity="0.2" d="M323.39 738.941L343.34 727.794L323.39 716.647V738.941Z" fill="#71E38D"/>
<path opacity="0.1" d="M363.28 716.647L343.34 727.794V705.51L363.28 716.647Z" fill="#71E38D"/>
<path opacity="0.2" d="M343.34 750.077V727.794L323.39 738.94L343.34 750.077Z" fill="#71E38D"/>
<g opacity="0.1">
<g opacity="0.4">
<path opacity="0.4" d="M343.34 705.51V727.794L323.39 716.647L343.34 705.51Z" fill="#71E38D"/>
</g>
<g opacity="0.4">
<path opacity="0.4" d="M363.28 738.94L343.34 727.794V750.077L363.28 738.94Z" fill="#71E38D"/>
</g>
</g>
<path opacity="0.1" d="M419.8 779.115L407.74 772.381L419.8 765.637V779.115Z" fill="#71E38D"/>
<path opacity="0.2" d="M395.68 779.115L407.74 772.381L395.68 765.637V779.115Z" fill="#71E38D"/>
<path opacity="0.1" d="M419.8 765.637L407.74 772.381V758.902L419.8 765.637Z" fill="#71E38D"/>
<path opacity="0.2" d="M407.74 785.849V772.381L395.68 779.115L407.74 785.849Z" fill="#71E38D"/>
<g opacity="0.1">
<g opacity="0.4">
<path opacity="0.4" d="M407.74 758.902V772.381L395.68 765.637L407.74 758.902Z" fill="#71E38D"/>
</g>
<g opacity="0.4">
<path opacity="0.4" d="M419.8 779.115L407.74 772.381V785.85L419.8 779.115Z" fill="#71E38D"/>
</g>
</g>
</svg>
