<svg width="459" height="160" viewBox="0 0 459 160" fill="none" xmlns="http://www.w3.org/2000/svg">
<g opacity="0.1">
<mask id="mask0_271:25220" style="mask-type:alpha" maskUnits="userSpaceOnUse" x="0" y="0" width="797" height="160">
<rect width="797" height="160" fill="url(#paint0_linear_271:25220)"/>
</mask>
<g mask="url(#mask0_271:25220)">
<path d="M208.433 8.91241C208.433 8.53134 208.699 8.22241 209.028 8.22241H213.792C214.121 8.22241 214.388 8.53134 214.388 8.91241C214.388 9.29349 214.121 9.60241 213.792 9.60241H209.028C208.699 9.60241 208.433 9.29349 208.433 8.91241Z" fill="#326BF6"/>
<path d="M211.41 12.3625C211.082 12.3625 210.815 12.0536 210.815 11.6725L210.815 6.15249C210.815 5.77141 211.082 5.46249 211.41 5.46249C211.739 5.46249 212.006 5.77141 212.006 6.15249L212.006 11.6725C212.006 12.0536 211.739 12.3625 211.41 12.3625Z" fill="#326BF6"/>
<path d="M145.903 8.91241C145.903 8.53134 146.17 8.22241 146.499 8.22241H151.263C151.592 8.22241 151.859 8.53134 151.859 8.91241C151.859 9.29349 151.592 9.60241 151.263 9.60241H146.499C146.17 9.60241 145.903 9.29349 145.903 8.91241Z" fill="#326BF6"/>
<path d="M148.881 12.3625C148.552 12.3625 148.285 12.0536 148.285 11.6725L148.285 6.15249C148.285 5.77141 148.552 5.46249 148.881 5.46249C149.21 5.46249 149.476 5.77141 149.476 6.15249L149.476 11.6725C149.476 12.0536 149.21 12.3625 148.881 12.3625Z" fill="#326BF6"/>
<path d="M208.433 105.512C208.433 105.131 208.699 104.822 209.028 104.822H213.792C214.121 104.822 214.388 105.131 214.388 105.512C214.388 105.893 214.121 106.202 213.792 106.202H209.028C208.699 106.202 208.433 105.893 208.433 105.512Z" fill="#326BF6"/>
<path d="M211.41 108.963C211.082 108.963 210.815 108.654 210.815 108.273L210.815 102.753C210.815 102.371 211.082 102.063 211.41 102.063C211.739 102.063 212.006 102.371 212.006 102.753L212.006 108.273C212.006 108.654 211.739 108.963 211.41 108.963Z" fill="#326BF6"/>
<path d="M145.903 105.512C145.903 105.131 146.17 104.822 146.499 104.822H151.263C151.592 104.822 151.859 105.131 151.859 105.512C151.859 105.893 151.592 106.202 151.263 106.202H146.499C146.17 106.202 145.903 105.893 145.903 105.512Z" fill="#326BF6"/>
<path d="M148.881 108.963C148.552 108.963 148.285 108.654 148.285 108.273L148.285 102.753C148.285 102.371 148.552 102.063 148.881 102.063C149.21 102.063 149.476 102.371 149.476 102.753L149.476 108.273C149.476 108.654 149.21 108.963 148.881 108.963Z" fill="#326BF6"/>
<path d="M208.433 57.2123C208.433 56.8313 208.699 56.5223 209.028 56.5223H213.792C214.121 56.5223 214.388 56.8313 214.388 57.2123C214.388 57.5934 214.121 57.9023 213.792 57.9023H209.028C208.699 57.9023 208.433 57.5934 208.433 57.2123Z" fill="#326BF6"/>
<path d="M211.41 60.6625C211.082 60.6625 210.815 60.3536 210.815 59.9725L210.815 54.4525C210.815 54.0714 211.082 53.7625 211.41 53.7625C211.739 53.7625 212.006 54.0714 212.006 54.4525L212.006 59.9725C212.006 60.3536 211.739 60.6625 211.41 60.6625Z" fill="#326BF6"/>
<path d="M145.903 57.2123C145.903 56.8313 146.17 56.5223 146.499 56.5223H151.263C151.592 56.5223 151.859 56.8313 151.859 57.2123C151.859 57.5934 151.592 57.9023 151.263 57.9023H146.499C146.17 57.9023 145.903 57.5934 145.903 57.2123Z" fill="#326BF6"/>
<path d="M148.881 60.6625C148.552 60.6625 148.285 60.3536 148.285 59.9725L148.285 54.4525C148.285 54.0714 148.552 53.7625 148.881 53.7625C149.21 53.7625 149.476 54.0714 149.476 54.4525L149.476 59.9725C149.476 60.3536 149.21 60.6625 148.881 60.6625Z" fill="#326BF6"/>
<path d="M208.433 153.812C208.433 153.431 208.699 153.122 209.028 153.122H213.792C214.121 153.122 214.388 153.431 214.388 153.812C214.388 154.193 214.121 154.502 213.792 154.502H209.028C208.699 154.502 208.433 154.193 208.433 153.812Z" fill="#326BF6"/>
<path d="M211.41 157.263C211.082 157.263 210.815 156.954 210.815 156.573L210.815 151.053C210.815 150.671 211.082 150.363 211.41 150.363C211.739 150.363 212.006 150.671 212.006 151.053L212.006 156.573C212.006 156.954 211.739 157.263 211.41 157.263Z" fill="#326BF6"/>
<path d="M145.903 153.812C145.903 153.431 146.17 153.122 146.499 153.122H151.263C151.592 153.122 151.859 153.431 151.859 153.812C151.859 154.193 151.592 154.502 151.263 154.502H146.499C146.17 154.502 145.903 154.193 145.903 153.812Z" fill="#326BF6"/>
<path d="M148.881 157.263C148.552 157.263 148.285 156.954 148.285 156.573L148.285 151.053C148.285 150.671 148.552 150.363 148.881 150.363C149.21 150.363 149.476 150.671 149.476 151.053L149.476 156.573C149.476 156.954 149.21 157.263 148.881 157.263Z" fill="#326BF6"/>
<path d="M208.433 33.0624C208.433 32.6813 208.699 32.3724 209.028 32.3724H213.792C214.121 32.3724 214.388 32.6813 214.388 33.0624C214.388 33.4435 214.121 33.7524 213.792 33.7524H209.028C208.699 33.7524 208.433 33.4435 208.433 33.0624Z" fill="#326BF6"/>
<path d="M211.41 36.5125C211.082 36.5125 210.815 36.2036 210.815 35.8225L210.815 30.3025C210.815 29.9214 211.082 29.6125 211.41 29.6125C211.739 29.6125 212.006 29.9214 212.006 30.3025L212.006 35.8225C212.006 36.2036 211.739 36.5125 211.41 36.5125Z" fill="#326BF6"/>
<path d="M145.903 33.0624C145.903 32.6813 146.17 32.3724 146.499 32.3724H151.263C151.592 32.3724 151.859 32.6813 151.859 33.0624C151.859 33.4435 151.592 33.7524 151.263 33.7524H146.499C146.17 33.7524 145.903 33.4435 145.903 33.0624Z" fill="#326BF6"/>
<path d="M148.881 36.5125C148.552 36.5125 148.285 36.2036 148.285 35.8225L148.285 30.3025C148.285 29.9214 148.552 29.6125 148.881 29.6125C149.21 29.6125 149.476 29.9214 149.476 30.3025L149.476 35.8225C149.476 36.2036 149.21 36.5125 148.881 36.5125Z" fill="#326BF6"/>
<path d="M208.433 129.662C208.433 129.281 208.699 128.972 209.028 128.972H213.792C214.121 128.972 214.388 129.281 214.388 129.662C214.388 130.043 214.121 130.352 213.792 130.352H209.028C208.699 130.352 208.433 130.043 208.433 129.662Z" fill="#326BF6"/>
<path d="M211.41 133.113C211.082 133.113 210.815 132.804 210.815 132.423L210.815 126.903C210.815 126.521 211.082 126.213 211.41 126.213C211.739 126.213 212.006 126.521 212.006 126.903L212.006 132.423C212.006 132.804 211.739 133.113 211.41 133.113Z" fill="#326BF6"/>
<path d="M145.903 129.662C145.903 129.281 146.17 128.972 146.499 128.972H151.263C151.592 128.972 151.859 129.281 151.859 129.662C151.859 130.043 151.592 130.352 151.263 130.352H146.499C146.17 130.352 145.903 130.043 145.903 129.662Z" fill="#326BF6"/>
<path d="M148.881 133.113C148.552 133.113 148.285 132.804 148.285 132.423L148.285 126.903C148.285 126.521 148.552 126.213 148.881 126.213C149.21 126.213 149.476 126.521 149.476 126.903L149.476 132.423C149.476 132.804 149.21 133.113 148.881 133.113Z" fill="#326BF6"/>
<path d="M208.433 81.3624C208.433 80.9813 208.699 80.6724 209.028 80.6724H213.792C214.121 80.6724 214.388 80.9813 214.388 81.3624C214.388 81.7434 214.121 82.0524 213.792 82.0524H209.028C208.699 82.0524 208.433 81.7434 208.433 81.3624Z" fill="#326BF6"/>
<path d="M211.41 84.8125C211.082 84.8125 210.815 84.5036 210.815 84.1225L210.815 78.6025C210.815 78.2214 211.082 77.9125 211.41 77.9125C211.739 77.9125 212.006 78.2214 212.006 78.6025L212.006 84.1225C212.006 84.5036 211.739 84.8125 211.41 84.8125Z" fill="#326BF6"/>
<path d="M145.903 81.3624C145.903 80.9813 146.17 80.6724 146.499 80.6724H151.263C151.592 80.6724 151.859 80.9813 151.859 81.3624C151.859 81.7434 151.592 82.0524 151.263 82.0524H146.499C146.17 82.0524 145.903 81.7434 145.903 81.3624Z" fill="#326BF6"/>
<path d="M148.881 84.8125C148.552 84.8125 148.285 84.5036 148.285 84.1225L148.285 78.6025C148.285 78.2214 148.552 77.9125 148.881 77.9125C149.21 77.9125 149.476 78.2214 149.476 78.6025L149.476 84.1225C149.476 84.5036 149.21 84.8125 148.881 84.8125Z" fill="#326BF6"/>
<path d="M229.276 8.91241C229.276 8.53134 229.543 8.22241 229.872 8.22241H234.636C234.965 8.22241 235.232 8.53134 235.232 8.91241C235.232 9.29349 234.965 9.60241 234.636 9.60241H229.872C229.543 9.60241 229.276 9.29349 229.276 8.91241Z" fill="#326BF6"/>
<path d="M232.254 12.3625C231.925 12.3625 231.658 12.0536 231.658 11.6725L231.658 6.15249C231.658 5.77141 231.925 5.46249 232.254 5.46249C232.583 5.46249 232.849 5.77141 232.849 6.15249L232.849 11.6725C232.849 12.0536 232.583 12.3625 232.254 12.3625Z" fill="#326BF6"/>
<path d="M166.746 8.91241C166.746 8.53134 167.013 8.22241 167.342 8.22241H172.106C172.435 8.22241 172.701 8.53134 172.701 8.91241C172.701 9.29349 172.435 9.60241 172.106 9.60241H167.342C167.013 9.60241 166.746 9.29349 166.746 8.91241Z" fill="#326BF6"/>
<path d="M169.723 12.3625C169.395 12.3625 169.128 12.0536 169.128 11.6725L169.128 6.15249C169.128 5.77141 169.395 5.46249 169.723 5.46249C170.052 5.46249 170.319 5.77141 170.319 6.15249L170.319 11.6725C170.319 12.0536 170.052 12.3625 169.723 12.3625Z" fill="#326BF6"/>
<path d="M229.276 105.512C229.276 105.131 229.543 104.822 229.872 104.822H234.636C234.965 104.822 235.232 105.131 235.232 105.512C235.232 105.893 234.965 106.202 234.636 106.202H229.872C229.543 106.202 229.276 105.893 229.276 105.512Z" fill="#326BF6"/>
<path d="M232.254 108.963C231.925 108.963 231.658 108.654 231.658 108.273L231.658 102.753C231.658 102.371 231.925 102.063 232.254 102.063C232.583 102.063 232.849 102.371 232.849 102.753L232.849 108.273C232.849 108.654 232.583 108.963 232.254 108.963Z" fill="#326BF6"/>
<path d="M166.746 105.512C166.746 105.131 167.013 104.822 167.342 104.822H172.106C172.435 104.822 172.701 105.131 172.701 105.512C172.701 105.893 172.435 106.202 172.106 106.202H167.342C167.013 106.202 166.746 105.893 166.746 105.512Z" fill="#326BF6"/>
<path d="M169.723 108.963C169.395 108.963 169.128 108.654 169.128 108.273L169.128 102.753C169.128 102.371 169.395 102.063 169.723 102.063C170.052 102.063 170.319 102.371 170.319 102.753L170.319 108.273C170.319 108.654 170.052 108.963 169.723 108.963Z" fill="#326BF6"/>
<path d="M229.276 57.2123C229.276 56.8313 229.543 56.5223 229.872 56.5223H234.636C234.965 56.5223 235.232 56.8313 235.232 57.2123C235.232 57.5934 234.965 57.9023 234.636 57.9023H229.872C229.543 57.9023 229.276 57.5934 229.276 57.2123Z" fill="#326BF6"/>
<path d="M232.254 60.6625C231.925 60.6625 231.658 60.3536 231.658 59.9725L231.658 54.4525C231.658 54.0714 231.925 53.7625 232.254 53.7625C232.583 53.7625 232.849 54.0714 232.849 54.4525L232.849 59.9725C232.849 60.3536 232.583 60.6625 232.254 60.6625Z" fill="#326BF6"/>
<path d="M166.746 57.2123C166.746 56.8313 167.013 56.5223 167.342 56.5223H172.106C172.435 56.5223 172.701 56.8313 172.701 57.2123C172.701 57.5934 172.435 57.9023 172.106 57.9023H167.342C167.013 57.9023 166.746 57.5934 166.746 57.2123Z" fill="#326BF6"/>
<path d="M169.723 60.6625C169.395 60.6625 169.128 60.3536 169.128 59.9725L169.128 54.4525C169.128 54.0714 169.395 53.7625 169.723 53.7625C170.052 53.7625 170.319 54.0714 170.319 54.4525L170.319 59.9725C170.319 60.3536 170.052 60.6625 169.723 60.6625Z" fill="#326BF6"/>
<path d="M229.276 153.812C229.276 153.431 229.543 153.122 229.872 153.122H234.636C234.965 153.122 235.232 153.431 235.232 153.812C235.232 154.193 234.965 154.502 234.636 154.502H229.872C229.543 154.502 229.276 154.193 229.276 153.812Z" fill="#326BF6"/>
<path d="M232.254 157.263C231.925 157.263 231.658 156.954 231.658 156.573L231.658 151.053C231.658 150.671 231.925 150.363 232.254 150.363C232.583 150.363 232.849 150.671 232.849 151.053L232.849 156.573C232.849 156.954 232.583 157.263 232.254 157.263Z" fill="#326BF6"/>
<path d="M166.746 153.812C166.746 153.431 167.013 153.122 167.342 153.122H172.106C172.435 153.122 172.701 153.431 172.701 153.812C172.701 154.193 172.435 154.502 172.106 154.502H167.342C167.013 154.502 166.746 154.193 166.746 153.812Z" fill="#326BF6"/>
<path d="M169.723 157.263C169.395 157.263 169.128 156.954 169.128 156.573L169.128 151.053C169.128 150.671 169.395 150.363 169.723 150.363C170.052 150.363 170.319 150.671 170.319 151.053L170.319 156.573C170.319 156.954 170.052 157.263 169.723 157.263Z" fill="#326BF6"/>
<path d="M229.276 33.0624C229.276 32.6813 229.543 32.3724 229.872 32.3724H234.636C234.965 32.3724 235.232 32.6813 235.232 33.0624C235.232 33.4435 234.965 33.7524 234.636 33.7524H229.872C229.543 33.7524 229.276 33.4435 229.276 33.0624Z" fill="#326BF6"/>
<path d="M232.254 36.5125C231.925 36.5125 231.658 36.2036 231.658 35.8225L231.658 30.3025C231.658 29.9214 231.925 29.6125 232.254 29.6125C232.583 29.6125 232.849 29.9214 232.849 30.3025L232.849 35.8225C232.849 36.2036 232.583 36.5125 232.254 36.5125Z" fill="#326BF6"/>
<path d="M166.746 33.0624C166.746 32.6813 167.013 32.3724 167.342 32.3724H172.106C172.435 32.3724 172.701 32.6813 172.701 33.0624C172.701 33.4435 172.435 33.7524 172.106 33.7524H167.342C167.013 33.7524 166.746 33.4435 166.746 33.0624Z" fill="#326BF6"/>
<path d="M169.723 36.5125C169.395 36.5125 169.128 36.2036 169.128 35.8225L169.128 30.3025C169.128 29.9214 169.395 29.6125 169.723 29.6125C170.052 29.6125 170.319 29.9214 170.319 30.3025L170.319 35.8225C170.319 36.2036 170.052 36.5125 169.723 36.5125Z" fill="#326BF6"/>
<path d="M229.276 129.662C229.276 129.281 229.543 128.972 229.872 128.972H234.636C234.965 128.972 235.232 129.281 235.232 129.662C235.232 130.043 234.965 130.352 234.636 130.352H229.872C229.543 130.352 229.276 130.043 229.276 129.662Z" fill="#326BF6"/>
<path d="M232.254 133.113C231.925 133.113 231.658 132.804 231.658 132.423L231.658 126.903C231.658 126.521 231.925 126.213 232.254 126.213C232.583 126.213 232.849 126.521 232.849 126.903L232.849 132.423C232.849 132.804 232.583 133.113 232.254 133.113Z" fill="#326BF6"/>
<path d="M166.746 129.662C166.746 129.281 167.013 128.972 167.342 128.972H172.106C172.435 128.972 172.701 129.281 172.701 129.662C172.701 130.043 172.435 130.352 172.106 130.352H167.342C167.013 130.352 166.746 130.043 166.746 129.662Z" fill="#326BF6"/>
<path d="M169.723 133.113C169.395 133.113 169.128 132.804 169.128 132.423L169.128 126.903C169.128 126.521 169.395 126.213 169.723 126.213C170.052 126.213 170.319 126.521 170.319 126.903L170.319 132.423C170.319 132.804 170.052 133.113 169.723 133.113Z" fill="#326BF6"/>
<path d="M229.276 81.3624C229.276 80.9813 229.543 80.6724 229.872 80.6724H234.636C234.965 80.6724 235.232 80.9813 235.232 81.3624C235.232 81.7434 234.965 82.0524 234.636 82.0524H229.872C229.543 82.0524 229.276 81.7434 229.276 81.3624Z" fill="#326BF6"/>
<path d="M232.254 84.8125C231.925 84.8125 231.658 84.5036 231.658 84.1225L231.658 78.6025C231.658 78.2214 231.925 77.9125 232.254 77.9125C232.583 77.9125 232.849 78.2214 232.849 78.6025L232.849 84.1225C232.849 84.5036 232.583 84.8125 232.254 84.8125Z" fill="#326BF6"/>
<path d="M166.746 81.3624C166.746 80.9813 167.013 80.6724 167.342 80.6724H172.106C172.435 80.6724 172.701 80.9813 172.701 81.3624C172.701 81.7434 172.435 82.0524 172.106 82.0524H167.342C167.013 82.0524 166.746 81.7434 166.746 81.3624Z" fill="#326BF6"/>
<path d="M169.723 84.8125C169.395 84.8125 169.128 84.5036 169.128 84.1225L169.128 78.6025C169.128 78.2214 169.395 77.9125 169.723 77.9125C170.052 77.9125 170.319 78.2214 170.319 78.6025L170.319 84.1225C170.319 84.5036 170.052 84.8125 169.723 84.8125Z" fill="#326BF6"/>
<path d="M291.806 8.91241C291.806 8.53134 292.072 8.22241 292.401 8.22241H297.165C297.494 8.22241 297.761 8.53134 297.761 8.91241C297.761 9.29349 297.494 9.60241 297.165 9.60241H292.401C292.072 9.60241 291.806 9.29349 291.806 8.91241Z" fill="#326BF6"/>
<path d="M294.784 12.3625C294.455 12.3625 294.188 12.0536 294.188 11.6725L294.188 6.15249C294.188 5.77141 294.455 5.46249 294.784 5.46249C295.112 5.46249 295.379 5.77141 295.379 6.15249L295.379 11.6725C295.379 12.0536 295.112 12.3625 294.784 12.3625Z" fill="#326BF6"/>
<path d="M291.806 105.512C291.806 105.131 292.072 104.822 292.401 104.822H297.165C297.494 104.822 297.761 105.131 297.761 105.512C297.761 105.893 297.494 106.202 297.165 106.202H292.401C292.072 106.202 291.806 105.893 291.806 105.512Z" fill="#326BF6"/>
<path d="M294.784 108.963C294.455 108.963 294.188 108.654 294.188 108.273L294.188 102.753C294.188 102.371 294.455 102.063 294.784 102.063C295.112 102.063 295.379 102.371 295.379 102.753L295.379 108.273C295.379 108.654 295.112 108.963 294.784 108.963Z" fill="#326BF6"/>
<path d="M291.806 57.2123C291.806 56.8313 292.072 56.5223 292.401 56.5223H297.165C297.494 56.5223 297.761 56.8313 297.761 57.2123C297.761 57.5934 297.494 57.9023 297.165 57.9023H292.401C292.072 57.9023 291.806 57.5934 291.806 57.2123Z" fill="#326BF6"/>
<path d="M294.784 60.6625C294.455 60.6625 294.188 60.3536 294.188 59.9725L294.188 54.4525C294.188 54.0714 294.455 53.7625 294.784 53.7625C295.112 53.7625 295.379 54.0714 295.379 54.4525L295.379 59.9725C295.379 60.3536 295.112 60.6625 294.784 60.6625Z" fill="#326BF6"/>
<path d="M291.806 153.812C291.806 153.431 292.072 153.122 292.401 153.122H297.165C297.494 153.122 297.761 153.431 297.761 153.812C297.761 154.193 297.494 154.502 297.165 154.502H292.401C292.072 154.502 291.806 154.193 291.806 153.812Z" fill="#326BF6"/>
<path d="M294.784 157.263C294.455 157.263 294.188 156.954 294.188 156.573L294.188 151.053C294.188 150.671 294.455 150.363 294.784 150.363C295.112 150.363 295.379 150.671 295.379 151.053L295.379 156.573C295.379 156.954 295.112 157.263 294.784 157.263Z" fill="#326BF6"/>
<path d="M291.806 33.0624C291.806 32.6813 292.072 32.3724 292.401 32.3724H297.165C297.494 32.3724 297.761 32.6813 297.761 33.0624C297.761 33.4435 297.494 33.7524 297.165 33.7524H292.401C292.072 33.7524 291.806 33.4435 291.806 33.0624Z" fill="#326BF6"/>
<path d="M294.784 36.5125C294.455 36.5125 294.188 36.2036 294.188 35.8225L294.188 30.3025C294.188 29.9214 294.455 29.6125 294.784 29.6125C295.112 29.6125 295.379 29.9214 295.379 30.3025L295.379 35.8225C295.379 36.2036 295.112 36.5125 294.784 36.5125Z" fill="#326BF6"/>
<path d="M291.806 129.662C291.806 129.281 292.072 128.972 292.401 128.972H297.165C297.494 128.972 297.761 129.281 297.761 129.662C297.761 130.043 297.494 130.352 297.165 130.352H292.401C292.072 130.352 291.806 130.043 291.806 129.662Z" fill="#326BF6"/>
<path d="M294.784 133.113C294.455 133.113 294.188 132.804 294.188 132.423L294.188 126.903C294.188 126.521 294.455 126.213 294.784 126.213C295.112 126.213 295.379 126.521 295.379 126.903L295.379 132.423C295.379 132.804 295.112 133.113 294.784 133.113Z" fill="#326BF6"/>
<path d="M291.806 81.3624C291.806 80.9813 292.072 80.6724 292.401 80.6724H297.165C297.494 80.6724 297.761 80.9813 297.761 81.3624C297.761 81.7434 297.494 82.0524 297.165 82.0524H292.401C292.072 82.0524 291.806 81.7434 291.806 81.3624Z" fill="#326BF6"/>
<path d="M294.784 84.8125C294.455 84.8125 294.188 84.5036 294.188 84.1225L294.188 78.6025C294.188 78.2214 294.455 77.9125 294.784 77.9125C295.112 77.9125 295.379 78.2214 295.379 78.6025L295.379 84.1225C295.379 84.5036 295.112 84.8125 294.784 84.8125Z" fill="#326BF6"/>
<path d="M250.119 8.91241C250.119 8.53134 250.386 8.22241 250.715 8.22241H255.479C255.808 8.22241 256.074 8.53134 256.074 8.91241C256.074 9.29349 255.808 9.60241 255.479 9.60241H250.715C250.386 9.60241 250.119 9.29349 250.119 8.91241Z" fill="#326BF6"/>
<path d="M253.097 12.3625C252.768 12.3625 252.501 12.0536 252.501 11.6725L252.501 6.15249C252.501 5.77141 252.768 5.46249 253.097 5.46249C253.426 5.46249 253.693 5.77141 253.693 6.15249L253.693 11.6725C253.693 12.0536 253.426 12.3625 253.097 12.3625Z" fill="#326BF6"/>
<path d="M187.59 8.91241C187.59 8.53134 187.856 8.22241 188.185 8.22241H192.95C193.278 8.22241 193.545 8.53134 193.545 8.91241C193.545 9.29349 193.278 9.60241 192.95 9.60241H188.185C187.856 9.60241 187.59 9.29349 187.59 8.91241Z" fill="#326BF6"/>
<path d="M190.567 12.3625C190.238 12.3625 189.972 12.0536 189.972 11.6725L189.972 6.15249C189.972 5.77141 190.238 5.46249 190.567 5.46249C190.896 5.46249 191.163 5.77141 191.163 6.15249L191.163 11.6725C191.163 12.0536 190.896 12.3625 190.567 12.3625Z" fill="#326BF6"/>
<path d="M250.119 105.512C250.119 105.131 250.386 104.822 250.715 104.822H255.479C255.808 104.822 256.074 105.131 256.074 105.512C256.074 105.893 255.808 106.202 255.479 106.202H250.715C250.386 106.202 250.119 105.893 250.119 105.512Z" fill="#326BF6"/>
<path d="M253.097 108.963C252.768 108.963 252.501 108.654 252.501 108.273L252.501 102.753C252.501 102.371 252.768 102.063 253.097 102.063C253.426 102.063 253.693 102.371 253.693 102.753L253.693 108.273C253.693 108.654 253.426 108.963 253.097 108.963Z" fill="#326BF6"/>
<path d="M187.59 105.512C187.59 105.131 187.856 104.822 188.185 104.822H192.95C193.278 104.822 193.545 105.131 193.545 105.512C193.545 105.893 193.278 106.202 192.95 106.202H188.185C187.856 106.202 187.59 105.893 187.59 105.512Z" fill="#326BF6"/>
<path d="M190.567 108.963C190.238 108.963 189.972 108.654 189.972 108.273L189.972 102.753C189.972 102.371 190.238 102.063 190.567 102.063C190.896 102.063 191.163 102.371 191.163 102.753L191.163 108.273C191.163 108.654 190.896 108.963 190.567 108.963Z" fill="#326BF6"/>
<path d="M250.119 57.2123C250.119 56.8313 250.386 56.5223 250.715 56.5223H255.479C255.808 56.5223 256.074 56.8313 256.074 57.2123C256.074 57.5934 255.808 57.9023 255.479 57.9023H250.715C250.386 57.9023 250.119 57.5934 250.119 57.2123Z" fill="#326BF6"/>
<path d="M253.097 60.6625C252.768 60.6625 252.501 60.3536 252.501 59.9725L252.501 54.4525C252.501 54.0714 252.768 53.7625 253.097 53.7625C253.426 53.7625 253.693 54.0714 253.693 54.4525L253.693 59.9725C253.693 60.3536 253.426 60.6625 253.097 60.6625Z" fill="#326BF6"/>
<path d="M187.59 57.2123C187.59 56.8313 187.856 56.5223 188.185 56.5223H192.95C193.278 56.5223 193.545 56.8313 193.545 57.2123C193.545 57.5934 193.278 57.9023 192.95 57.9023H188.185C187.856 57.9023 187.59 57.5934 187.59 57.2123Z" fill="#326BF6"/>
<path d="M190.567 60.6625C190.238 60.6625 189.972 60.3536 189.972 59.9725L189.972 54.4525C189.972 54.0714 190.238 53.7625 190.567 53.7625C190.896 53.7625 191.163 54.0714 191.163 54.4525L191.163 59.9725C191.163 60.3536 190.896 60.6625 190.567 60.6625Z" fill="#326BF6"/>
<path d="M250.119 153.812C250.119 153.431 250.386 153.122 250.715 153.122H255.479C255.808 153.122 256.074 153.431 256.074 153.812C256.074 154.193 255.808 154.502 255.479 154.502H250.715C250.386 154.502 250.119 154.193 250.119 153.812Z" fill="#326BF6"/>
<path d="M253.097 157.263C252.768 157.263 252.501 156.954 252.501 156.573L252.501 151.053C252.501 150.671 252.768 150.363 253.097 150.363C253.426 150.363 253.693 150.671 253.693 151.053L253.693 156.573C253.693 156.954 253.426 157.263 253.097 157.263Z" fill="#326BF6"/>
<path d="M187.59 153.812C187.59 153.431 187.856 153.122 188.185 153.122H192.95C193.278 153.122 193.545 153.431 193.545 153.812C193.545 154.193 193.278 154.502 192.95 154.502H188.185C187.856 154.502 187.59 154.193 187.59 153.812Z" fill="#326BF6"/>
<path d="M190.567 157.263C190.238 157.263 189.972 156.954 189.972 156.573L189.972 151.053C189.972 150.671 190.238 150.363 190.567 150.363C190.896 150.363 191.163 150.671 191.163 151.053L191.163 156.573C191.163 156.954 190.896 157.263 190.567 157.263Z" fill="#326BF6"/>
<path d="M250.119 33.0624C250.119 32.6813 250.386 32.3724 250.715 32.3724H255.479C255.808 32.3724 256.074 32.6813 256.074 33.0624C256.074 33.4435 255.808 33.7524 255.479 33.7524H250.715C250.386 33.7524 250.119 33.4435 250.119 33.0624Z" fill="#326BF6"/>
<path d="M253.097 36.5125C252.768 36.5125 252.501 36.2036 252.501 35.8225L252.501 30.3025C252.501 29.9214 252.768 29.6125 253.097 29.6125C253.426 29.6125 253.693 29.9214 253.693 30.3025L253.693 35.8225C253.693 36.2036 253.426 36.5125 253.097 36.5125Z" fill="#326BF6"/>
<path d="M187.59 33.0624C187.59 32.6813 187.856 32.3724 188.185 32.3724H192.95C193.278 32.3724 193.545 32.6813 193.545 33.0624C193.545 33.4435 193.278 33.7524 192.95 33.7524H188.185C187.856 33.7524 187.59 33.4435 187.59 33.0624Z" fill="#326BF6"/>
<path d="M190.567 36.5125C190.238 36.5125 189.972 36.2036 189.972 35.8225L189.972 30.3025C189.972 29.9214 190.238 29.6125 190.567 29.6125C190.896 29.6125 191.163 29.9214 191.163 30.3025L191.163 35.8225C191.163 36.2036 190.896 36.5125 190.567 36.5125Z" fill="#326BF6"/>
<path d="M250.119 129.662C250.119 129.281 250.386 128.972 250.715 128.972H255.479C255.808 128.972 256.074 129.281 256.074 129.662C256.074 130.043 255.808 130.352 255.479 130.352H250.715C250.386 130.352 250.119 130.043 250.119 129.662Z" fill="#326BF6"/>
<path d="M253.097 133.113C252.768 133.113 252.501 132.804 252.501 132.423L252.501 126.903C252.501 126.521 252.768 126.213 253.097 126.213C253.426 126.213 253.693 126.521 253.693 126.903L253.693 132.423C253.693 132.804 253.426 133.113 253.097 133.113Z" fill="#326BF6"/>
<path d="M187.59 129.662C187.59 129.281 187.856 128.972 188.185 128.972H192.95C193.278 128.972 193.545 129.281 193.545 129.662C193.545 130.043 193.278 130.352 192.95 130.352H188.185C187.856 130.352 187.59 130.043 187.59 129.662Z" fill="#326BF6"/>
<path d="M190.567 133.113C190.238 133.113 189.972 132.804 189.972 132.423L189.972 126.903C189.972 126.521 190.238 126.213 190.567 126.213C190.896 126.213 191.163 126.521 191.163 126.903L191.163 132.423C191.163 132.804 190.896 133.113 190.567 133.113Z" fill="#326BF6"/>
<path d="M250.119 81.3624C250.119 80.9813 250.386 80.6724 250.715 80.6724H255.479C255.808 80.6724 256.074 80.9813 256.074 81.3624C256.074 81.7434 255.808 82.0524 255.479 82.0524H250.715C250.386 82.0524 250.119 81.7434 250.119 81.3624Z" fill="#326BF6"/>
<path d="M253.097 84.8125C252.768 84.8125 252.501 84.5036 252.501 84.1225L252.501 78.6025C252.501 78.2214 252.768 77.9125 253.097 77.9125C253.426 77.9125 253.693 78.2214 253.693 78.6025L253.693 84.1225C253.693 84.5036 253.426 84.8125 253.097 84.8125Z" fill="#326BF6"/>
<path d="M187.59 81.3624C187.59 80.9813 187.856 80.6724 188.185 80.6724H192.95C193.278 80.6724 193.545 80.9813 193.545 81.3624C193.545 81.7434 193.278 82.0524 192.95 82.0524H188.185C187.856 82.0524 187.59 81.7434 187.59 81.3624Z" fill="#326BF6"/>
<path d="M190.567 84.8125C190.238 84.8125 189.972 84.5036 189.972 84.1225L189.972 78.6025C189.972 78.2214 190.238 77.9125 190.567 77.9125C190.896 77.9125 191.163 78.2214 191.163 78.6025L191.163 84.1225C191.163 84.5036 190.896 84.8125 190.567 84.8125Z" fill="#326BF6"/>
<path d="M83.373 8.91241C83.373 8.53134 83.6397 8.22241 83.9686 8.22241H88.7327C89.0616 8.22241 89.3283 8.53134 89.3283 8.91241C89.3283 9.29349 89.0616 9.60241 88.7327 9.60241H83.9686C83.6397 9.60241 83.373 9.29349 83.373 8.91241Z" fill="#326BF6"/>
<path d="M86.3504 12.3625C86.0215 12.3625 85.7549 12.0536 85.7549 11.6725L85.7549 6.15249C85.7549 5.77141 86.0215 5.46249 86.3504 5.46249C86.6793 5.46249 86.9459 5.77141 86.9459 6.15249L86.9459 11.6725C86.9459 12.0536 86.6793 12.3625 86.3504 12.3625Z" fill="#326BF6"/>
<path d="M20.8433 8.91241C20.8433 8.53134 21.1099 8.22241 21.4388 8.22241H26.203C26.5319 8.22241 26.7985 8.53134 26.7985 8.91241C26.7985 9.29349 26.5319 9.60241 26.203 9.60241H21.4388C21.1099 9.60241 20.8433 9.29349 20.8433 8.91241Z" fill="#326BF6"/>
<path d="M23.8211 12.3625C23.4922 12.3625 23.2256 12.0536 23.2256 11.6725L23.2256 6.15249C23.2256 5.77141 23.4922 5.46249 23.8211 5.46249C24.15 5.46249 24.4166 5.77141 24.4166 6.15249L24.4166 11.6725C24.4166 12.0536 24.15 12.3625 23.8211 12.3625Z" fill="#326BF6"/>
<path d="M83.373 105.512C83.373 105.131 83.6397 104.822 83.9686 104.822H88.7327C89.0616 104.822 89.3283 105.131 89.3283 105.512C89.3283 105.893 89.0616 106.202 88.7327 106.202H83.9686C83.6397 106.202 83.373 105.893 83.373 105.512Z" fill="#326BF6"/>
<path d="M86.3504 108.963C86.0215 108.963 85.7549 108.654 85.7549 108.273L85.7549 102.753C85.7549 102.371 86.0215 102.063 86.3504 102.063C86.6793 102.063 86.9459 102.371 86.9459 102.753L86.9459 108.273C86.9459 108.654 86.6793 108.963 86.3504 108.963Z" fill="#326BF6"/>
<path d="M20.8433 105.512C20.8433 105.131 21.1099 104.822 21.4388 104.822H26.203C26.5319 104.822 26.7985 105.131 26.7985 105.512C26.7985 105.893 26.5319 106.202 26.203 106.202H21.4388C21.1099 106.202 20.8433 105.893 20.8433 105.512Z" fill="#326BF6"/>
<path d="M23.8211 108.963C23.4922 108.963 23.2256 108.654 23.2256 108.273L23.2256 102.753C23.2256 102.371 23.4922 102.063 23.8211 102.063C24.15 102.063 24.4166 102.371 24.4166 102.753L24.4166 108.273C24.4166 108.654 24.15 108.963 23.8211 108.963Z" fill="#326BF6"/>
<path d="M83.373 57.2123C83.373 56.8313 83.6397 56.5223 83.9686 56.5223H88.7327C89.0616 56.5223 89.3283 56.8313 89.3283 57.2123C89.3283 57.5934 89.0616 57.9023 88.7327 57.9023H83.9686C83.6397 57.9023 83.373 57.5934 83.373 57.2123Z" fill="#326BF6"/>
<path d="M86.3504 60.6625C86.0215 60.6625 85.7549 60.3536 85.7549 59.9725L85.7549 54.4525C85.7549 54.0714 86.0215 53.7625 86.3504 53.7625C86.6793 53.7625 86.9459 54.0714 86.9459 54.4525L86.9459 59.9725C86.9459 60.3536 86.6793 60.6625 86.3504 60.6625Z" fill="#326BF6"/>
<path d="M20.8433 57.2123C20.8433 56.8313 21.1099 56.5223 21.4388 56.5223H26.203C26.5319 56.5223 26.7985 56.8313 26.7985 57.2123C26.7985 57.5934 26.5319 57.9023 26.203 57.9023H21.4388C21.1099 57.9023 20.8433 57.5934 20.8433 57.2123Z" fill="#326BF6"/>
<path d="M23.8211 60.6625C23.4922 60.6625 23.2256 60.3536 23.2256 59.9725L23.2256 54.4525C23.2256 54.0714 23.4922 53.7625 23.8211 53.7625C24.15 53.7625 24.4166 54.0714 24.4166 54.4525L24.4166 59.9725C24.4166 60.3536 24.15 60.6625 23.8211 60.6625Z" fill="#326BF6"/>
<path d="M83.373 153.812C83.373 153.431 83.6397 153.122 83.9686 153.122H88.7327C89.0616 153.122 89.3283 153.431 89.3283 153.812C89.3283 154.193 89.0616 154.502 88.7327 154.502H83.9686C83.6397 154.502 83.373 154.193 83.373 153.812Z" fill="#326BF6"/>
<path d="M86.3504 157.263C86.0215 157.263 85.7549 156.954 85.7549 156.573L85.7549 151.053C85.7549 150.671 86.0215 150.363 86.3504 150.363C86.6793 150.363 86.9459 150.671 86.9459 151.053L86.9459 156.573C86.9459 156.954 86.6793 157.263 86.3504 157.263Z" fill="#326BF6"/>
<path d="M20.8433 153.812C20.8433 153.431 21.1099 153.122 21.4388 153.122H26.203C26.5319 153.122 26.7985 153.431 26.7985 153.812C26.7985 154.193 26.5319 154.502 26.203 154.502H21.4388C21.1099 154.502 20.8433 154.193 20.8433 153.812Z" fill="#326BF6"/>
<path d="M23.8211 157.263C23.4922 157.263 23.2256 156.954 23.2256 156.573L23.2256 151.053C23.2256 150.671 23.4922 150.363 23.8211 150.363C24.15 150.363 24.4166 150.671 24.4166 151.053L24.4166 156.573C24.4166 156.954 24.15 157.263 23.8211 157.263Z" fill="#326BF6"/>
<path d="M83.373 33.0624C83.373 32.6813 83.6397 32.3724 83.9686 32.3724H88.7327C89.0616 32.3724 89.3283 32.6813 89.3283 33.0624C89.3283 33.4435 89.0616 33.7524 88.7327 33.7524H83.9686C83.6397 33.7524 83.373 33.4435 83.373 33.0624Z" fill="#326BF6"/>
<path d="M86.3504 36.5125C86.0215 36.5125 85.7549 36.2036 85.7549 35.8225L85.7549 30.3025C85.7549 29.9214 86.0215 29.6125 86.3504 29.6125C86.6793 29.6125 86.9459 29.9214 86.9459 30.3025L86.9459 35.8225C86.9459 36.2036 86.6793 36.5125 86.3504 36.5125Z" fill="#326BF6"/>
<path d="M20.8433 33.0624C20.8433 32.6813 21.1099 32.3724 21.4388 32.3724H26.203C26.5319 32.3724 26.7985 32.6813 26.7985 33.0624C26.7985 33.4435 26.5319 33.7524 26.203 33.7524H21.4388C21.1099 33.7524 20.8433 33.4435 20.8433 33.0624Z" fill="#326BF6"/>
<path d="M23.8211 36.5125C23.4922 36.5125 23.2256 36.2036 23.2256 35.8225L23.2256 30.3025C23.2256 29.9214 23.4922 29.6125 23.8211 29.6125C24.15 29.6125 24.4166 29.9214 24.4166 30.3025L24.4166 35.8225C24.4166 36.2036 24.15 36.5125 23.8211 36.5125Z" fill="#326BF6"/>
<path d="M83.373 129.662C83.373 129.281 83.6397 128.972 83.9686 128.972H88.7327C89.0616 128.972 89.3283 129.281 89.3283 129.662C89.3283 130.043 89.0616 130.352 88.7327 130.352H83.9686C83.6397 130.352 83.373 130.043 83.373 129.662Z" fill="#326BF6"/>
<path d="M86.3504 133.113C86.0215 133.113 85.7549 132.804 85.7549 132.423L85.7549 126.903C85.7549 126.521 86.0215 126.213 86.3504 126.213C86.6793 126.213 86.9459 126.521 86.9459 126.903L86.9459 132.423C86.9459 132.804 86.6793 133.113 86.3504 133.113Z" fill="#326BF6"/>
<path d="M20.8433 129.662C20.8433 129.281 21.1099 128.972 21.4388 128.972H26.203C26.5319 128.972 26.7985 129.281 26.7985 129.662C26.7985 130.043 26.5319 130.352 26.203 130.352H21.4388C21.1099 130.352 20.8433 130.043 20.8433 129.662Z" fill="#326BF6"/>
<path d="M23.8211 133.113C23.4922 133.113 23.2256 132.804 23.2256 132.423L23.2256 126.903C23.2256 126.521 23.4922 126.213 23.8211 126.213C24.15 126.213 24.4166 126.521 24.4166 126.903L24.4166 132.423C24.4166 132.804 24.15 133.113 23.8211 133.113Z" fill="#326BF6"/>
<path d="M83.373 81.3624C83.373 80.9813 83.6397 80.6724 83.9686 80.6724H88.7327C89.0616 80.6724 89.3283 80.9813 89.3283 81.3624C89.3283 81.7434 89.0616 82.0524 88.7327 82.0524H83.9686C83.6397 82.0524 83.373 81.7434 83.373 81.3624Z" fill="#326BF6"/>
<path d="M86.3504 84.8125C86.0215 84.8125 85.7549 84.5036 85.7549 84.1225L85.7549 78.6025C85.7549 78.2214 86.0215 77.9125 86.3504 77.9125C86.6793 77.9125 86.9459 78.2214 86.9459 78.6025L86.9459 84.1225C86.9459 84.5036 86.6793 84.8125 86.3504 84.8125Z" fill="#326BF6"/>
<path d="M20.8433 81.3624C20.8433 80.9813 21.1099 80.6724 21.4388 80.6724H26.203C26.5319 80.6724 26.7985 80.9813 26.7985 81.3624C26.7985 81.7434 26.5319 82.0524 26.203 82.0524H21.4388C21.1099 82.0524 20.8433 81.7434 20.8433 81.3624Z" fill="#326BF6"/>
<path d="M23.8211 84.8125C23.4922 84.8125 23.2256 84.5036 23.2256 84.1225L23.2256 78.6025C23.2256 78.2214 23.4922 77.9125 23.8211 77.9125C24.15 77.9125 24.4166 78.2214 24.4166 78.6025L24.4166 84.1225C24.4166 84.5036 24.15 84.8125 23.8211 84.8125Z" fill="#326BF6"/>
<path d="M0 8.91241C0 8.53134 0.266625 8.22241 0.595523 8.22241H5.3597C5.6886 8.22241 5.95522 8.53134 5.95522 8.91241C5.95522 9.29349 5.6886 9.60241 5.3597 9.60241H0.595523C0.266625 9.60241 0 9.29349 0 8.91241Z" fill="#326BF6"/>
<path d="M2.97736 12.3625C2.64846 12.3625 2.38184 12.0536 2.38184 11.6725L2.38184 6.15249C2.38184 5.77141 2.64846 5.46249 2.97736 5.46249C3.30626 5.46249 3.57288 5.77141 3.57288 6.15249L3.57288 11.6725C3.57288 12.0536 3.30626 12.3625 2.97736 12.3625Z" fill="#326BF6"/>
<path d="M0 105.512C0 105.131 0.266625 104.822 0.595523 104.822H5.3597C5.6886 104.822 5.95522 105.131 5.95522 105.512C5.95522 105.893 5.6886 106.202 5.3597 106.202H0.595523C0.266625 106.202 0 105.893 0 105.512Z" fill="#326BF6"/>
<path d="M2.97736 108.963C2.64846 108.963 2.38184 108.654 2.38184 108.273L2.38184 102.753C2.38184 102.371 2.64846 102.063 2.97736 102.063C3.30626 102.063 3.57288 102.371 3.57288 102.753L3.57288 108.273C3.57288 108.654 3.30626 108.963 2.97736 108.963Z" fill="#326BF6"/>
<path d="M0 57.2123C0 56.8313 0.266625 56.5223 0.595523 56.5223H5.3597C5.6886 56.5223 5.95522 56.8313 5.95522 57.2123C5.95522 57.5934 5.6886 57.9023 5.3597 57.9023H0.595523C0.266625 57.9023 0 57.5934 0 57.2123Z" fill="#326BF6"/>
<path d="M2.97736 60.6625C2.64846 60.6625 2.38184 60.3536 2.38184 59.9725L2.38184 54.4525C2.38184 54.0714 2.64846 53.7625 2.97736 53.7625C3.30626 53.7625 3.57288 54.0714 3.57288 54.4525L3.57288 59.9725C3.57288 60.3536 3.30626 60.6625 2.97736 60.6625Z" fill="#326BF6"/>
<path d="M0 153.812C0 153.431 0.266625 153.122 0.595523 153.122H5.3597C5.6886 153.122 5.95522 153.431 5.95522 153.812C5.95522 154.193 5.6886 154.502 5.3597 154.502H0.595523C0.266625 154.502 0 154.193 0 153.812Z" fill="#326BF6"/>
<path d="M2.97736 157.263C2.64846 157.263 2.38184 156.954 2.38184 156.573L2.38184 151.053C2.38184 150.671 2.64846 150.363 2.97736 150.363C3.30626 150.363 3.57288 150.671 3.57288 151.053L3.57288 156.573C3.57288 156.954 3.30626 157.263 2.97736 157.263Z" fill="#326BF6"/>
<path d="M0 33.0624C0 32.6813 0.266625 32.3724 0.595523 32.3724H5.3597C5.6886 32.3724 5.95522 32.6813 5.95522 33.0624C5.95522 33.4435 5.6886 33.7524 5.3597 33.7524H0.595523C0.266625 33.7524 0 33.4435 0 33.0624Z" fill="#326BF6"/>
<path d="M2.97736 36.5125C2.64846 36.5125 2.38184 36.2036 2.38184 35.8225L2.38184 30.3025C2.38184 29.9214 2.64846 29.6125 2.97736 29.6125C3.30626 29.6125 3.57288 29.9214 3.57288 30.3025L3.57288 35.8225C3.57288 36.2036 3.30626 36.5125 2.97736 36.5125Z" fill="#326BF6"/>
<path d="M0 129.662C0 129.281 0.266625 128.972 0.595523 128.972H5.3597C5.6886 128.972 5.95522 129.281 5.95522 129.662C5.95522 130.043 5.6886 130.352 5.3597 130.352H0.595523C0.266625 130.352 0 130.043 0 129.662Z" fill="#326BF6"/>
<path d="M2.97736 133.113C2.64846 133.113 2.38184 132.804 2.38184 132.423L2.38184 126.903C2.38184 126.521 2.64846 126.213 2.97736 126.213C3.30626 126.213 3.57288 126.521 3.57288 126.903L3.57288 132.423C3.57288 132.804 3.30626 133.113 2.97736 133.113Z" fill="#326BF6"/>
<path d="M0 81.3624C0 80.9813 0.266625 80.6724 0.595523 80.6724H5.3597C5.6886 80.6724 5.95522 80.9813 5.95522 81.3624C5.95522 81.7434 5.6886 82.0524 5.3597 82.0524H0.595523C0.266625 82.0524 0 81.7434 0 81.3624Z" fill="#326BF6"/>
<path d="M2.97736 84.8125C2.64846 84.8125 2.38184 84.5036 2.38184 84.1225L2.38184 78.6025C2.38184 78.2214 2.64846 77.9125 2.97736 77.9125C3.30626 77.9125 3.57288 78.2214 3.57288 78.6025L3.57288 84.1225C3.57288 84.5036 3.30626 84.8125 2.97736 84.8125Z" fill="#326BF6"/>
<path d="M104.216 8.91241C104.216 8.53134 104.483 8.22241 104.812 8.22241H109.576C109.905 8.22241 110.172 8.53134 110.172 8.91241C110.172 9.29349 109.905 9.60241 109.576 9.60241H104.812C104.483 9.60241 104.216 9.29349 104.216 8.91241Z" fill="#326BF6"/>
<path d="M107.194 12.3625C106.865 12.3625 106.599 12.0536 106.599 11.6725L106.599 6.15249C106.599 5.77141 106.865 5.46249 107.194 5.46249C107.523 5.46249 107.79 5.77141 107.79 6.15249L107.79 11.6725C107.79 12.0536 107.523 12.3625 107.194 12.3625Z" fill="#326BF6"/>
<path d="M41.6865 8.91241C41.6865 8.53134 41.9531 8.22241 42.282 8.22241H47.0462C47.3751 8.22241 47.6417 8.53134 47.6417 8.91241C47.6417 9.29349 47.3751 9.60241 47.0462 9.60241H42.282C41.9531 9.60241 41.6865 9.29349 41.6865 8.91241Z" fill="#326BF6"/>
<path d="M44.6639 12.3625C44.335 12.3625 44.0684 12.0536 44.0684 11.6725L44.0684 6.15249C44.0684 5.77141 44.335 5.46249 44.6639 5.46249C44.9928 5.46249 45.2594 5.77141 45.2594 6.15249L45.2594 11.6725C45.2594 12.0536 44.9928 12.3625 44.6639 12.3625Z" fill="#326BF6"/>
<path d="M104.216 105.512C104.216 105.131 104.483 104.822 104.812 104.822H109.576C109.905 104.822 110.172 105.131 110.172 105.512C110.172 105.893 109.905 106.202 109.576 106.202H104.812C104.483 106.202 104.216 105.893 104.216 105.512Z" fill="#326BF6"/>
<path d="M107.194 108.963C106.865 108.963 106.599 108.654 106.599 108.273L106.599 102.753C106.599 102.371 106.865 102.063 107.194 102.063C107.523 102.063 107.79 102.371 107.79 102.753L107.79 108.273C107.79 108.654 107.523 108.963 107.194 108.963Z" fill="#326BF6"/>
<path d="M41.6865 105.512C41.6865 105.131 41.9531 104.822 42.282 104.822H47.0462C47.3751 104.822 47.6417 105.131 47.6417 105.512C47.6417 105.893 47.3751 106.202 47.0462 106.202H42.282C41.9531 106.202 41.6865 105.893 41.6865 105.512Z" fill="#326BF6"/>
<path d="M44.6639 108.963C44.335 108.963 44.0684 108.654 44.0684 108.273L44.0684 102.753C44.0684 102.371 44.335 102.063 44.6639 102.063C44.9928 102.063 45.2594 102.371 45.2594 102.753L45.2594 108.273C45.2594 108.654 44.9928 108.963 44.6639 108.963Z" fill="#326BF6"/>
<path d="M104.216 57.2123C104.216 56.8313 104.483 56.5223 104.812 56.5223H109.576C109.905 56.5223 110.172 56.8313 110.172 57.2123C110.172 57.5934 109.905 57.9023 109.576 57.9023H104.812C104.483 57.9023 104.216 57.5934 104.216 57.2123Z" fill="#326BF6"/>
<path d="M107.194 60.6625C106.865 60.6625 106.599 60.3536 106.599 59.9725L106.599 54.4525C106.599 54.0714 106.865 53.7625 107.194 53.7625C107.523 53.7625 107.79 54.0714 107.79 54.4525L107.79 59.9725C107.79 60.3536 107.523 60.6625 107.194 60.6625Z" fill="#326BF6"/>
<path d="M41.6865 57.2123C41.6865 56.8313 41.9531 56.5223 42.282 56.5223H47.0462C47.3751 56.5223 47.6417 56.8313 47.6417 57.2123C47.6417 57.5934 47.3751 57.9023 47.0462 57.9023H42.282C41.9531 57.9023 41.6865 57.5934 41.6865 57.2123Z" fill="#326BF6"/>
<path d="M44.6639 60.6625C44.335 60.6625 44.0684 60.3536 44.0684 59.9725L44.0684 54.4525C44.0684 54.0714 44.335 53.7625 44.6639 53.7625C44.9928 53.7625 45.2594 54.0714 45.2594 54.4525L45.2594 59.9725C45.2594 60.3536 44.9928 60.6625 44.6639 60.6625Z" fill="#326BF6"/>
<path d="M104.216 153.812C104.216 153.431 104.483 153.122 104.812 153.122H109.576C109.905 153.122 110.172 153.431 110.172 153.812C110.172 154.193 109.905 154.502 109.576 154.502H104.812C104.483 154.502 104.216 154.193 104.216 153.812Z" fill="#326BF6"/>
<path d="M107.194 157.263C106.865 157.263 106.599 156.954 106.599 156.573L106.599 151.053C106.599 150.671 106.865 150.363 107.194 150.363C107.523 150.363 107.79 150.671 107.79 151.053L107.79 156.573C107.79 156.954 107.523 157.263 107.194 157.263Z" fill="#326BF6"/>
<path d="M41.6865 153.812C41.6865 153.431 41.9531 153.122 42.282 153.122H47.0462C47.3751 153.122 47.6417 153.431 47.6417 153.812C47.6417 154.193 47.3751 154.502 47.0462 154.502H42.282C41.9531 154.502 41.6865 154.193 41.6865 153.812Z" fill="#326BF6"/>
<path d="M44.6639 157.263C44.335 157.263 44.0684 156.954 44.0684 156.573L44.0684 151.053C44.0684 150.671 44.335 150.363 44.6639 150.363C44.9928 150.363 45.2594 150.671 45.2594 151.053L45.2594 156.573C45.2594 156.954 44.9928 157.263 44.6639 157.263Z" fill="#326BF6"/>
<path d="M104.216 33.0624C104.216 32.6813 104.483 32.3724 104.812 32.3724H109.576C109.905 32.3724 110.172 32.6813 110.172 33.0624C110.172 33.4435 109.905 33.7524 109.576 33.7524H104.812C104.483 33.7524 104.216 33.4435 104.216 33.0624Z" fill="#326BF6"/>
<path d="M107.194 36.5125C106.865 36.5125 106.599 36.2036 106.599 35.8225L106.599 30.3025C106.599 29.9214 106.865 29.6125 107.194 29.6125C107.523 29.6125 107.79 29.9214 107.79 30.3025L107.79 35.8225C107.79 36.2036 107.523 36.5125 107.194 36.5125Z" fill="#326BF6"/>
<path d="M41.6865 33.0624C41.6865 32.6813 41.9531 32.3724 42.282 32.3724H47.0462C47.3751 32.3724 47.6417 32.6813 47.6417 33.0624C47.6417 33.4435 47.3751 33.7524 47.0462 33.7524H42.282C41.9531 33.7524 41.6865 33.4435 41.6865 33.0624Z" fill="#326BF6"/>
<path d="M44.6639 36.5125C44.335 36.5125 44.0684 36.2036 44.0684 35.8225L44.0684 30.3025C44.0684 29.9214 44.335 29.6125 44.6639 29.6125C44.9928 29.6125 45.2594 29.9214 45.2594 30.3025L45.2594 35.8225C45.2594 36.2036 44.9928 36.5125 44.6639 36.5125Z" fill="#326BF6"/>
<path d="M104.216 129.662C104.216 129.281 104.483 128.972 104.812 128.972H109.576C109.905 128.972 110.172 129.281 110.172 129.662C110.172 130.043 109.905 130.352 109.576 130.352H104.812C104.483 130.352 104.216 130.043 104.216 129.662Z" fill="#326BF6"/>
<path d="M107.194 133.113C106.865 133.113 106.599 132.804 106.599 132.423L106.599 126.903C106.599 126.521 106.865 126.213 107.194 126.213C107.523 126.213 107.79 126.521 107.79 126.903L107.79 132.423C107.79 132.804 107.523 133.113 107.194 133.113Z" fill="#326BF6"/>
<path d="M41.6865 129.662C41.6865 129.281 41.9531 128.972 42.282 128.972H47.0462C47.3751 128.972 47.6417 129.281 47.6417 129.662C47.6417 130.043 47.3751 130.352 47.0462 130.352H42.282C41.9531 130.352 41.6865 130.043 41.6865 129.662Z" fill="#326BF6"/>
<path d="M44.6639 133.113C44.335 133.113 44.0684 132.804 44.0684 132.423L44.0684 126.903C44.0684 126.521 44.335 126.213 44.6639 126.213C44.9928 126.213 45.2594 126.521 45.2594 126.903L45.2594 132.423C45.2594 132.804 44.9928 133.113 44.6639 133.113Z" fill="#326BF6"/>
<path d="M104.216 81.3624C104.216 80.9813 104.483 80.6724 104.812 80.6724H109.576C109.905 80.6724 110.172 80.9813 110.172 81.3624C110.172 81.7434 109.905 82.0524 109.576 82.0524H104.812C104.483 82.0524 104.216 81.7434 104.216 81.3624Z" fill="#326BF6"/>
<path d="M107.194 84.8125C106.865 84.8125 106.599 84.5036 106.599 84.1225L106.599 78.6025C106.599 78.2214 106.865 77.9125 107.194 77.9125C107.523 77.9125 107.79 78.2214 107.79 78.6025L107.79 84.1225C107.79 84.5036 107.523 84.8125 107.194 84.8125Z" fill="#326BF6"/>
<path d="M41.6865 81.3624C41.6865 80.9813 41.9531 80.6724 42.282 80.6724H47.0462C47.3751 80.6724 47.6417 80.9813 47.6417 81.3624C47.6417 81.7434 47.3751 82.0524 47.0462 82.0524H42.282C41.9531 82.0524 41.6865 81.7434 41.6865 81.3624Z" fill="#326BF6"/>
<path d="M44.6639 84.8125C44.335 84.8125 44.0684 84.5036 44.0684 84.1225L44.0684 78.6025C44.0684 78.2214 44.335 77.9125 44.6639 77.9125C44.9928 77.9125 45.2594 78.2214 45.2594 78.6025L45.2594 84.1225C45.2594 84.5036 44.9928 84.8125 44.6639 84.8125Z" fill="#326BF6"/>
<path d="M125.06 8.91241C125.06 8.53134 125.326 8.22241 125.655 8.22241H130.419C130.748 8.22241 131.015 8.53134 131.015 8.91241C131.015 9.29349 130.748 9.60241 130.419 9.60241H125.655C125.326 9.60241 125.06 9.29349 125.06 8.91241Z" fill="#326BF6"/>
<path d="M128.037 12.3625C127.708 12.3625 127.441 12.0536 127.441 11.6725L127.441 6.15249C127.441 5.77141 127.708 5.46249 128.037 5.46249C128.366 5.46249 128.632 5.77141 128.632 6.15249L128.632 11.6725C128.632 12.0536 128.366 12.3625 128.037 12.3625Z" fill="#326BF6"/>
<path d="M62.5298 8.91241C62.5298 8.53134 62.7964 8.22241 63.1253 8.22241H67.8895C68.2184 8.22241 68.485 8.53134 68.485 8.91241C68.485 9.29349 68.2184 9.60241 67.8895 9.60241H63.1253C62.7964 9.60241 62.5298 9.29349 62.5298 8.91241Z" fill="#326BF6"/>
<path d="M65.5076 12.3625C65.1787 12.3625 64.9121 12.0536 64.9121 11.6725L64.9121 6.15249C64.9121 5.77141 65.1787 5.46249 65.5076 5.46249C65.8365 5.46249 66.1032 5.77141 66.1032 6.15249L66.1032 11.6725C66.1032 12.0536 65.8365 12.3625 65.5076 12.3625Z" fill="#326BF6"/>
<path d="M125.06 105.512C125.06 105.131 125.326 104.822 125.655 104.822H130.419C130.748 104.822 131.015 105.131 131.015 105.512C131.015 105.893 130.748 106.202 130.419 106.202H125.655C125.326 106.202 125.06 105.893 125.06 105.512Z" fill="#326BF6"/>
<path d="M128.037 108.963C127.708 108.963 127.441 108.654 127.441 108.273L127.441 102.753C127.441 102.371 127.708 102.063 128.037 102.063C128.366 102.063 128.632 102.371 128.632 102.753L128.632 108.273C128.632 108.654 128.366 108.963 128.037 108.963Z" fill="#326BF6"/>
<path d="M62.5298 105.512C62.5298 105.131 62.7964 104.822 63.1253 104.822H67.8895C68.2184 104.822 68.485 105.131 68.485 105.512C68.485 105.893 68.2184 106.202 67.8895 106.202H63.1253C62.7964 106.202 62.5298 105.893 62.5298 105.512Z" fill="#326BF6"/>
<path d="M65.5076 108.963C65.1787 108.963 64.9121 108.654 64.9121 108.273L64.9121 102.753C64.9121 102.371 65.1787 102.063 65.5076 102.063C65.8365 102.063 66.1032 102.371 66.1032 102.753L66.1032 108.273C66.1032 108.654 65.8365 108.963 65.5076 108.963Z" fill="#326BF6"/>
<path d="M125.06 57.2123C125.06 56.8313 125.326 56.5223 125.655 56.5223H130.419C130.748 56.5223 131.015 56.8313 131.015 57.2123C131.015 57.5934 130.748 57.9023 130.419 57.9023H125.655C125.326 57.9023 125.06 57.5934 125.06 57.2123Z" fill="#326BF6"/>
<path d="M128.037 60.6625C127.708 60.6625 127.441 60.3536 127.441 59.9725L127.441 54.4525C127.441 54.0714 127.708 53.7625 128.037 53.7625C128.366 53.7625 128.632 54.0714 128.632 54.4525L128.632 59.9725C128.632 60.3536 128.366 60.6625 128.037 60.6625Z" fill="#326BF6"/>
<path d="M62.5298 57.2123C62.5298 56.8313 62.7964 56.5223 63.1253 56.5223H67.8895C68.2184 56.5223 68.485 56.8313 68.485 57.2123C68.485 57.5934 68.2184 57.9023 67.8895 57.9023H63.1253C62.7964 57.9023 62.5298 57.5934 62.5298 57.2123Z" fill="#326BF6"/>
<path d="M65.5076 60.6625C65.1787 60.6625 64.9121 60.3536 64.9121 59.9725L64.9121 54.4525C64.9121 54.0714 65.1787 53.7625 65.5076 53.7625C65.8365 53.7625 66.1032 54.0714 66.1032 54.4525L66.1032 59.9725C66.1032 60.3536 65.8365 60.6625 65.5076 60.6625Z" fill="#326BF6"/>
<path d="M125.06 153.812C125.06 153.431 125.326 153.122 125.655 153.122H130.419C130.748 153.122 131.015 153.431 131.015 153.812C131.015 154.193 130.748 154.502 130.419 154.502H125.655C125.326 154.502 125.06 154.193 125.06 153.812Z" fill="#326BF6"/>
<path d="M128.037 157.263C127.708 157.263 127.441 156.954 127.441 156.573L127.441 151.053C127.441 150.671 127.708 150.363 128.037 150.363C128.366 150.363 128.632 150.671 128.632 151.053L128.632 156.573C128.632 156.954 128.366 157.263 128.037 157.263Z" fill="#326BF6"/>
<path d="M62.5298 153.812C62.5298 153.431 62.7964 153.122 63.1253 153.122H67.8895C68.2184 153.122 68.485 153.431 68.485 153.812C68.485 154.193 68.2184 154.502 67.8895 154.502H63.1253C62.7964 154.502 62.5298 154.193 62.5298 153.812Z" fill="#326BF6"/>
<path d="M65.5076 157.263C65.1787 157.263 64.9121 156.954 64.9121 156.573L64.9121 151.053C64.9121 150.671 65.1787 150.363 65.5076 150.363C65.8365 150.363 66.1032 150.671 66.1032 151.053L66.1032 156.573C66.1032 156.954 65.8365 157.263 65.5076 157.263Z" fill="#326BF6"/>
<path d="M125.06 33.0624C125.06 32.6813 125.326 32.3724 125.655 32.3724H130.419C130.748 32.3724 131.015 32.6813 131.015 33.0624C131.015 33.4435 130.748 33.7524 130.419 33.7524H125.655C125.326 33.7524 125.06 33.4435 125.06 33.0624Z" fill="#326BF6"/>
<path d="M128.037 36.5125C127.708 36.5125 127.441 36.2036 127.441 35.8225L127.441 30.3025C127.441 29.9214 127.708 29.6125 128.037 29.6125C128.366 29.6125 128.632 29.9214 128.632 30.3025L128.632 35.8225C128.632 36.2036 128.366 36.5125 128.037 36.5125Z" fill="#326BF6"/>
<path d="M62.5298 33.0624C62.5298 32.6813 62.7964 32.3724 63.1253 32.3724H67.8895C68.2184 32.3724 68.485 32.6813 68.485 33.0624C68.485 33.4435 68.2184 33.7524 67.8895 33.7524H63.1253C62.7964 33.7524 62.5298 33.4435 62.5298 33.0624Z" fill="#326BF6"/>
<path d="M65.5076 36.5125C65.1787 36.5125 64.9121 36.2036 64.9121 35.8225L64.9121 30.3025C64.9121 29.9214 65.1787 29.6125 65.5076 29.6125C65.8365 29.6125 66.1032 29.9214 66.1032 30.3025L66.1032 35.8225C66.1032 36.2036 65.8365 36.5125 65.5076 36.5125Z" fill="#326BF6"/>
<path d="M125.06 129.662C125.06 129.281 125.326 128.972 125.655 128.972H130.419C130.748 128.972 131.015 129.281 131.015 129.662C131.015 130.043 130.748 130.352 130.419 130.352H125.655C125.326 130.352 125.06 130.043 125.06 129.662Z" fill="#326BF6"/>
<path d="M128.037 133.113C127.708 133.113 127.441 132.804 127.441 132.423L127.441 126.903C127.441 126.521 127.708 126.213 128.037 126.213C128.366 126.213 128.632 126.521 128.632 126.903L128.632 132.423C128.632 132.804 128.366 133.113 128.037 133.113Z" fill="#326BF6"/>
<path d="M62.5298 129.662C62.5298 129.281 62.7964 128.972 63.1253 128.972H67.8895C68.2184 128.972 68.485 129.281 68.485 129.662C68.485 130.043 68.2184 130.352 67.8895 130.352H63.1253C62.7964 130.352 62.5298 130.043 62.5298 129.662Z" fill="#326BF6"/>
<path d="M65.5076 133.113C65.1787 133.113 64.9121 132.804 64.9121 132.423L64.9121 126.903C64.9121 126.521 65.1787 126.213 65.5076 126.213C65.8365 126.213 66.1032 126.521 66.1032 126.903L66.1032 132.423C66.1032 132.804 65.8365 133.113 65.5076 133.113Z" fill="#326BF6"/>
<path d="M125.06 81.3624C125.06 80.9813 125.326 80.6724 125.655 80.6724H130.419C130.748 80.6724 131.015 80.9813 131.015 81.3624C131.015 81.7434 130.748 82.0524 130.419 82.0524H125.655C125.326 82.0524 125.06 81.7434 125.06 81.3624Z" fill="#326BF6"/>
<path d="M128.037 84.8125C127.708 84.8125 127.441 84.5036 127.441 84.1225L127.441 78.6025C127.441 78.2214 127.708 77.9125 128.037 77.9125C128.366 77.9125 128.632 78.2214 128.632 78.6025L128.632 84.1225C128.632 84.5036 128.366 84.8125 128.037 84.8125Z" fill="#326BF6"/>
<path d="M62.5298 81.3624C62.5298 80.9813 62.7964 80.6724 63.1253 80.6724H67.8895C68.2184 80.6724 68.485 80.9813 68.485 81.3624C68.485 81.7434 68.2184 82.0524 67.8895 82.0524H63.1253C62.7964 82.0524 62.5298 81.7434 62.5298 81.3624Z" fill="#326BF6"/>
<path d="M65.5076 84.8125C65.1787 84.8125 64.9121 84.5036 64.9121 84.1225L64.9121 78.6025C64.9121 78.2214 65.1787 77.9125 65.5076 77.9125C65.8365 77.9125 66.1032 78.2214 66.1032 78.6025L66.1032 84.1225C66.1032 84.5036 65.8365 84.8125 65.5076 84.8125Z" fill="#326BF6"/>
<path d="M312.649 8.91241C312.649 8.53134 312.916 8.22241 313.245 8.22241H318.009C318.338 8.22241 318.605 8.53134 318.605 8.91241C318.605 9.29349 318.338 9.60241 318.009 9.60241H313.245C312.916 9.60241 312.649 9.29349 312.649 8.91241Z" fill="#326BF6"/>
<path d="M315.627 12.3625C315.298 12.3625 315.031 12.0536 315.031 11.6725L315.031 6.15249C315.031 5.77141 315.298 5.46249 315.627 5.46249C315.956 5.46249 316.222 5.77141 316.222 6.15249L316.222 11.6725C316.222 12.0536 315.956 12.3625 315.627 12.3625Z" fill="#326BF6"/>
<path d="M312.649 105.512C312.649 105.131 312.916 104.822 313.245 104.822H318.009C318.338 104.822 318.605 105.131 318.605 105.512C318.605 105.893 318.338 106.202 318.009 106.202H313.245C312.916 106.202 312.649 105.893 312.649 105.512Z" fill="#326BF6"/>
<path d="M315.627 108.963C315.298 108.963 315.031 108.654 315.031 108.273L315.031 102.753C315.031 102.371 315.298 102.063 315.627 102.063C315.956 102.063 316.222 102.371 316.222 102.753L316.222 108.273C316.222 108.654 315.956 108.963 315.627 108.963Z" fill="#326BF6"/>
<path d="M312.649 57.2123C312.649 56.8313 312.916 56.5223 313.245 56.5223H318.009C318.338 56.5223 318.605 56.8313 318.605 57.2123C318.605 57.5934 318.338 57.9023 318.009 57.9023H313.245C312.916 57.9023 312.649 57.5934 312.649 57.2123Z" fill="#326BF6"/>
<path d="M315.627 60.6625C315.298 60.6625 315.031 60.3536 315.031 59.9725L315.031 54.4525C315.031 54.0714 315.298 53.7625 315.627 53.7625C315.956 53.7625 316.222 54.0714 316.222 54.4525L316.222 59.9725C316.222 60.3536 315.956 60.6625 315.627 60.6625Z" fill="#326BF6"/>
<path d="M312.649 153.812C312.649 153.431 312.916 153.122 313.245 153.122H318.009C318.338 153.122 318.605 153.431 318.605 153.812C318.605 154.193 318.338 154.502 318.009 154.502H313.245C312.916 154.502 312.649 154.193 312.649 153.812Z" fill="#326BF6"/>
<path d="M315.627 157.263C315.298 157.263 315.031 156.954 315.031 156.573L315.031 151.053C315.031 150.671 315.298 150.363 315.627 150.363C315.956 150.363 316.222 150.671 316.222 151.053L316.222 156.573C316.222 156.954 315.956 157.263 315.627 157.263Z" fill="#326BF6"/>
<path d="M312.649 33.0624C312.649 32.6813 312.916 32.3724 313.245 32.3724H318.009C318.338 32.3724 318.605 32.6813 318.605 33.0624C318.605 33.4435 318.338 33.7524 318.009 33.7524H313.245C312.916 33.7524 312.649 33.4435 312.649 33.0624Z" fill="#326BF6"/>
<path d="M315.627 36.5125C315.298 36.5125 315.031 36.2036 315.031 35.8225L315.031 30.3025C315.031 29.9214 315.298 29.6125 315.627 29.6125C315.956 29.6125 316.222 29.9214 316.222 30.3025L316.222 35.8225C316.222 36.2036 315.956 36.5125 315.627 36.5125Z" fill="#326BF6"/>
<path d="M312.649 129.662C312.649 129.281 312.916 128.972 313.245 128.972H318.009C318.338 128.972 318.605 129.281 318.605 129.662C318.605 130.043 318.338 130.352 318.009 130.352H313.245C312.916 130.352 312.649 130.043 312.649 129.662Z" fill="#326BF6"/>
<path d="M315.627 133.113C315.298 133.113 315.031 132.804 315.031 132.423L315.031 126.903C315.031 126.521 315.298 126.213 315.627 126.213C315.956 126.213 316.222 126.521 316.222 126.903L316.222 132.423C316.222 132.804 315.956 133.113 315.627 133.113Z" fill="#326BF6"/>
<path d="M312.649 81.3624C312.649 80.9813 312.916 80.6724 313.245 80.6724H318.009C318.338 80.6724 318.605 80.9813 318.605 81.3624C318.605 81.7434 318.338 82.0524 318.009 82.0524H313.245C312.916 82.0524 312.649 81.7434 312.649 81.3624Z" fill="#326BF6"/>
<path d="M315.627 84.8125C315.298 84.8125 315.031 84.5036 315.031 84.1225L315.031 78.6025C315.031 78.2214 315.298 77.9125 315.627 77.9125C315.956 77.9125 316.222 78.2214 316.222 78.6025L316.222 84.1225C316.222 84.5036 315.956 84.8125 315.627 84.8125Z" fill="#326BF6"/>
<path d="M270.963 8.91241C270.963 8.53134 271.23 8.22241 271.558 8.22241H276.323C276.651 8.22241 276.918 8.53134 276.918 8.91241C276.918 9.29349 276.651 9.60241 276.323 9.60241H271.558C271.23 9.60241 270.963 9.29349 270.963 8.91241Z" fill="#326BF6"/>
<path d="M273.94 12.3625C273.611 12.3625 273.345 12.0536 273.345 11.6725L273.345 6.15249C273.345 5.77141 273.611 5.46249 273.94 5.46249C274.269 5.46249 274.536 5.77141 274.536 6.15249L274.536 11.6725C274.536 12.0536 274.269 12.3625 273.94 12.3625Z" fill="#326BF6"/>
<path d="M270.963 105.512C270.963 105.131 271.23 104.822 271.558 104.822H276.323C276.651 104.822 276.918 105.131 276.918 105.512C276.918 105.893 276.651 106.202 276.323 106.202H271.558C271.23 106.202 270.963 105.893 270.963 105.512Z" fill="#326BF6"/>
<path d="M273.94 108.963C273.611 108.963 273.345 108.654 273.345 108.273L273.345 102.753C273.345 102.371 273.611 102.063 273.94 102.063C274.269 102.063 274.536 102.371 274.536 102.753L274.536 108.273C274.536 108.654 274.269 108.963 273.94 108.963Z" fill="#326BF6"/>
<path d="M270.963 57.2123C270.963 56.8313 271.23 56.5223 271.558 56.5223H276.323C276.651 56.5223 276.918 56.8313 276.918 57.2123C276.918 57.5934 276.651 57.9023 276.323 57.9023H271.558C271.23 57.9023 270.963 57.5934 270.963 57.2123Z" fill="#326BF6"/>
<path d="M273.94 60.6625C273.611 60.6625 273.345 60.3536 273.345 59.9725L273.345 54.4525C273.345 54.0714 273.611 53.7625 273.94 53.7625C274.269 53.7625 274.536 54.0714 274.536 54.4525L274.536 59.9725C274.536 60.3536 274.269 60.6625 273.94 60.6625Z" fill="#326BF6"/>
<path d="M270.963 153.812C270.963 153.431 271.23 153.122 271.558 153.122H276.323C276.651 153.122 276.918 153.431 276.918 153.812C276.918 154.193 276.651 154.502 276.323 154.502H271.558C271.23 154.502 270.963 154.193 270.963 153.812Z" fill="#326BF6"/>
<path d="M273.94 157.263C273.611 157.263 273.345 156.954 273.345 156.573L273.345 151.053C273.345 150.671 273.611 150.363 273.94 150.363C274.269 150.363 274.536 150.671 274.536 151.053L274.536 156.573C274.536 156.954 274.269 157.263 273.94 157.263Z" fill="#326BF6"/>
<path d="M270.963 33.0624C270.963 32.6813 271.23 32.3724 271.558 32.3724H276.323C276.651 32.3724 276.918 32.6813 276.918 33.0624C276.918 33.4435 276.651 33.7524 276.323 33.7524H271.558C271.23 33.7524 270.963 33.4435 270.963 33.0624Z" fill="#326BF6"/>
<path d="M273.94 36.5125C273.611 36.5125 273.345 36.2036 273.345 35.8225L273.345 30.3025C273.345 29.9214 273.611 29.6125 273.94 29.6125C274.269 29.6125 274.536 29.9214 274.536 30.3025L274.536 35.8225C274.536 36.2036 274.269 36.5125 273.94 36.5125Z" fill="#326BF6"/>
<path d="M270.963 129.662C270.963 129.281 271.23 128.972 271.558 128.972H276.323C276.651 128.972 276.918 129.281 276.918 129.662C276.918 130.043 276.651 130.352 276.323 130.352H271.558C271.23 130.352 270.963 130.043 270.963 129.662Z" fill="#326BF6"/>
<path d="M273.94 133.113C273.611 133.113 273.345 132.804 273.345 132.423L273.345 126.903C273.345 126.521 273.611 126.213 273.94 126.213C274.269 126.213 274.536 126.521 274.536 126.903L274.536 132.423C274.536 132.804 274.269 133.113 273.94 133.113Z" fill="#326BF6"/>
<path d="M270.963 81.3624C270.963 80.9813 271.23 80.6724 271.558 80.6724H276.323C276.651 80.6724 276.918 80.9813 276.918 81.3624C276.918 81.7434 276.651 82.0524 276.323 82.0524H271.558C271.23 82.0524 270.963 81.7434 270.963 81.3624Z" fill="#326BF6"/>
<path d="M273.94 84.8125C273.611 84.8125 273.345 84.5036 273.345 84.1225L273.345 78.6025C273.345 78.2214 273.611 77.9125 273.94 77.9125C274.269 77.9125 274.536 78.2214 274.536 78.6025L274.536 84.1225C274.536 84.5036 274.269 84.8125 273.94 84.8125Z" fill="#326BF6"/>
<path d="M333.493 8.91241C333.493 8.53134 333.759 8.22241 334.088 8.22241H338.852C339.181 8.22241 339.448 8.53134 339.448 8.91241C339.448 9.29349 339.181 9.60241 338.852 9.60241H334.088C333.759 9.60241 333.493 9.29349 333.493 8.91241Z" fill="#326BF6"/>
<path d="M336.47 12.3625C336.141 12.3625 335.875 12.0536 335.875 11.6725L335.875 6.15249C335.875 5.77141 336.141 5.46249 336.47 5.46249C336.799 5.46249 337.066 5.77141 337.066 6.15249L337.066 11.6725C337.066 12.0536 336.799 12.3625 336.47 12.3625Z" fill="#326BF6"/>
<path d="M333.493 105.512C333.493 105.131 333.759 104.822 334.088 104.822H338.852C339.181 104.822 339.448 105.131 339.448 105.512C339.448 105.893 339.181 106.202 338.852 106.202H334.088C333.759 106.202 333.493 105.893 333.493 105.512Z" fill="#326BF6"/>
<path d="M336.47 108.963C336.141 108.963 335.875 108.654 335.875 108.273L335.875 102.753C335.875 102.371 336.141 102.063 336.47 102.063C336.799 102.063 337.066 102.371 337.066 102.753L337.066 108.273C337.066 108.654 336.799 108.963 336.47 108.963Z" fill="#326BF6"/>
<path d="M333.493 57.2123C333.493 56.8313 333.759 56.5223 334.088 56.5223H338.852C339.181 56.5223 339.448 56.8313 339.448 57.2123C339.448 57.5934 339.181 57.9023 338.852 57.9023H334.088C333.759 57.9023 333.493 57.5934 333.493 57.2123Z" fill="#326BF6"/>
<path d="M336.47 60.6625C336.141 60.6625 335.875 60.3536 335.875 59.9725L335.875 54.4525C335.875 54.0714 336.141 53.7625 336.47 53.7625C336.799 53.7625 337.066 54.0714 337.066 54.4525L337.066 59.9725C337.066 60.3536 336.799 60.6625 336.47 60.6625Z" fill="#326BF6"/>
<path d="M333.493 153.812C333.493 153.431 333.759 153.122 334.088 153.122H338.852C339.181 153.122 339.448 153.431 339.448 153.812C339.448 154.193 339.181 154.502 338.852 154.502H334.088C333.759 154.502 333.493 154.193 333.493 153.812Z" fill="#326BF6"/>
<path d="M336.47 157.263C336.141 157.263 335.875 156.954 335.875 156.573L335.875 151.053C335.875 150.671 336.141 150.363 336.47 150.363C336.799 150.363 337.066 150.671 337.066 151.053L337.066 156.573C337.066 156.954 336.799 157.263 336.47 157.263Z" fill="#326BF6"/>
<path d="M333.493 33.0624C333.493 32.6813 333.759 32.3724 334.088 32.3724H338.852C339.181 32.3724 339.448 32.6813 339.448 33.0624C339.448 33.4435 339.181 33.7524 338.852 33.7524H334.088C333.759 33.7524 333.493 33.4435 333.493 33.0624Z" fill="#326BF6"/>
<path d="M336.47 36.5125C336.141 36.5125 335.875 36.2036 335.875 35.8225L335.875 30.3025C335.875 29.9214 336.141 29.6125 336.47 29.6125C336.799 29.6125 337.066 29.9214 337.066 30.3025L337.066 35.8225C337.066 36.2036 336.799 36.5125 336.47 36.5125Z" fill="#326BF6"/>
<path d="M333.493 129.662C333.493 129.281 333.759 128.972 334.088 128.972H338.852C339.181 128.972 339.448 129.281 339.448 129.662C339.448 130.043 339.181 130.352 338.852 130.352H334.088C333.759 130.352 333.493 130.043 333.493 129.662Z" fill="#326BF6"/>
<path d="M336.47 133.113C336.141 133.113 335.875 132.804 335.875 132.423L335.875 126.903C335.875 126.521 336.141 126.213 336.47 126.213C336.799 126.213 337.066 126.521 337.066 126.903L337.066 132.423C337.066 132.804 336.799 133.113 336.47 133.113Z" fill="#326BF6"/>
<path d="M333.493 81.3624C333.493 80.9813 333.759 80.6724 334.088 80.6724H338.852C339.181 80.6724 339.448 80.9813 339.448 81.3624C339.448 81.7434 339.181 82.0524 338.852 82.0524H334.088C333.759 82.0524 333.493 81.7434 333.493 81.3624Z" fill="#326BF6"/>
<path d="M336.47 84.8125C336.141 84.8125 335.875 84.5036 335.875 84.1225L335.875 78.6025C335.875 78.2214 336.141 77.9125 336.47 77.9125C336.799 77.9125 337.066 78.2214 337.066 78.6025L337.066 84.1225C337.066 84.5036 336.799 84.8125 336.47 84.8125Z" fill="#326BF6"/>
<path d="M396.022 8.91241C396.022 8.53134 396.289 8.22241 396.618 8.22241H401.382C401.711 8.22241 401.978 8.53134 401.978 8.91241C401.978 9.29349 401.711 9.60241 401.382 9.60241H396.618C396.289 9.60241 396.022 9.29349 396.022 8.91241Z" fill="#326BF6"/>
<path d="M399 12.3625C398.671 12.3625 398.404 12.0536 398.404 11.6725L398.404 6.15249C398.404 5.77141 398.671 5.46249 399 5.46249C399.329 5.46249 399.595 5.77141 399.595 6.15249L399.595 11.6725C399.595 12.0536 399.329 12.3625 399 12.3625Z" fill="#326BF6"/>
<path d="M396.022 105.512C396.022 105.131 396.289 104.822 396.618 104.822H401.382C401.711 104.822 401.978 105.131 401.978 105.512C401.978 105.893 401.711 106.202 401.382 106.202H396.618C396.289 106.202 396.022 105.893 396.022 105.512Z" fill="#326BF6"/>
<path d="M399 108.963C398.671 108.963 398.404 108.654 398.404 108.273L398.404 102.753C398.404 102.371 398.671 102.063 399 102.063C399.329 102.063 399.595 102.371 399.595 102.753L399.595 108.273C399.595 108.654 399.329 108.963 399 108.963Z" fill="#326BF6"/>
<path d="M396.022 57.2123C396.022 56.8313 396.289 56.5223 396.618 56.5223H401.382C401.711 56.5223 401.978 56.8313 401.978 57.2123C401.978 57.5934 401.711 57.9023 401.382 57.9023H396.618C396.289 57.9023 396.022 57.5934 396.022 57.2123Z" fill="#326BF6"/>
<path d="M399 60.6625C398.671 60.6625 398.404 60.3536 398.404 59.9725L398.404 54.4525C398.404 54.0714 398.671 53.7625 399 53.7625C399.329 53.7625 399.595 54.0714 399.595 54.4525L399.595 59.9725C399.595 60.3536 399.329 60.6625 399 60.6625Z" fill="#326BF6"/>
<path d="M396.022 153.812C396.022 153.431 396.289 153.122 396.618 153.122H401.382C401.711 153.122 401.978 153.431 401.978 153.812C401.978 154.193 401.711 154.502 401.382 154.502H396.618C396.289 154.502 396.022 154.193 396.022 153.812Z" fill="#326BF6"/>
<path d="M399 157.263C398.671 157.263 398.404 156.954 398.404 156.573L398.404 151.053C398.404 150.671 398.671 150.363 399 150.363C399.329 150.363 399.595 150.671 399.595 151.053L399.595 156.573C399.595 156.954 399.329 157.263 399 157.263Z" fill="#326BF6"/>
<path d="M396.022 33.0624C396.022 32.6813 396.289 32.3724 396.618 32.3724H401.382C401.711 32.3724 401.978 32.6813 401.978 33.0624C401.978 33.4435 401.711 33.7524 401.382 33.7524H396.618C396.289 33.7524 396.022 33.4435 396.022 33.0624Z" fill="#326BF6"/>
<path d="M399 36.5125C398.671 36.5125 398.404 36.2036 398.404 35.8225L398.404 30.3025C398.404 29.9214 398.671 29.6125 399 29.6125C399.329 29.6125 399.595 29.9214 399.595 30.3025L399.595 35.8225C399.595 36.2036 399.329 36.5125 399 36.5125Z" fill="#326BF6"/>
<path d="M396.022 129.662C396.022 129.281 396.289 128.972 396.618 128.972H401.382C401.711 128.972 401.978 129.281 401.978 129.662C401.978 130.043 401.711 130.352 401.382 130.352H396.618C396.289 130.352 396.022 130.043 396.022 129.662Z" fill="#326BF6"/>
<path d="M399 133.113C398.671 133.113 398.404 132.804 398.404 132.423L398.404 126.903C398.404 126.521 398.671 126.213 399 126.213C399.329 126.213 399.595 126.521 399.595 126.903L399.595 132.423C399.595 132.804 399.329 133.113 399 133.113Z" fill="#326BF6"/>
<path d="M396.022 81.3624C396.022 80.9813 396.289 80.6724 396.618 80.6724H401.382C401.711 80.6724 401.978 80.9813 401.978 81.3624C401.978 81.7434 401.711 82.0524 401.382 82.0524H396.618C396.289 82.0524 396.022 81.7434 396.022 81.3624Z" fill="#326BF6"/>
<path d="M399 84.8125C398.671 84.8125 398.404 84.5036 398.404 84.1225L398.404 78.6025C398.404 78.2214 398.671 77.9125 399 77.9125C399.329 77.9125 399.595 78.2214 399.595 78.6025L399.595 84.1225C399.595 84.5036 399.329 84.8125 399 84.8125Z" fill="#326BF6"/>
<path d="M354.336 8.91241C354.336 8.53134 354.603 8.22241 354.931 8.22241H359.696C360.025 8.22241 360.291 8.53134 360.291 8.91241C360.291 9.29349 360.025 9.60241 359.696 9.60241H354.931C354.603 9.60241 354.336 9.29349 354.336 8.91241Z" fill="#326BF6"/>
<path d="M357.313 12.3625C356.984 12.3625 356.718 12.0536 356.718 11.6725L356.718 6.15249C356.718 5.77141 356.984 5.46249 357.313 5.46249C357.642 5.46249 357.909 5.77141 357.909 6.15249L357.909 11.6725C357.909 12.0536 357.642 12.3625 357.313 12.3625Z" fill="#326BF6"/>
<path d="M354.336 105.512C354.336 105.131 354.603 104.822 354.931 104.822H359.696C360.025 104.822 360.291 105.131 360.291 105.512C360.291 105.893 360.025 106.202 359.696 106.202H354.931C354.603 106.202 354.336 105.893 354.336 105.512Z" fill="#326BF6"/>
<path d="M357.313 108.963C356.984 108.963 356.718 108.654 356.718 108.273L356.718 102.753C356.718 102.371 356.984 102.063 357.313 102.063C357.642 102.063 357.909 102.371 357.909 102.753L357.909 108.273C357.909 108.654 357.642 108.963 357.313 108.963Z" fill="#326BF6"/>
<path d="M354.336 57.2123C354.336 56.8313 354.603 56.5223 354.931 56.5223H359.696C360.025 56.5223 360.291 56.8313 360.291 57.2123C360.291 57.5934 360.025 57.9023 359.696 57.9023H354.931C354.603 57.9023 354.336 57.5934 354.336 57.2123Z" fill="#326BF6"/>
<path d="M357.313 60.6625C356.984 60.6625 356.718 60.3536 356.718 59.9725L356.718 54.4525C356.718 54.0714 356.984 53.7625 357.313 53.7625C357.642 53.7625 357.909 54.0714 357.909 54.4525L357.909 59.9725C357.909 60.3536 357.642 60.6625 357.313 60.6625Z" fill="#326BF6"/>
<path d="M354.336 153.812C354.336 153.431 354.603 153.122 354.931 153.122H359.696C360.025 153.122 360.291 153.431 360.291 153.812C360.291 154.193 360.025 154.502 359.696 154.502H354.931C354.603 154.502 354.336 154.193 354.336 153.812Z" fill="#326BF6"/>
<path d="M357.313 157.263C356.984 157.263 356.718 156.954 356.718 156.573L356.718 151.053C356.718 150.671 356.984 150.363 357.313 150.363C357.642 150.363 357.909 150.671 357.909 151.053L357.909 156.573C357.909 156.954 357.642 157.263 357.313 157.263Z" fill="#326BF6"/>
<path d="M354.336 33.0624C354.336 32.6813 354.603 32.3724 354.931 32.3724H359.696C360.025 32.3724 360.291 32.6813 360.291 33.0624C360.291 33.4435 360.025 33.7524 359.696 33.7524H354.931C354.603 33.7524 354.336 33.4435 354.336 33.0624Z" fill="#326BF6"/>
<path d="M357.313 36.5125C356.984 36.5125 356.718 36.2036 356.718 35.8225L356.718 30.3025C356.718 29.9214 356.984 29.6125 357.313 29.6125C357.642 29.6125 357.909 29.9214 357.909 30.3025L357.909 35.8225C357.909 36.2036 357.642 36.5125 357.313 36.5125Z" fill="#326BF6"/>
<path d="M354.336 129.662C354.336 129.281 354.603 128.972 354.931 128.972H359.696C360.025 128.972 360.291 129.281 360.291 129.662C360.291 130.043 360.025 130.352 359.696 130.352H354.931C354.603 130.352 354.336 130.043 354.336 129.662Z" fill="#326BF6"/>
<path d="M357.313 133.113C356.984 133.113 356.718 132.804 356.718 132.423L356.718 126.903C356.718 126.521 356.984 126.213 357.313 126.213C357.642 126.213 357.909 126.521 357.909 126.903L357.909 132.423C357.909 132.804 357.642 133.113 357.313 133.113Z" fill="#326BF6"/>
<path d="M354.336 81.3624C354.336 80.9813 354.603 80.6724 354.931 80.6724H359.696C360.025 80.6724 360.291 80.9813 360.291 81.3624C360.291 81.7434 360.025 82.0524 359.696 82.0524H354.931C354.603 82.0524 354.336 81.7434 354.336 81.3624Z" fill="#326BF6"/>
<path d="M357.313 84.8125C356.984 84.8125 356.718 84.5036 356.718 84.1225L356.718 78.6025C356.718 78.2214 356.984 77.9125 357.313 77.9125C357.642 77.9125 357.909 78.2214 357.909 78.6025L357.909 84.1225C357.909 84.5036 357.642 84.8125 357.313 84.8125Z" fill="#326BF6"/>
<path d="M416.866 8.91241C416.866 8.53134 417.132 8.22241 417.461 8.22241H422.225C422.554 8.22241 422.821 8.53134 422.821 8.91241C422.821 9.29349 422.554 9.60241 422.225 9.60241H417.461C417.132 9.60241 416.866 9.29349 416.866 8.91241Z" fill="#326BF6"/>
<path d="M419.843 12.3625C419.514 12.3625 419.248 12.0536 419.248 11.6725L419.248 6.15249C419.248 5.77141 419.514 5.46249 419.843 5.46249C420.172 5.46249 420.439 5.77141 420.439 6.15249L420.439 11.6725C420.439 12.0536 420.172 12.3625 419.843 12.3625Z" fill="#326BF6"/>
<path d="M416.866 105.512C416.866 105.131 417.132 104.822 417.461 104.822H422.225C422.554 104.822 422.821 105.131 422.821 105.512C422.821 105.893 422.554 106.202 422.225 106.202H417.461C417.132 106.202 416.866 105.893 416.866 105.512Z" fill="#326BF6"/>
<path d="M419.843 108.963C419.514 108.963 419.248 108.654 419.248 108.273L419.248 102.753C419.248 102.371 419.514 102.063 419.843 102.063C420.172 102.063 420.439 102.371 420.439 102.753L420.439 108.273C420.439 108.654 420.172 108.963 419.843 108.963Z" fill="#326BF6"/>
<path d="M416.866 57.2123C416.866 56.8313 417.132 56.5223 417.461 56.5223H422.225C422.554 56.5223 422.821 56.8313 422.821 57.2123C422.821 57.5934 422.554 57.9023 422.225 57.9023H417.461C417.132 57.9023 416.866 57.5934 416.866 57.2123Z" fill="#326BF6"/>
<path d="M419.843 60.6625C419.514 60.6625 419.248 60.3536 419.248 59.9725L419.248 54.4525C419.248 54.0714 419.514 53.7625 419.843 53.7625C420.172 53.7625 420.439 54.0714 420.439 54.4525L420.439 59.9725C420.439 60.3536 420.172 60.6625 419.843 60.6625Z" fill="#326BF6"/>
<path d="M416.866 153.812C416.866 153.431 417.132 153.122 417.461 153.122H422.225C422.554 153.122 422.821 153.431 422.821 153.812C422.821 154.193 422.554 154.502 422.225 154.502H417.461C417.132 154.502 416.866 154.193 416.866 153.812Z" fill="#326BF6"/>
<path d="M419.843 157.263C419.514 157.263 419.248 156.954 419.248 156.573L419.248 151.053C419.248 150.671 419.514 150.363 419.843 150.363C420.172 150.363 420.439 150.671 420.439 151.053L420.439 156.573C420.439 156.954 420.172 157.263 419.843 157.263Z" fill="#326BF6"/>
<path d="M416.866 33.0624C416.866 32.6813 417.132 32.3724 417.461 32.3724H422.225C422.554 32.3724 422.821 32.6813 422.821 33.0624C422.821 33.4435 422.554 33.7524 422.225 33.7524H417.461C417.132 33.7524 416.866 33.4435 416.866 33.0624Z" fill="#326BF6"/>
<path d="M419.843 36.5125C419.514 36.5125 419.248 36.2036 419.248 35.8225L419.248 30.3025C419.248 29.9214 419.514 29.6125 419.843 29.6125C420.172 29.6125 420.439 29.9214 420.439 30.3025L420.439 35.8225C420.439 36.2036 420.172 36.5125 419.843 36.5125Z" fill="#326BF6"/>
<path d="M416.866 129.662C416.866 129.281 417.132 128.972 417.461 128.972H422.225C422.554 128.972 422.821 129.281 422.821 129.662C422.821 130.043 422.554 130.352 422.225 130.352H417.461C417.132 130.352 416.866 130.043 416.866 129.662Z" fill="#326BF6"/>
<path d="M419.843 133.113C419.514 133.113 419.248 132.804 419.248 132.423L419.248 126.903C419.248 126.521 419.514 126.213 419.843 126.213C420.172 126.213 420.439 126.521 420.439 126.903L420.439 132.423C420.439 132.804 420.172 133.113 419.843 133.113Z" fill="#326BF6"/>
<path d="M416.866 81.3624C416.866 80.9813 417.132 80.6724 417.461 80.6724H422.225C422.554 80.6724 422.821 80.9813 422.821 81.3624C422.821 81.7434 422.554 82.0524 422.225 82.0524H417.461C417.132 82.0524 416.866 81.7434 416.866 81.3624Z" fill="#326BF6"/>
<path d="M419.843 84.8125C419.514 84.8125 419.248 84.5036 419.248 84.1225L419.248 78.6025C419.248 78.2214 419.514 77.9125 419.843 77.9125C420.172 77.9125 420.439 78.2214 420.439 78.6025L420.439 84.1225C420.439 84.5036 420.172 84.8125 419.843 84.8125Z" fill="#326BF6"/>
<path d="M375.179 8.91241C375.179 8.53134 375.446 8.22241 375.775 8.22241H380.539C380.868 8.22241 381.134 8.53134 381.134 8.91241C381.134 9.29349 380.868 9.60241 380.539 9.60241H375.775C375.446 9.60241 375.179 9.29349 375.179 8.91241Z" fill="#326BF6"/>
<path d="M378.157 12.3625C377.828 12.3625 377.561 12.0536 377.561 11.6725L377.561 6.15249C377.561 5.77141 377.828 5.46249 378.157 5.46249C378.485 5.46249 378.752 5.77141 378.752 6.15249L378.752 11.6725C378.752 12.0536 378.485 12.3625 378.157 12.3625Z" fill="#326BF6"/>
<path d="M375.179 105.512C375.179 105.131 375.446 104.822 375.775 104.822H380.539C380.868 104.822 381.134 105.131 381.134 105.512C381.134 105.893 380.868 106.202 380.539 106.202H375.775C375.446 106.202 375.179 105.893 375.179 105.512Z" fill="#326BF6"/>
<path d="M378.157 108.963C377.828 108.963 377.561 108.654 377.561 108.273L377.561 102.753C377.561 102.371 377.828 102.063 378.157 102.063C378.485 102.063 378.752 102.371 378.752 102.753L378.752 108.273C378.752 108.654 378.485 108.963 378.157 108.963Z" fill="#326BF6"/>
<path d="M375.179 57.2123C375.179 56.8313 375.446 56.5223 375.775 56.5223H380.539C380.868 56.5223 381.134 56.8313 381.134 57.2123C381.134 57.5934 380.868 57.9023 380.539 57.9023H375.775C375.446 57.9023 375.179 57.5934 375.179 57.2123Z" fill="#326BF6"/>
<path d="M378.157 60.6625C377.828 60.6625 377.561 60.3536 377.561 59.9725L377.561 54.4525C377.561 54.0714 377.828 53.7625 378.157 53.7625C378.485 53.7625 378.752 54.0714 378.752 54.4525L378.752 59.9725C378.752 60.3536 378.485 60.6625 378.157 60.6625Z" fill="#326BF6"/>
<path d="M375.179 153.812C375.179 153.431 375.446 153.122 375.775 153.122H380.539C380.868 153.122 381.134 153.431 381.134 153.812C381.134 154.193 380.868 154.502 380.539 154.502H375.775C375.446 154.502 375.179 154.193 375.179 153.812Z" fill="#326BF6"/>
<path d="M378.157 157.263C377.828 157.263 377.561 156.954 377.561 156.573L377.561 151.053C377.561 150.671 377.828 150.363 378.157 150.363C378.485 150.363 378.752 150.671 378.752 151.053L378.752 156.573C378.752 156.954 378.485 157.263 378.157 157.263Z" fill="#326BF6"/>
<path d="M375.179 33.0624C375.179 32.6813 375.446 32.3724 375.775 32.3724H380.539C380.868 32.3724 381.134 32.6813 381.134 33.0624C381.134 33.4435 380.868 33.7524 380.539 33.7524H375.775C375.446 33.7524 375.179 33.4435 375.179 33.0624Z" fill="#326BF6"/>
<path d="M378.157 36.5125C377.828 36.5125 377.561 36.2036 377.561 35.8225L377.561 30.3025C377.561 29.9214 377.828 29.6125 378.157 29.6125C378.485 29.6125 378.752 29.9214 378.752 30.3025L378.752 35.8225C378.752 36.2036 378.485 36.5125 378.157 36.5125Z" fill="#326BF6"/>
<path d="M375.179 129.662C375.179 129.281 375.446 128.972 375.775 128.972H380.539C380.868 128.972 381.134 129.281 381.134 129.662C381.134 130.043 380.868 130.352 380.539 130.352H375.775C375.446 130.352 375.179 130.043 375.179 129.662Z" fill="#326BF6"/>
<path d="M378.157 133.113C377.828 133.113 377.561 132.804 377.561 132.423L377.561 126.903C377.561 126.521 377.828 126.213 378.157 126.213C378.485 126.213 378.752 126.521 378.752 126.903L378.752 132.423C378.752 132.804 378.485 133.113 378.157 133.113Z" fill="#326BF6"/>
<path d="M375.179 81.3624C375.179 80.9813 375.446 80.6724 375.775 80.6724H380.539C380.868 80.6724 381.134 80.9813 381.134 81.3624C381.134 81.7434 380.868 82.0524 380.539 82.0524H375.775C375.446 82.0524 375.179 81.7434 375.179 81.3624Z" fill="#326BF6"/>
<path d="M378.157 84.8125C377.828 84.8125 377.561 84.5036 377.561 84.1225L377.561 78.6025C377.561 78.2214 377.828 77.9125 378.157 77.9125C378.485 77.9125 378.752 78.2214 378.752 78.6025L378.752 84.1225C378.752 84.5036 378.485 84.8125 378.157 84.8125Z" fill="#326BF6"/>
<path d="M437.709 8.91241C437.709 8.53134 437.976 8.22241 438.305 8.22241H443.069C443.398 8.22241 443.664 8.53134 443.664 8.91241C443.664 9.29349 443.398 9.60241 443.069 9.60241H438.305C437.976 9.60241 437.709 9.29349 437.709 8.91241Z" fill="#326BF6"/>
<path d="M440.686 12.3625C440.357 12.3625 440.091 12.0536 440.091 11.6725L440.091 6.15249C440.091 5.77141 440.357 5.46249 440.686 5.46249C441.015 5.46249 441.282 5.77141 441.282 6.15249L441.282 11.6725C441.282 12.0536 441.015 12.3625 440.686 12.3625Z" fill="#326BF6"/>
<path d="M437.709 105.512C437.709 105.131 437.976 104.822 438.305 104.822H443.069C443.398 104.822 443.664 105.131 443.664 105.512C443.664 105.893 443.398 106.202 443.069 106.202H438.305C437.976 106.202 437.709 105.893 437.709 105.512Z" fill="#326BF6"/>
<path d="M440.686 108.963C440.357 108.963 440.091 108.654 440.091 108.273L440.091 102.753C440.091 102.371 440.357 102.063 440.686 102.063C441.015 102.063 441.282 102.371 441.282 102.753L441.282 108.273C441.282 108.654 441.015 108.963 440.686 108.963Z" fill="#326BF6"/>
<path d="M437.709 57.2123C437.709 56.8313 437.976 56.5223 438.305 56.5223H443.069C443.398 56.5223 443.664 56.8313 443.664 57.2123C443.664 57.5934 443.398 57.9023 443.069 57.9023H438.305C437.976 57.9023 437.709 57.5934 437.709 57.2123Z" fill="#326BF6"/>
<path d="M440.686 60.6625C440.357 60.6625 440.091 60.3536 440.091 59.9725L440.091 54.4525C440.091 54.0714 440.357 53.7625 440.686 53.7625C441.015 53.7625 441.282 54.0714 441.282 54.4525L441.282 59.9725C441.282 60.3536 441.015 60.6625 440.686 60.6625Z" fill="#326BF6"/>
<path d="M437.709 153.812C437.709 153.431 437.976 153.122 438.305 153.122H443.069C443.398 153.122 443.664 153.431 443.664 153.812C443.664 154.193 443.398 154.502 443.069 154.502H438.305C437.976 154.502 437.709 154.193 437.709 153.812Z" fill="#326BF6"/>
<path d="M440.686 157.263C440.357 157.263 440.091 156.954 440.091 156.573L440.091 151.053C440.091 150.671 440.357 150.363 440.686 150.363C441.015 150.363 441.282 150.671 441.282 151.053L441.282 156.573C441.282 156.954 441.015 157.263 440.686 157.263Z" fill="#326BF6"/>
<path d="M437.709 33.0624C437.709 32.6813 437.976 32.3724 438.305 32.3724H443.069C443.398 32.3724 443.664 32.6813 443.664 33.0624C443.664 33.4435 443.398 33.7524 443.069 33.7524H438.305C437.976 33.7524 437.709 33.4435 437.709 33.0624Z" fill="#326BF6"/>
<path d="M440.686 36.5125C440.357 36.5125 440.091 36.2036 440.091 35.8225L440.091 30.3025C440.091 29.9214 440.357 29.6125 440.686 29.6125C441.015 29.6125 441.282 29.9214 441.282 30.3025L441.282 35.8225C441.282 36.2036 441.015 36.5125 440.686 36.5125Z" fill="#326BF6"/>
<path d="M437.709 129.662C437.709 129.281 437.976 128.972 438.305 128.972H443.069C443.398 128.972 443.664 129.281 443.664 129.662C443.664 130.043 443.398 130.352 443.069 130.352H438.305C437.976 130.352 437.709 130.043 437.709 129.662Z" fill="#326BF6"/>
<path d="M440.686 133.113C440.357 133.113 440.091 132.804 440.091 132.423L440.091 126.903C440.091 126.521 440.357 126.213 440.686 126.213C441.015 126.213 441.282 126.521 441.282 126.903L441.282 132.423C441.282 132.804 441.015 133.113 440.686 133.113Z" fill="#326BF6"/>
<path d="M437.709 81.3624C437.709 80.9813 437.976 80.6724 438.305 80.6724H443.069C443.398 80.6724 443.664 80.9813 443.664 81.3624C443.664 81.7434 443.398 82.0524 443.069 82.0524H438.305C437.976 82.0524 437.709 81.7434 437.709 81.3624Z" fill="#326BF6"/>
<path d="M440.686 84.8125C440.357 84.8125 440.091 84.5036 440.091 84.1225L440.091 78.6025C440.091 78.2214 440.357 77.9125 440.686 77.9125C441.015 77.9125 441.282 78.2214 441.282 78.6025L441.282 84.1225C441.282 84.5036 441.015 84.8125 440.686 84.8125Z" fill="#326BF6"/>
<path d="M458.552 8.91241C458.552 8.53134 458.819 8.22241 459.148 8.22241H463.912C464.241 8.22241 464.507 8.53134 464.507 8.91241C464.507 9.29349 464.241 9.60241 463.912 9.60241H459.148C458.819 9.60241 458.552 9.29349 458.552 8.91241Z" fill="#326BF6"/>
<path d="M458.552 105.512C458.552 105.131 458.819 104.822 459.148 104.822H463.912C464.241 104.822 464.507 105.131 464.507 105.512C464.507 105.893 464.241 106.202 463.912 106.202H459.148C458.819 106.202 458.552 105.893 458.552 105.512Z" fill="#326BF6"/>
<path d="M458.552 57.2123C458.552 56.8313 458.819 56.5223 459.148 56.5223H463.912C464.241 56.5223 464.507 56.8313 464.507 57.2123C464.507 57.5934 464.241 57.9023 463.912 57.9023H459.148C458.819 57.9023 458.552 57.5934 458.552 57.2123Z" fill="#326BF6"/>
<path d="M458.552 153.812C458.552 153.431 458.819 153.122 459.148 153.122H463.912C464.241 153.122 464.507 153.431 464.507 153.812C464.507 154.193 464.241 154.502 463.912 154.502H459.148C458.819 154.502 458.552 154.193 458.552 153.812Z" fill="#326BF6"/>
<path d="M458.552 33.0624C458.552 32.6813 458.819 32.3724 459.148 32.3724H463.912C464.241 32.3724 464.507 32.6813 464.507 33.0624C464.507 33.4435 464.241 33.7524 463.912 33.7524H459.148C458.819 33.7524 458.552 33.4435 458.552 33.0624Z" fill="#326BF6"/>
<path d="M458.552 129.662C458.552 129.281 458.819 128.972 459.148 128.972H463.912C464.241 128.972 464.507 129.281 464.507 129.662C464.507 130.043 464.241 130.352 463.912 130.352H459.148C458.819 130.352 458.552 130.043 458.552 129.662Z" fill="#326BF6"/>
<path d="M458.552 81.3624C458.552 80.9813 458.819 80.6724 459.148 80.6724H463.912C464.241 80.6724 464.507 80.9813 464.507 81.3624C464.507 81.7434 464.241 82.0524 463.912 82.0524H459.148C458.819 82.0524 458.552 81.7434 458.552 81.3624Z" fill="#326BF6"/>
</g>
</g>
<defs>
<linearGradient id="paint0_linear_271:25220" x1="929" y1="-6.00004" x2="-25.9384" y2="190.017" gradientUnits="userSpaceOnUse">
<stop offset="0.137762" stop-color="#C4C4C4" stop-opacity="0"/>
<stop offset="0.520854" stop-color="#FC0A0A"/>
<stop offset="0.882847" stop-color="#C4C4C4" stop-opacity="0"/>
</linearGradient>
</defs>
</svg>
