<svg width="369" height="160" viewBox="0 0 369 160" fill="none" xmlns="http://www.w3.org/2000/svg">
<g opacity="0.1">
<mask id="mask0_271:24515" style="mask-type:alpha" maskUnits="userSpaceOnUse" x="-428" y="0" width="797" height="160">
<rect width="797" height="160" transform="matrix(-1 0 0 1 369 0)" fill="url(#paint0_linear_271:24515)"/>
</mask>
<g mask="url(#mask0_271:24515)">
<path d="M160.567 8.9124C160.567 8.53132 160.301 8.2224 159.972 8.2224H155.207C154.879 8.2224 154.612 8.53132 154.612 8.9124C154.612 9.29347 154.879 9.6024 155.207 9.6024H159.972C160.301 9.6024 160.567 9.29347 160.567 8.9124Z" fill="#326BF6"/>
<path d="M157.59 12.3625C157.918 12.3625 158.185 12.0536 158.185 11.6725L158.185 6.15249C158.185 5.77141 157.918 5.46249 157.59 5.46249C157.261 5.46249 156.994 5.77141 156.994 6.15249L156.994 11.6725C156.994 12.0536 157.261 12.3625 157.59 12.3625Z" fill="#326BF6"/>
<path d="M223.097 8.9124C223.097 8.53132 222.83 8.2224 222.501 8.2224H217.737C217.408 8.2224 217.142 8.53132 217.142 8.9124C217.142 9.29347 217.408 9.6024 217.737 9.6024H222.501C222.83 9.6024 223.097 9.29347 223.097 8.9124Z" fill="#326BF6"/>
<path d="M220.12 12.3625C220.448 12.3625 220.715 12.0536 220.715 11.6725L220.715 6.15249C220.715 5.77141 220.448 5.46249 220.12 5.46249C219.791 5.46249 219.524 5.77141 219.524 6.15249L219.524 11.6725C219.524 12.0536 219.791 12.3625 220.12 12.3625Z" fill="#326BF6"/>
<path d="M160.567 105.512C160.567 105.131 160.301 104.822 159.972 104.822H155.207C154.879 104.822 154.612 105.131 154.612 105.512C154.612 105.893 154.879 106.202 155.207 106.202H159.972C160.301 106.202 160.567 105.893 160.567 105.512Z" fill="#326BF6"/>
<path d="M157.59 108.963C157.918 108.963 158.185 108.654 158.185 108.273L158.185 102.753C158.185 102.371 157.918 102.063 157.59 102.063C157.261 102.063 156.994 102.371 156.994 102.753L156.994 108.273C156.994 108.654 157.261 108.963 157.59 108.963Z" fill="#326BF6"/>
<path d="M223.097 105.512C223.097 105.131 222.83 104.822 222.501 104.822H217.737C217.408 104.822 217.142 105.131 217.142 105.512C217.142 105.893 217.408 106.202 217.737 106.202H222.501C222.83 106.202 223.097 105.893 223.097 105.512Z" fill="#326BF6"/>
<path d="M220.12 108.963C220.448 108.963 220.715 108.654 220.715 108.273L220.715 102.753C220.715 102.371 220.448 102.063 220.12 102.063C219.791 102.063 219.524 102.371 219.524 102.753L219.524 108.273C219.524 108.654 219.791 108.963 220.12 108.963Z" fill="#326BF6"/>
<path d="M160.567 57.2124C160.567 56.8313 160.301 56.5224 159.972 56.5224H155.207C154.879 56.5224 154.612 56.8313 154.612 57.2124C154.612 57.5935 154.879 57.9024 155.207 57.9024H159.972C160.301 57.9024 160.567 57.5935 160.567 57.2124Z" fill="#326BF6"/>
<path d="M157.59 60.6625C157.918 60.6625 158.185 60.3536 158.185 59.9725L158.185 54.4525C158.185 54.0714 157.918 53.7625 157.59 53.7625C157.261 53.7625 156.994 54.0714 156.994 54.4525L156.994 59.9725C156.994 60.3536 157.261 60.6625 157.59 60.6625Z" fill="#326BF6"/>
<path d="M223.097 57.2124C223.097 56.8313 222.83 56.5224 222.501 56.5224H217.737C217.408 56.5224 217.142 56.8313 217.142 57.2124C217.142 57.5935 217.408 57.9024 217.737 57.9024H222.501C222.83 57.9024 223.097 57.5935 223.097 57.2124Z" fill="#326BF6"/>
<path d="M220.12 60.6625C220.448 60.6625 220.715 60.3536 220.715 59.9725L220.715 54.4525C220.715 54.0714 220.448 53.7625 220.12 53.7625C219.791 53.7625 219.524 54.0714 219.524 54.4525L219.524 59.9725C219.524 60.3536 219.791 60.6625 220.12 60.6625Z" fill="#326BF6"/>
<path d="M160.567 153.812C160.567 153.431 160.301 153.122 159.972 153.122H155.207C154.879 153.122 154.612 153.431 154.612 153.812C154.612 154.193 154.879 154.502 155.207 154.502H159.972C160.301 154.502 160.567 154.193 160.567 153.812Z" fill="#326BF6"/>
<path d="M157.59 157.263C157.918 157.263 158.185 156.954 158.185 156.573L158.185 151.053C158.185 150.671 157.918 150.363 157.59 150.363C157.261 150.363 156.994 150.671 156.994 151.053L156.994 156.573C156.994 156.954 157.261 157.263 157.59 157.263Z" fill="#326BF6"/>
<path d="M223.097 153.812C223.097 153.431 222.83 153.122 222.501 153.122H217.737C217.408 153.122 217.142 153.431 217.142 153.812C217.142 154.193 217.408 154.502 217.737 154.502H222.501C222.83 154.502 223.097 154.193 223.097 153.812Z" fill="#326BF6"/>
<path d="M220.12 157.263C220.448 157.263 220.715 156.954 220.715 156.573L220.715 151.053C220.715 150.671 220.448 150.363 220.12 150.363C219.791 150.363 219.524 150.671 219.524 151.053L219.524 156.573C219.524 156.954 219.791 157.263 220.12 157.263Z" fill="#326BF6"/>
<path d="M160.567 33.0624C160.567 32.6813 160.301 32.3724 159.972 32.3724H155.207C154.879 32.3724 154.612 32.6813 154.612 33.0624C154.612 33.4435 154.879 33.7524 155.207 33.7524H159.972C160.301 33.7524 160.567 33.4435 160.567 33.0624Z" fill="#326BF6"/>
<path d="M157.59 36.5125C157.918 36.5125 158.185 36.2036 158.185 35.8225L158.185 30.3025C158.185 29.9214 157.918 29.6125 157.59 29.6125C157.261 29.6125 156.994 29.9214 156.994 30.3025L156.994 35.8225C156.994 36.2036 157.261 36.5125 157.59 36.5125Z" fill="#326BF6"/>
<path d="M223.097 33.0624C223.097 32.6813 222.83 32.3724 222.501 32.3724H217.737C217.408 32.3724 217.142 32.6813 217.142 33.0624C217.142 33.4435 217.408 33.7524 217.737 33.7524H222.501C222.83 33.7524 223.097 33.4435 223.097 33.0624Z" fill="#326BF6"/>
<path d="M220.12 36.5125C220.448 36.5125 220.715 36.2036 220.715 35.8225L220.715 30.3025C220.715 29.9214 220.448 29.6125 220.12 29.6125C219.791 29.6125 219.524 29.9214 219.524 30.3025L219.524 35.8225C219.524 36.2036 219.791 36.5125 220.12 36.5125Z" fill="#326BF6"/>
<path d="M160.567 129.662C160.567 129.281 160.301 128.972 159.972 128.972H155.207C154.879 128.972 154.612 129.281 154.612 129.662C154.612 130.043 154.879 130.352 155.207 130.352H159.972C160.301 130.352 160.567 130.043 160.567 129.662Z" fill="#326BF6"/>
<path d="M157.59 133.113C157.918 133.113 158.185 132.804 158.185 132.423L158.185 126.903C158.185 126.521 157.918 126.213 157.59 126.213C157.261 126.213 156.994 126.521 156.994 126.903L156.994 132.423C156.994 132.804 157.261 133.113 157.59 133.113Z" fill="#326BF6"/>
<path d="M223.097 129.662C223.097 129.281 222.83 128.972 222.501 128.972H217.737C217.408 128.972 217.142 129.281 217.142 129.662C217.142 130.043 217.408 130.352 217.737 130.352H222.501C222.83 130.352 223.097 130.043 223.097 129.662Z" fill="#326BF6"/>
<path d="M220.12 133.113C220.448 133.113 220.715 132.804 220.715 132.423L220.715 126.903C220.715 126.521 220.448 126.213 220.12 126.213C219.791 126.213 219.524 126.521 219.524 126.903L219.524 132.423C219.524 132.804 219.791 133.113 220.12 133.113Z" fill="#326BF6"/>
<path d="M160.567 81.3623C160.567 80.9813 160.301 80.6723 159.972 80.6723H155.207C154.879 80.6723 154.612 80.9813 154.612 81.3623C154.612 81.7434 154.879 82.0523 155.207 82.0523H159.972C160.301 82.0523 160.567 81.7434 160.567 81.3623Z" fill="#326BF6"/>
<path d="M157.59 84.8126C157.918 84.8126 158.185 84.5036 158.185 84.1226L158.185 78.6026C158.185 78.2215 157.918 77.9126 157.59 77.9126C157.261 77.9126 156.994 78.2215 156.994 78.6026L156.994 84.1226C156.994 84.5036 157.261 84.8126 157.59 84.8126Z" fill="#326BF6"/>
<path d="M223.097 81.3623C223.097 80.9813 222.83 80.6723 222.501 80.6723H217.737C217.408 80.6723 217.142 80.9813 217.142 81.3623C217.142 81.7434 217.408 82.0523 217.737 82.0523H222.501C222.83 82.0523 223.097 81.7434 223.097 81.3623Z" fill="#326BF6"/>
<path d="M220.12 84.8126C220.448 84.8126 220.715 84.5036 220.715 84.1226L220.715 78.6026C220.715 78.2215 220.448 77.9126 220.12 77.9126C219.791 77.9126 219.524 78.2215 219.524 78.6026L219.524 84.1226C219.524 84.5036 219.791 84.8126 220.12 84.8126Z" fill="#326BF6"/>
<path d="M139.724 8.9124C139.724 8.53132 139.457 8.2224 139.128 8.2224H134.364C134.035 8.2224 133.769 8.53132 133.769 8.9124C133.769 9.29347 134.035 9.6024 134.364 9.6024H139.128C139.457 9.6024 139.724 9.29347 139.724 8.9124Z" fill="#326BF6"/>
<path d="M136.746 12.3625C137.075 12.3625 137.342 12.0536 137.342 11.6725L137.342 6.15249C137.342 5.77141 137.075 5.46249 136.746 5.46249C136.417 5.46249 136.151 5.77141 136.151 6.15249L136.151 11.6725C136.151 12.0536 136.417 12.3625 136.746 12.3625Z" fill="#326BF6"/>
<path d="M202.254 8.9124C202.254 8.53132 201.987 8.2224 201.658 8.2224H196.894C196.565 8.2224 196.298 8.53132 196.298 8.9124C196.298 9.29347 196.565 9.6024 196.894 9.6024H201.658C201.987 9.6024 202.254 9.29347 202.254 8.9124Z" fill="#326BF6"/>
<path d="M199.276 12.3625C199.605 12.3625 199.872 12.0536 199.872 11.6725L199.872 6.15249C199.872 5.77141 199.605 5.46249 199.276 5.46249C198.947 5.46249 198.681 5.77141 198.681 6.15249L198.681 11.6725C198.681 12.0536 198.947 12.3625 199.276 12.3625Z" fill="#326BF6"/>
<path d="M139.724 105.512C139.724 105.131 139.457 104.822 139.128 104.822H134.364C134.035 104.822 133.769 105.131 133.769 105.512C133.769 105.893 134.035 106.202 134.364 106.202H139.128C139.457 106.202 139.724 105.893 139.724 105.512Z" fill="#326BF6"/>
<path d="M136.746 108.963C137.075 108.963 137.342 108.654 137.342 108.273L137.342 102.753C137.342 102.371 137.075 102.063 136.746 102.063C136.417 102.063 136.151 102.371 136.151 102.753L136.151 108.273C136.151 108.654 136.417 108.963 136.746 108.963Z" fill="#326BF6"/>
<path d="M202.254 105.512C202.254 105.131 201.987 104.822 201.658 104.822H196.894C196.565 104.822 196.298 105.131 196.298 105.512C196.298 105.893 196.565 106.202 196.894 106.202H201.658C201.987 106.202 202.254 105.893 202.254 105.512Z" fill="#326BF6"/>
<path d="M199.276 108.963C199.605 108.963 199.872 108.654 199.872 108.273L199.872 102.753C199.872 102.371 199.605 102.063 199.276 102.063C198.947 102.063 198.681 102.371 198.681 102.753L198.681 108.273C198.681 108.654 198.947 108.963 199.276 108.963Z" fill="#326BF6"/>
<path d="M139.724 57.2124C139.724 56.8313 139.457 56.5224 139.128 56.5224H134.364C134.035 56.5224 133.769 56.8313 133.769 57.2124C133.769 57.5935 134.035 57.9024 134.364 57.9024H139.128C139.457 57.9024 139.724 57.5935 139.724 57.2124Z" fill="#326BF6"/>
<path d="M136.746 60.6625C137.075 60.6625 137.342 60.3536 137.342 59.9725L137.342 54.4525C137.342 54.0714 137.075 53.7625 136.746 53.7625C136.417 53.7625 136.151 54.0714 136.151 54.4525L136.151 59.9725C136.151 60.3536 136.417 60.6625 136.746 60.6625Z" fill="#326BF6"/>
<path d="M202.254 57.2124C202.254 56.8313 201.987 56.5224 201.658 56.5224H196.894C196.565 56.5224 196.298 56.8313 196.298 57.2124C196.298 57.5935 196.565 57.9024 196.894 57.9024H201.658C201.987 57.9024 202.254 57.5935 202.254 57.2124Z" fill="#326BF6"/>
<path d="M199.276 60.6625C199.605 60.6625 199.872 60.3536 199.872 59.9725L199.872 54.4525C199.872 54.0714 199.605 53.7625 199.276 53.7625C198.947 53.7625 198.681 54.0714 198.681 54.4525L198.681 59.9725C198.681 60.3536 198.947 60.6625 199.276 60.6625Z" fill="#326BF6"/>
<path d="M139.724 153.812C139.724 153.431 139.457 153.122 139.128 153.122H134.364C134.035 153.122 133.769 153.431 133.769 153.812C133.769 154.193 134.035 154.502 134.364 154.502H139.128C139.457 154.502 139.724 154.193 139.724 153.812Z" fill="#326BF6"/>
<path d="M136.746 157.263C137.075 157.263 137.342 156.954 137.342 156.573L137.342 151.053C137.342 150.671 137.075 150.363 136.746 150.363C136.417 150.363 136.151 150.671 136.151 151.053L136.151 156.573C136.151 156.954 136.417 157.263 136.746 157.263Z" fill="#326BF6"/>
<path d="M202.254 153.812C202.254 153.431 201.987 153.122 201.658 153.122H196.894C196.565 153.122 196.298 153.431 196.298 153.812C196.298 154.193 196.565 154.502 196.894 154.502H201.658C201.987 154.502 202.254 154.193 202.254 153.812Z" fill="#326BF6"/>
<path d="M199.276 157.263C199.605 157.263 199.872 156.954 199.872 156.573L199.872 151.053C199.872 150.671 199.605 150.363 199.276 150.363C198.947 150.363 198.681 150.671 198.681 151.053L198.681 156.573C198.681 156.954 198.947 157.263 199.276 157.263Z" fill="#326BF6"/>
<path d="M139.724 33.0624C139.724 32.6813 139.457 32.3724 139.128 32.3724H134.364C134.035 32.3724 133.769 32.6813 133.769 33.0624C133.769 33.4435 134.035 33.7524 134.364 33.7524H139.128C139.457 33.7524 139.724 33.4435 139.724 33.0624Z" fill="#326BF6"/>
<path d="M136.746 36.5125C137.075 36.5125 137.342 36.2036 137.342 35.8225L137.342 30.3025C137.342 29.9214 137.075 29.6125 136.746 29.6125C136.417 29.6125 136.151 29.9214 136.151 30.3025L136.151 35.8225C136.151 36.2036 136.417 36.5125 136.746 36.5125Z" fill="#326BF6"/>
<path d="M202.254 33.0624C202.254 32.6813 201.987 32.3724 201.658 32.3724H196.894C196.565 32.3724 196.298 32.6813 196.298 33.0624C196.298 33.4435 196.565 33.7524 196.894 33.7524H201.658C201.987 33.7524 202.254 33.4435 202.254 33.0624Z" fill="#326BF6"/>
<path d="M199.276 36.5125C199.605 36.5125 199.872 36.2036 199.872 35.8225L199.872 30.3025C199.872 29.9214 199.605 29.6125 199.276 29.6125C198.947 29.6125 198.681 29.9214 198.681 30.3025L198.681 35.8225C198.681 36.2036 198.947 36.5125 199.276 36.5125Z" fill="#326BF6"/>
<path d="M139.724 129.662C139.724 129.281 139.457 128.972 139.128 128.972H134.364C134.035 128.972 133.769 129.281 133.769 129.662C133.769 130.043 134.035 130.352 134.364 130.352H139.128C139.457 130.352 139.724 130.043 139.724 129.662Z" fill="#326BF6"/>
<path d="M136.746 133.113C137.075 133.113 137.342 132.804 137.342 132.423L137.342 126.903C137.342 126.521 137.075 126.213 136.746 126.213C136.417 126.213 136.151 126.521 136.151 126.903L136.151 132.423C136.151 132.804 136.417 133.113 136.746 133.113Z" fill="#326BF6"/>
<path d="M202.254 129.662C202.254 129.281 201.987 128.972 201.658 128.972H196.894C196.565 128.972 196.298 129.281 196.298 129.662C196.298 130.043 196.565 130.352 196.894 130.352H201.658C201.987 130.352 202.254 130.043 202.254 129.662Z" fill="#326BF6"/>
<path d="M199.276 133.113C199.605 133.113 199.872 132.804 199.872 132.423L199.872 126.903C199.872 126.521 199.605 126.213 199.276 126.213C198.947 126.213 198.681 126.521 198.681 126.903L198.681 132.423C198.681 132.804 198.947 133.113 199.276 133.113Z" fill="#326BF6"/>
<path d="M139.724 81.3623C139.724 80.9813 139.457 80.6723 139.128 80.6723H134.364C134.035 80.6723 133.769 80.9813 133.769 81.3623C133.769 81.7434 134.035 82.0523 134.364 82.0523H139.128C139.457 82.0523 139.724 81.7434 139.724 81.3623Z" fill="#326BF6"/>
<path d="M136.746 84.8126C137.075 84.8126 137.342 84.5036 137.342 84.1226L137.342 78.6026C137.342 78.2215 137.075 77.9126 136.746 77.9126C136.417 77.9126 136.151 78.2215 136.151 78.6026L136.151 84.1226C136.151 84.5036 136.417 84.8126 136.746 84.8126Z" fill="#326BF6"/>
<path d="M202.254 81.3623C202.254 80.9813 201.987 80.6723 201.658 80.6723H196.894C196.565 80.6723 196.298 80.9813 196.298 81.3623C196.298 81.7434 196.565 82.0523 196.894 82.0523H201.658C201.987 82.0523 202.254 81.7434 202.254 81.3623Z" fill="#326BF6"/>
<path d="M199.276 84.8126C199.605 84.8126 199.872 84.5036 199.872 84.1226L199.872 78.6026C199.872 78.2215 199.605 77.9126 199.276 77.9126C198.947 77.9126 198.681 78.2215 198.681 78.6026L198.681 84.1226C198.681 84.5036 198.947 84.8126 199.276 84.8126Z" fill="#326BF6"/>
<path d="M77.1941 8.9124C77.1941 8.53132 76.9275 8.2224 76.5986 8.2224H71.8344C71.5055 8.2224 71.2389 8.53132 71.2389 8.9124C71.2389 9.29347 71.5055 9.6024 71.8344 9.6024H76.5986C76.9275 9.6024 77.1941 9.29347 77.1941 8.9124Z" fill="#326BF6"/>
<path d="M74.2165 12.3625C74.5454 12.3625 74.812 12.0536 74.812 11.6725L74.812 6.15249C74.812 5.77141 74.5454 5.46249 74.2165 5.46249C73.8876 5.46249 73.621 5.77141 73.621 6.15249L73.621 11.6725C73.621 12.0536 73.8876 12.3625 74.2165 12.3625Z" fill="#326BF6"/>
<path d="M77.1941 105.512C77.1941 105.131 76.9275 104.822 76.5986 104.822H71.8344C71.5055 104.822 71.2389 105.131 71.2389 105.512C71.2389 105.893 71.5055 106.202 71.8344 106.202H76.5986C76.9275 106.202 77.1941 105.893 77.1941 105.512Z" fill="#326BF6"/>
<path d="M74.2165 108.963C74.5454 108.963 74.812 108.654 74.812 108.273L74.812 102.753C74.812 102.371 74.5454 102.063 74.2165 102.063C73.8876 102.063 73.621 102.371 73.621 102.753L73.621 108.273C73.621 108.654 73.8876 108.963 74.2165 108.963Z" fill="#326BF6"/>
<path d="M77.1941 57.2124C77.1941 56.8313 76.9275 56.5224 76.5986 56.5224H71.8344C71.5055 56.5224 71.2389 56.8313 71.2389 57.2124C71.2389 57.5935 71.5055 57.9024 71.8344 57.9024H76.5986C76.9275 57.9024 77.1941 57.5935 77.1941 57.2124Z" fill="#326BF6"/>
<path d="M74.2165 60.6625C74.5454 60.6625 74.812 60.3536 74.812 59.9725L74.812 54.4525C74.812 54.0714 74.5454 53.7625 74.2165 53.7625C73.8876 53.7625 73.621 54.0714 73.621 54.4525L73.621 59.9725C73.621 60.3536 73.8876 60.6625 74.2165 60.6625Z" fill="#326BF6"/>
<path d="M77.1941 153.812C77.1941 153.431 76.9275 153.122 76.5986 153.122H71.8344C71.5055 153.122 71.2389 153.431 71.2389 153.812C71.2389 154.193 71.5055 154.502 71.8344 154.502H76.5986C76.9275 154.502 77.1941 154.193 77.1941 153.812Z" fill="#326BF6"/>
<path d="M74.2165 157.263C74.5454 157.263 74.812 156.954 74.812 156.573L74.812 151.053C74.812 150.671 74.5454 150.363 74.2165 150.363C73.8876 150.363 73.621 150.671 73.621 151.053L73.621 156.573C73.621 156.954 73.8876 157.263 74.2165 157.263Z" fill="#326BF6"/>
<path d="M77.1941 33.0624C77.1941 32.6813 76.9275 32.3724 76.5986 32.3724H71.8344C71.5055 32.3724 71.2389 32.6813 71.2389 33.0624C71.2389 33.4435 71.5055 33.7524 71.8344 33.7524H76.5986C76.9275 33.7524 77.1941 33.4435 77.1941 33.0624Z" fill="#326BF6"/>
<path d="M74.2165 36.5125C74.5454 36.5125 74.812 36.2036 74.812 35.8225L74.812 30.3025C74.812 29.9214 74.5454 29.6125 74.2165 29.6125C73.8876 29.6125 73.621 29.9214 73.621 30.3025L73.621 35.8225C73.621 36.2036 73.8876 36.5125 74.2165 36.5125Z" fill="#326BF6"/>
<path d="M77.1941 129.662C77.1941 129.281 76.9275 128.972 76.5986 128.972H71.8344C71.5055 128.972 71.2389 129.281 71.2389 129.662C71.2389 130.043 71.5055 130.352 71.8344 130.352H76.5986C76.9275 130.352 77.1941 130.043 77.1941 129.662Z" fill="#326BF6"/>
<path d="M74.2165 133.113C74.5454 133.113 74.812 132.804 74.812 132.423L74.812 126.903C74.812 126.521 74.5454 126.213 74.2165 126.213C73.8876 126.213 73.621 126.521 73.621 126.903L73.621 132.423C73.621 132.804 73.8876 133.113 74.2165 133.113Z" fill="#326BF6"/>
<path d="M77.1941 81.3623C77.1941 80.9813 76.9275 80.6723 76.5986 80.6723H71.8344C71.5055 80.6723 71.2389 80.9813 71.2389 81.3623C71.2389 81.7434 71.5055 82.0523 71.8344 82.0523H76.5986C76.9275 82.0523 77.1941 81.7434 77.1941 81.3623Z" fill="#326BF6"/>
<path d="M74.2165 84.8126C74.5454 84.8126 74.812 84.5036 74.812 84.1226L74.812 78.6026C74.812 78.2215 74.5454 77.9126 74.2165 77.9126C73.8876 77.9126 73.621 78.2215 73.621 78.6026L73.621 84.1226C73.621 84.5036 73.8876 84.8126 74.2165 84.8126Z" fill="#326BF6"/>
<path d="M118.881 8.9124C118.881 8.53132 118.614 8.2224 118.285 8.2224H113.521C113.192 8.2224 112.925 8.53132 112.925 8.9124C112.925 9.29347 113.192 9.6024 113.521 9.6024H118.285C118.614 9.6024 118.881 9.29347 118.881 8.9124Z" fill="#326BF6"/>
<path d="M115.903 12.3625C116.232 12.3625 116.499 12.0536 116.499 11.6725L116.499 6.15249C116.499 5.77141 116.232 5.46249 115.903 5.46249C115.574 5.46249 115.307 5.77141 115.307 6.15249L115.307 11.6725C115.307 12.0536 115.574 12.3625 115.903 12.3625Z" fill="#326BF6"/>
<path d="M181.41 8.9124C181.41 8.53132 181.144 8.2224 180.815 8.2224H176.051C175.722 8.2224 175.455 8.53132 175.455 8.9124C175.455 9.29347 175.722 9.6024 176.051 9.6024H180.815C181.144 9.6024 181.41 9.29347 181.41 8.9124Z" fill="#326BF6"/>
<path d="M178.433 12.3625C178.762 12.3625 179.028 12.0536 179.028 11.6725L179.028 6.15249C179.028 5.77141 178.762 5.46249 178.433 5.46249C178.104 5.46249 177.837 5.77141 177.837 6.15249L177.837 11.6725C177.837 12.0536 178.104 12.3625 178.433 12.3625Z" fill="#326BF6"/>
<path d="M118.881 105.512C118.881 105.131 118.614 104.822 118.285 104.822H113.521C113.192 104.822 112.925 105.131 112.925 105.512C112.925 105.893 113.192 106.202 113.521 106.202H118.285C118.614 106.202 118.881 105.893 118.881 105.512Z" fill="#326BF6"/>
<path d="M115.903 108.963C116.232 108.963 116.499 108.654 116.499 108.273L116.499 102.753C116.499 102.371 116.232 102.063 115.903 102.063C115.574 102.063 115.307 102.371 115.307 102.753L115.307 108.273C115.307 108.654 115.574 108.963 115.903 108.963Z" fill="#326BF6"/>
<path d="M181.41 105.512C181.41 105.131 181.144 104.822 180.815 104.822H176.051C175.722 104.822 175.455 105.131 175.455 105.512C175.455 105.893 175.722 106.202 176.051 106.202H180.815C181.144 106.202 181.41 105.893 181.41 105.512Z" fill="#326BF6"/>
<path d="M178.433 108.963C178.762 108.963 179.028 108.654 179.028 108.273L179.028 102.753C179.028 102.371 178.762 102.063 178.433 102.063C178.104 102.063 177.837 102.371 177.837 102.753L177.837 108.273C177.837 108.654 178.104 108.963 178.433 108.963Z" fill="#326BF6"/>
<path d="M118.881 57.2124C118.881 56.8313 118.614 56.5224 118.285 56.5224H113.521C113.192 56.5224 112.925 56.8313 112.925 57.2124C112.925 57.5935 113.192 57.9024 113.521 57.9024H118.285C118.614 57.9024 118.881 57.5935 118.881 57.2124Z" fill="#326BF6"/>
<path d="M115.903 60.6625C116.232 60.6625 116.499 60.3536 116.499 59.9725L116.499 54.4525C116.499 54.0714 116.232 53.7625 115.903 53.7625C115.574 53.7625 115.307 54.0714 115.307 54.4525L115.307 59.9725C115.307 60.3536 115.574 60.6625 115.903 60.6625Z" fill="#326BF6"/>
<path d="M181.41 57.2124C181.41 56.8313 181.144 56.5224 180.815 56.5224H176.051C175.722 56.5224 175.455 56.8313 175.455 57.2124C175.455 57.5935 175.722 57.9024 176.051 57.9024H180.815C181.144 57.9024 181.41 57.5935 181.41 57.2124Z" fill="#326BF6"/>
<path d="M178.433 60.6625C178.762 60.6625 179.028 60.3536 179.028 59.9725L179.028 54.4525C179.028 54.0714 178.762 53.7625 178.433 53.7625C178.104 53.7625 177.837 54.0714 177.837 54.4525L177.837 59.9725C177.837 60.3536 178.104 60.6625 178.433 60.6625Z" fill="#326BF6"/>
<path d="M118.881 153.812C118.881 153.431 118.614 153.122 118.285 153.122H113.521C113.192 153.122 112.925 153.431 112.925 153.812C112.925 154.193 113.192 154.502 113.521 154.502H118.285C118.614 154.502 118.881 154.193 118.881 153.812Z" fill="#326BF6"/>
<path d="M115.903 157.263C116.232 157.263 116.499 156.954 116.499 156.573L116.499 151.053C116.499 150.671 116.232 150.363 115.903 150.363C115.574 150.363 115.307 150.671 115.307 151.053L115.307 156.573C115.307 156.954 115.574 157.263 115.903 157.263Z" fill="#326BF6"/>
<path d="M181.41 153.812C181.41 153.431 181.144 153.122 180.815 153.122H176.051C175.722 153.122 175.455 153.431 175.455 153.812C175.455 154.193 175.722 154.502 176.051 154.502H180.815C181.144 154.502 181.41 154.193 181.41 153.812Z" fill="#326BF6"/>
<path d="M178.433 157.263C178.762 157.263 179.028 156.954 179.028 156.573L179.028 151.053C179.028 150.671 178.762 150.363 178.433 150.363C178.104 150.363 177.837 150.671 177.837 151.053L177.837 156.573C177.837 156.954 178.104 157.263 178.433 157.263Z" fill="#326BF6"/>
<path d="M118.881 33.0624C118.881 32.6813 118.614 32.3724 118.285 32.3724H113.521C113.192 32.3724 112.925 32.6813 112.925 33.0624C112.925 33.4435 113.192 33.7524 113.521 33.7524H118.285C118.614 33.7524 118.881 33.4435 118.881 33.0624Z" fill="#326BF6"/>
<path d="M115.903 36.5125C116.232 36.5125 116.499 36.2036 116.499 35.8225L116.499 30.3025C116.499 29.9214 116.232 29.6125 115.903 29.6125C115.574 29.6125 115.307 29.9214 115.307 30.3025L115.307 35.8225C115.307 36.2036 115.574 36.5125 115.903 36.5125Z" fill="#326BF6"/>
<path d="M181.41 33.0624C181.41 32.6813 181.144 32.3724 180.815 32.3724H176.051C175.722 32.3724 175.455 32.6813 175.455 33.0624C175.455 33.4435 175.722 33.7524 176.051 33.7524H180.815C181.144 33.7524 181.41 33.4435 181.41 33.0624Z" fill="#326BF6"/>
<path d="M178.433 36.5125C178.762 36.5125 179.028 36.2036 179.028 35.8225L179.028 30.3025C179.028 29.9214 178.762 29.6125 178.433 29.6125C178.104 29.6125 177.837 29.9214 177.837 30.3025L177.837 35.8225C177.837 36.2036 178.104 36.5125 178.433 36.5125Z" fill="#326BF6"/>
<path d="M118.881 129.662C118.881 129.281 118.614 128.972 118.285 128.972H113.521C113.192 128.972 112.925 129.281 112.925 129.662C112.925 130.043 113.192 130.352 113.521 130.352H118.285C118.614 130.352 118.881 130.043 118.881 129.662Z" fill="#326BF6"/>
<path d="M115.903 133.113C116.232 133.113 116.499 132.804 116.499 132.423L116.499 126.903C116.499 126.521 116.232 126.213 115.903 126.213C115.574 126.213 115.307 126.521 115.307 126.903L115.307 132.423C115.307 132.804 115.574 133.113 115.903 133.113Z" fill="#326BF6"/>
<path d="M181.41 129.662C181.41 129.281 181.144 128.972 180.815 128.972H176.051C175.722 128.972 175.455 129.281 175.455 129.662C175.455 130.043 175.722 130.352 176.051 130.352H180.815C181.144 130.352 181.41 130.043 181.41 129.662Z" fill="#326BF6"/>
<path d="M178.433 133.113C178.762 133.113 179.028 132.804 179.028 132.423L179.028 126.903C179.028 126.521 178.762 126.213 178.433 126.213C178.104 126.213 177.837 126.521 177.837 126.903L177.837 132.423C177.837 132.804 178.104 133.113 178.433 133.113Z" fill="#326BF6"/>
<path d="M118.881 81.3623C118.881 80.9813 118.614 80.6723 118.285 80.6723H113.521C113.192 80.6723 112.925 80.9813 112.925 81.3623C112.925 81.7434 113.192 82.0523 113.521 82.0523H118.285C118.614 82.0523 118.881 81.7434 118.881 81.3623Z" fill="#326BF6"/>
<path d="M115.903 84.8126C116.232 84.8126 116.499 84.5036 116.499 84.1226L116.499 78.6026C116.499 78.2215 116.232 77.9126 115.903 77.9126C115.574 77.9126 115.307 78.2215 115.307 78.6026L115.307 84.1226C115.307 84.5036 115.574 84.8126 115.903 84.8126Z" fill="#326BF6"/>
<path d="M181.41 81.3623C181.41 80.9813 181.144 80.6723 180.815 80.6723H176.051C175.722 80.6723 175.455 80.9813 175.455 81.3623C175.455 81.7434 175.722 82.0523 176.051 82.0523H180.815C181.144 82.0523 181.41 81.7434 181.41 81.3623Z" fill="#326BF6"/>
<path d="M178.433 84.8126C178.762 84.8126 179.028 84.5036 179.028 84.1226L179.028 78.6026C179.028 78.2215 178.762 77.9126 178.433 77.9126C178.104 77.9126 177.837 78.2215 177.837 78.6026L177.837 84.1226C177.837 84.5036 178.104 84.8126 178.433 84.8126Z" fill="#326BF6"/>
<path d="M285.627 8.9124C285.627 8.53132 285.36 8.2224 285.031 8.2224H280.267C279.938 8.2224 279.672 8.53132 279.672 8.9124C279.672 9.29347 279.938 9.6024 280.267 9.6024H285.031C285.36 9.6024 285.627 9.29347 285.627 8.9124Z" fill="#326BF6"/>
<path d="M282.649 12.3625C282.978 12.3625 283.245 12.0536 283.245 11.6725L283.245 6.15249C283.245 5.77141 282.978 5.46249 282.649 5.46249C282.32 5.46249 282.054 5.77141 282.054 6.15249L282.054 11.6725C282.054 12.0536 282.32 12.3625 282.649 12.3625Z" fill="#326BF6"/>
<path d="M348.157 8.9124C348.157 8.53132 347.89 8.2224 347.561 8.2224H342.797C342.468 8.2224 342.202 8.53132 342.202 8.9124C342.202 9.29347 342.468 9.6024 342.797 9.6024H347.561C347.89 9.6024 348.157 9.29347 348.157 8.9124Z" fill="#326BF6"/>
<path d="M345.179 12.3625C345.508 12.3625 345.775 12.0536 345.775 11.6725L345.775 6.15249C345.775 5.77141 345.508 5.46249 345.179 5.46249C344.85 5.46249 344.584 5.77141 344.584 6.15249L344.584 11.6725C344.584 12.0536 344.85 12.3625 345.179 12.3625Z" fill="#326BF6"/>
<path d="M285.627 105.512C285.627 105.131 285.36 104.822 285.031 104.822H280.267C279.938 104.822 279.672 105.131 279.672 105.512C279.672 105.893 279.938 106.202 280.267 106.202H285.031C285.36 106.202 285.627 105.893 285.627 105.512Z" fill="#326BF6"/>
<path d="M282.649 108.963C282.978 108.963 283.245 108.654 283.245 108.273L283.245 102.753C283.245 102.371 282.978 102.063 282.649 102.063C282.32 102.063 282.054 102.371 282.054 102.753L282.054 108.273C282.054 108.654 282.32 108.963 282.649 108.963Z" fill="#326BF6"/>
<path d="M348.157 105.512C348.157 105.131 347.89 104.822 347.561 104.822H342.797C342.468 104.822 342.202 105.131 342.202 105.512C342.202 105.893 342.468 106.202 342.797 106.202H347.561C347.89 106.202 348.157 105.893 348.157 105.512Z" fill="#326BF6"/>
<path d="M345.179 108.963C345.508 108.963 345.775 108.654 345.775 108.273L345.775 102.753C345.775 102.371 345.508 102.063 345.179 102.063C344.85 102.063 344.584 102.371 344.584 102.753L344.584 108.273C344.584 108.654 344.85 108.963 345.179 108.963Z" fill="#326BF6"/>
<path d="M285.627 57.2124C285.627 56.8313 285.36 56.5224 285.031 56.5224H280.267C279.938 56.5224 279.672 56.8313 279.672 57.2124C279.672 57.5935 279.938 57.9024 280.267 57.9024H285.031C285.36 57.9024 285.627 57.5935 285.627 57.2124Z" fill="#326BF6"/>
<path d="M282.649 60.6625C282.978 60.6625 283.245 60.3536 283.245 59.9725L283.245 54.4525C283.245 54.0714 282.978 53.7625 282.649 53.7625C282.32 53.7625 282.054 54.0714 282.054 54.4525L282.054 59.9725C282.054 60.3536 282.32 60.6625 282.649 60.6625Z" fill="#326BF6"/>
<path d="M348.157 57.2124C348.157 56.8313 347.89 56.5224 347.561 56.5224H342.797C342.468 56.5224 342.202 56.8313 342.202 57.2124C342.202 57.5935 342.468 57.9024 342.797 57.9024H347.561C347.89 57.9024 348.157 57.5935 348.157 57.2124Z" fill="#326BF6"/>
<path d="M345.179 60.6625C345.508 60.6625 345.775 60.3536 345.775 59.9725L345.775 54.4525C345.775 54.0714 345.508 53.7625 345.179 53.7625C344.85 53.7625 344.584 54.0714 344.584 54.4525L344.584 59.9725C344.584 60.3536 344.85 60.6625 345.179 60.6625Z" fill="#326BF6"/>
<path d="M285.627 153.812C285.627 153.431 285.36 153.122 285.031 153.122H280.267C279.938 153.122 279.672 153.431 279.672 153.812C279.672 154.193 279.938 154.502 280.267 154.502H285.031C285.36 154.502 285.627 154.193 285.627 153.812Z" fill="#326BF6"/>
<path d="M282.649 157.263C282.978 157.263 283.245 156.954 283.245 156.573L283.245 151.053C283.245 150.671 282.978 150.363 282.649 150.363C282.32 150.363 282.054 150.671 282.054 151.053L282.054 156.573C282.054 156.954 282.32 157.263 282.649 157.263Z" fill="#326BF6"/>
<path d="M348.157 153.812C348.157 153.431 347.89 153.122 347.561 153.122H342.797C342.468 153.122 342.202 153.431 342.202 153.812C342.202 154.193 342.468 154.502 342.797 154.502H347.561C347.89 154.502 348.157 154.193 348.157 153.812Z" fill="#326BF6"/>
<path d="M345.179 157.263C345.508 157.263 345.775 156.954 345.775 156.573L345.775 151.053C345.775 150.671 345.508 150.363 345.179 150.363C344.85 150.363 344.584 150.671 344.584 151.053L344.584 156.573C344.584 156.954 344.85 157.263 345.179 157.263Z" fill="#326BF6"/>
<path d="M285.627 33.0624C285.627 32.6813 285.36 32.3724 285.031 32.3724H280.267C279.938 32.3724 279.672 32.6813 279.672 33.0624C279.672 33.4435 279.938 33.7524 280.267 33.7524H285.031C285.36 33.7524 285.627 33.4435 285.627 33.0624Z" fill="#326BF6"/>
<path d="M282.649 36.5125C282.978 36.5125 283.245 36.2036 283.245 35.8225L283.245 30.3025C283.245 29.9214 282.978 29.6125 282.649 29.6125C282.32 29.6125 282.054 29.9214 282.054 30.3025L282.054 35.8225C282.054 36.2036 282.32 36.5125 282.649 36.5125Z" fill="#326BF6"/>
<path d="M348.157 33.0624C348.157 32.6813 347.89 32.3724 347.561 32.3724H342.797C342.468 32.3724 342.202 32.6813 342.202 33.0624C342.202 33.4435 342.468 33.7524 342.797 33.7524H347.561C347.89 33.7524 348.157 33.4435 348.157 33.0624Z" fill="#326BF6"/>
<path d="M345.179 36.5125C345.508 36.5125 345.775 36.2036 345.775 35.8225L345.775 30.3025C345.775 29.9214 345.508 29.6125 345.179 29.6125C344.85 29.6125 344.584 29.9214 344.584 30.3025L344.584 35.8225C344.584 36.2036 344.85 36.5125 345.179 36.5125Z" fill="#326BF6"/>
<path d="M285.627 129.662C285.627 129.281 285.36 128.972 285.031 128.972H280.267C279.938 128.972 279.672 129.281 279.672 129.662C279.672 130.043 279.938 130.352 280.267 130.352H285.031C285.36 130.352 285.627 130.043 285.627 129.662Z" fill="#326BF6"/>
<path d="M282.649 133.113C282.978 133.113 283.245 132.804 283.245 132.423L283.245 126.903C283.245 126.521 282.978 126.213 282.649 126.213C282.32 126.213 282.054 126.521 282.054 126.903L282.054 132.423C282.054 132.804 282.32 133.113 282.649 133.113Z" fill="#326BF6"/>
<path d="M348.157 129.662C348.157 129.281 347.89 128.972 347.561 128.972H342.797C342.468 128.972 342.202 129.281 342.202 129.662C342.202 130.043 342.468 130.352 342.797 130.352H347.561C347.89 130.352 348.157 130.043 348.157 129.662Z" fill="#326BF6"/>
<path d="M345.179 133.113C345.508 133.113 345.775 132.804 345.775 132.423L345.775 126.903C345.775 126.521 345.508 126.213 345.179 126.213C344.85 126.213 344.584 126.521 344.584 126.903L344.584 132.423C344.584 132.804 344.85 133.113 345.179 133.113Z" fill="#326BF6"/>
<path d="M285.627 81.3623C285.627 80.9813 285.36 80.6723 285.031 80.6723H280.267C279.938 80.6723 279.672 80.9813 279.672 81.3623C279.672 81.7434 279.938 82.0523 280.267 82.0523H285.031C285.36 82.0523 285.627 81.7434 285.627 81.3623Z" fill="#326BF6"/>
<path d="M282.649 84.8126C282.978 84.8126 283.245 84.5036 283.245 84.1226L283.245 78.6026C283.245 78.2215 282.978 77.9126 282.649 77.9126C282.32 77.9126 282.054 78.2215 282.054 78.6026L282.054 84.1226C282.054 84.5036 282.32 84.8126 282.649 84.8126Z" fill="#326BF6"/>
<path d="M348.157 81.3623C348.157 80.9813 347.89 80.6723 347.561 80.6723H342.797C342.468 80.6723 342.202 80.9813 342.202 81.3623C342.202 81.7434 342.468 82.0523 342.797 82.0523H347.561C347.89 82.0523 348.157 81.7434 348.157 81.3623Z" fill="#326BF6"/>
<path d="M345.179 84.8126C345.508 84.8126 345.775 84.5036 345.775 84.1226L345.775 78.6026C345.775 78.2215 345.508 77.9126 345.179 77.9126C344.85 77.9126 344.584 78.2215 344.584 78.6026L344.584 84.1226C344.584 84.5036 344.85 84.8126 345.179 84.8126Z" fill="#326BF6"/>
<path d="M369 8.9124C369 8.53132 368.733 8.2224 368.404 8.2224H363.64C363.311 8.2224 363.045 8.53132 363.045 8.9124C363.045 9.29347 363.311 9.6024 363.64 9.6024H368.404C368.733 9.6024 369 9.29347 369 8.9124Z" fill="#326BF6"/>
<path d="M366.022 12.3625C366.351 12.3625 366.618 12.0536 366.618 11.6725L366.618 6.15249C366.618 5.77141 366.351 5.46249 366.022 5.46249C365.693 5.46249 365.427 5.77141 365.427 6.15249L365.427 11.6725C365.427 12.0536 365.693 12.3625 366.022 12.3625Z" fill="#326BF6"/>
<path d="M369 105.512C369 105.131 368.733 104.822 368.404 104.822H363.64C363.311 104.822 363.045 105.131 363.045 105.512C363.045 105.893 363.311 106.202 363.64 106.202H368.404C368.733 106.202 369 105.893 369 105.512Z" fill="#326BF6"/>
<path d="M366.022 108.963C366.351 108.963 366.618 108.654 366.618 108.273L366.618 102.753C366.618 102.371 366.351 102.063 366.022 102.063C365.693 102.063 365.427 102.371 365.427 102.753L365.427 108.273C365.427 108.654 365.693 108.963 366.022 108.963Z" fill="#326BF6"/>
<path d="M369 57.2124C369 56.8313 368.733 56.5224 368.404 56.5224H363.64C363.311 56.5224 363.045 56.8313 363.045 57.2124C363.045 57.5935 363.311 57.9024 363.64 57.9024H368.404C368.733 57.9024 369 57.5935 369 57.2124Z" fill="#326BF6"/>
<path d="M366.022 60.6625C366.351 60.6625 366.618 60.3536 366.618 59.9725L366.618 54.4525C366.618 54.0714 366.351 53.7625 366.022 53.7625C365.693 53.7625 365.427 54.0714 365.427 54.4525L365.427 59.9725C365.427 60.3536 365.693 60.6625 366.022 60.6625Z" fill="#326BF6"/>
<path d="M369 153.812C369 153.431 368.733 153.122 368.404 153.122H363.64C363.311 153.122 363.045 153.431 363.045 153.812C363.045 154.193 363.311 154.502 363.64 154.502H368.404C368.733 154.502 369 154.193 369 153.812Z" fill="#326BF6"/>
<path d="M366.022 157.263C366.351 157.263 366.618 156.954 366.618 156.573L366.618 151.053C366.618 150.671 366.351 150.363 366.022 150.363C365.693 150.363 365.427 150.671 365.427 151.053L365.427 156.573C365.427 156.954 365.693 157.263 366.022 157.263Z" fill="#326BF6"/>
<path d="M369 33.0624C369 32.6813 368.733 32.3724 368.404 32.3724H363.64C363.311 32.3724 363.045 32.6813 363.045 33.0624C363.045 33.4435 363.311 33.7524 363.64 33.7524H368.404C368.733 33.7524 369 33.4435 369 33.0624Z" fill="#326BF6"/>
<path d="M366.022 36.5125C366.351 36.5125 366.618 36.2036 366.618 35.8225L366.618 30.3025C366.618 29.9214 366.351 29.6125 366.022 29.6125C365.693 29.6125 365.427 29.9214 365.427 30.3025L365.427 35.8225C365.427 36.2036 365.693 36.5125 366.022 36.5125Z" fill="#326BF6"/>
<path d="M369 129.662C369 129.281 368.733 128.972 368.404 128.972H363.64C363.311 128.972 363.045 129.281 363.045 129.662C363.045 130.043 363.311 130.352 363.64 130.352H368.404C368.733 130.352 369 130.043 369 129.662Z" fill="#326BF6"/>
<path d="M366.022 133.113C366.351 133.113 366.618 132.804 366.618 132.423L366.618 126.903C366.618 126.521 366.351 126.213 366.022 126.213C365.693 126.213 365.427 126.521 365.427 126.903L365.427 132.423C365.427 132.804 365.693 133.113 366.022 133.113Z" fill="#326BF6"/>
<path d="M369 81.3623C369 80.9813 368.733 80.6723 368.404 80.6723H363.64C363.311 80.6723 363.045 80.9813 363.045 81.3623C363.045 81.7434 363.311 82.0523 363.64 82.0523H368.404C368.733 82.0523 369 81.7434 369 81.3623Z" fill="#326BF6"/>
<path d="M366.022 84.8126C366.351 84.8126 366.618 84.5036 366.618 84.1226L366.618 78.6026C366.618 78.2215 366.351 77.9126 366.022 77.9126C365.693 77.9126 365.427 78.2215 365.427 78.6026L365.427 84.1226C365.427 84.5036 365.693 84.8126 366.022 84.8126Z" fill="#326BF6"/>
<path d="M264.784 8.9124C264.784 8.53132 264.517 8.2224 264.188 8.2224H259.424C259.095 8.2224 258.828 8.53132 258.828 8.9124C258.828 9.29347 259.095 9.6024 259.424 9.6024H264.188C264.517 9.6024 264.784 9.29347 264.784 8.9124Z" fill="#326BF6"/>
<path d="M261.806 12.3625C262.135 12.3625 262.402 12.0536 262.402 11.6725L262.402 6.15249C262.402 5.77141 262.135 5.46249 261.806 5.46249C261.477 5.46249 261.211 5.77141 261.211 6.15249L261.211 11.6725C261.211 12.0536 261.477 12.3625 261.806 12.3625Z" fill="#326BF6"/>
<path d="M327.313 8.9124C327.313 8.53132 327.047 8.2224 326.718 8.2224H321.954C321.625 8.2224 321.358 8.53132 321.358 8.9124C321.358 9.29347 321.625 9.6024 321.954 9.6024H326.718C327.047 9.6024 327.313 9.29347 327.313 8.9124Z" fill="#326BF6"/>
<path d="M324.336 12.3625C324.665 12.3625 324.931 12.0536 324.931 11.6725L324.931 6.15249C324.931 5.77141 324.665 5.46249 324.336 5.46249C324.007 5.46249 323.74 5.77141 323.74 6.15249L323.74 11.6725C323.74 12.0536 324.007 12.3625 324.336 12.3625Z" fill="#326BF6"/>
<path d="M264.784 105.512C264.784 105.131 264.517 104.822 264.188 104.822H259.424C259.095 104.822 258.828 105.131 258.828 105.512C258.828 105.893 259.095 106.202 259.424 106.202H264.188C264.517 106.202 264.784 105.893 264.784 105.512Z" fill="#326BF6"/>
<path d="M261.806 108.963C262.135 108.963 262.402 108.654 262.402 108.273L262.402 102.753C262.402 102.371 262.135 102.063 261.806 102.063C261.477 102.063 261.211 102.371 261.211 102.753L261.211 108.273C261.211 108.654 261.477 108.963 261.806 108.963Z" fill="#326BF6"/>
<path d="M327.313 105.512C327.313 105.131 327.047 104.822 326.718 104.822H321.954C321.625 104.822 321.358 105.131 321.358 105.512C321.358 105.893 321.625 106.202 321.954 106.202H326.718C327.047 106.202 327.313 105.893 327.313 105.512Z" fill="#326BF6"/>
<path d="M324.336 108.963C324.665 108.963 324.931 108.654 324.931 108.273L324.931 102.753C324.931 102.371 324.665 102.063 324.336 102.063C324.007 102.063 323.74 102.371 323.74 102.753L323.74 108.273C323.74 108.654 324.007 108.963 324.336 108.963Z" fill="#326BF6"/>
<path d="M264.784 57.2124C264.784 56.8313 264.517 56.5224 264.188 56.5224H259.424C259.095 56.5224 258.828 56.8313 258.828 57.2124C258.828 57.5935 259.095 57.9024 259.424 57.9024H264.188C264.517 57.9024 264.784 57.5935 264.784 57.2124Z" fill="#326BF6"/>
<path d="M261.806 60.6625C262.135 60.6625 262.402 60.3536 262.402 59.9725L262.402 54.4525C262.402 54.0714 262.135 53.7625 261.806 53.7625C261.477 53.7625 261.211 54.0714 261.211 54.4525L261.211 59.9725C261.211 60.3536 261.477 60.6625 261.806 60.6625Z" fill="#326BF6"/>
<path d="M327.313 57.2124C327.313 56.8313 327.047 56.5224 326.718 56.5224H321.954C321.625 56.5224 321.358 56.8313 321.358 57.2124C321.358 57.5935 321.625 57.9024 321.954 57.9024H326.718C327.047 57.9024 327.313 57.5935 327.313 57.2124Z" fill="#326BF6"/>
<path d="M324.336 60.6625C324.665 60.6625 324.931 60.3536 324.931 59.9725L324.931 54.4525C324.931 54.0714 324.665 53.7625 324.336 53.7625C324.007 53.7625 323.74 54.0714 323.74 54.4525L323.74 59.9725C323.74 60.3536 324.007 60.6625 324.336 60.6625Z" fill="#326BF6"/>
<path d="M264.784 153.812C264.784 153.431 264.517 153.122 264.188 153.122H259.424C259.095 153.122 258.828 153.431 258.828 153.812C258.828 154.193 259.095 154.502 259.424 154.502H264.188C264.517 154.502 264.784 154.193 264.784 153.812Z" fill="#326BF6"/>
<path d="M261.806 157.263C262.135 157.263 262.402 156.954 262.402 156.573L262.402 151.053C262.402 150.671 262.135 150.363 261.806 150.363C261.477 150.363 261.211 150.671 261.211 151.053L261.211 156.573C261.211 156.954 261.477 157.263 261.806 157.263Z" fill="#326BF6"/>
<path d="M327.313 153.812C327.313 153.431 327.047 153.122 326.718 153.122H321.954C321.625 153.122 321.358 153.431 321.358 153.812C321.358 154.193 321.625 154.502 321.954 154.502H326.718C327.047 154.502 327.313 154.193 327.313 153.812Z" fill="#326BF6"/>
<path d="M324.336 157.263C324.665 157.263 324.931 156.954 324.931 156.573L324.931 151.053C324.931 150.671 324.665 150.363 324.336 150.363C324.007 150.363 323.74 150.671 323.74 151.053L323.74 156.573C323.74 156.954 324.007 157.263 324.336 157.263Z" fill="#326BF6"/>
<path d="M264.784 33.0624C264.784 32.6813 264.517 32.3724 264.188 32.3724H259.424C259.095 32.3724 258.828 32.6813 258.828 33.0624C258.828 33.4435 259.095 33.7524 259.424 33.7524H264.188C264.517 33.7524 264.784 33.4435 264.784 33.0624Z" fill="#326BF6"/>
<path d="M261.806 36.5125C262.135 36.5125 262.402 36.2036 262.402 35.8225L262.402 30.3025C262.402 29.9214 262.135 29.6125 261.806 29.6125C261.477 29.6125 261.211 29.9214 261.211 30.3025L261.211 35.8225C261.211 36.2036 261.477 36.5125 261.806 36.5125Z" fill="#326BF6"/>
<path d="M327.313 33.0624C327.313 32.6813 327.047 32.3724 326.718 32.3724H321.954C321.625 32.3724 321.358 32.6813 321.358 33.0624C321.358 33.4435 321.625 33.7524 321.954 33.7524H326.718C327.047 33.7524 327.313 33.4435 327.313 33.0624Z" fill="#326BF6"/>
<path d="M324.336 36.5125C324.665 36.5125 324.931 36.2036 324.931 35.8225L324.931 30.3025C324.931 29.9214 324.665 29.6125 324.336 29.6125C324.007 29.6125 323.74 29.9214 323.74 30.3025L323.74 35.8225C323.74 36.2036 324.007 36.5125 324.336 36.5125Z" fill="#326BF6"/>
<path d="M264.784 129.662C264.784 129.281 264.517 128.972 264.188 128.972H259.424C259.095 128.972 258.828 129.281 258.828 129.662C258.828 130.043 259.095 130.352 259.424 130.352H264.188C264.517 130.352 264.784 130.043 264.784 129.662Z" fill="#326BF6"/>
<path d="M261.806 133.113C262.135 133.113 262.402 132.804 262.402 132.423L262.402 126.903C262.402 126.521 262.135 126.213 261.806 126.213C261.477 126.213 261.211 126.521 261.211 126.903L261.211 132.423C261.211 132.804 261.477 133.113 261.806 133.113Z" fill="#326BF6"/>
<path d="M327.313 129.662C327.313 129.281 327.047 128.972 326.718 128.972H321.954C321.625 128.972 321.358 129.281 321.358 129.662C321.358 130.043 321.625 130.352 321.954 130.352H326.718C327.047 130.352 327.313 130.043 327.313 129.662Z" fill="#326BF6"/>
<path d="M324.336 133.113C324.665 133.113 324.931 132.804 324.931 132.423L324.931 126.903C324.931 126.521 324.665 126.213 324.336 126.213C324.007 126.213 323.74 126.521 323.74 126.903L323.74 132.423C323.74 132.804 324.007 133.113 324.336 133.113Z" fill="#326BF6"/>
<path d="M264.784 81.3623C264.784 80.9813 264.517 80.6723 264.188 80.6723H259.424C259.095 80.6723 258.828 80.9813 258.828 81.3623C258.828 81.7434 259.095 82.0523 259.424 82.0523H264.188C264.517 82.0523 264.784 81.7434 264.784 81.3623Z" fill="#326BF6"/>
<path d="M261.806 84.8126C262.135 84.8126 262.402 84.5036 262.402 84.1226L262.402 78.6026C262.402 78.2215 262.135 77.9126 261.806 77.9126C261.477 77.9126 261.211 78.2215 261.211 78.6026L261.211 84.1226C261.211 84.5036 261.477 84.8126 261.806 84.8126Z" fill="#326BF6"/>
<path d="M327.313 81.3623C327.313 80.9813 327.047 80.6723 326.718 80.6723H321.954C321.625 80.6723 321.358 80.9813 321.358 81.3623C321.358 81.7434 321.625 82.0523 321.954 82.0523H326.718C327.047 82.0523 327.313 81.7434 327.313 81.3623Z" fill="#326BF6"/>
<path d="M324.336 84.8126C324.665 84.8126 324.931 84.5036 324.931 84.1226L324.931 78.6026C324.931 78.2215 324.665 77.9126 324.336 77.9126C324.007 77.9126 323.74 78.2215 323.74 78.6026L323.74 84.1226C323.74 84.5036 324.007 84.8126 324.336 84.8126Z" fill="#326BF6"/>
<path d="M243.94 8.9124C243.94 8.53132 243.674 8.2224 243.345 8.2224H238.58C238.252 8.2224 237.985 8.53132 237.985 8.9124C237.985 9.29347 238.252 9.6024 238.58 9.6024H243.345C243.674 9.6024 243.94 9.29347 243.94 8.9124Z" fill="#326BF6"/>
<path d="M240.963 12.3625C241.292 12.3625 241.558 12.0536 241.558 11.6725L241.558 6.15249C241.558 5.77141 241.292 5.46249 240.963 5.46249C240.634 5.46249 240.367 5.77141 240.367 6.15249L240.367 11.6725C240.367 12.0536 240.634 12.3625 240.963 12.3625Z" fill="#326BF6"/>
<path d="M306.47 8.9124C306.47 8.53132 306.204 8.2224 305.875 8.2224H301.111C300.782 8.2224 300.515 8.53132 300.515 8.9124C300.515 9.29347 300.782 9.6024 301.111 9.6024H305.875C306.204 9.6024 306.47 9.29347 306.47 8.9124Z" fill="#326BF6"/>
<path d="M303.493 12.3625C303.822 12.3625 304.088 12.0536 304.088 11.6725L304.088 6.15249C304.088 5.77141 303.822 5.46249 303.493 5.46249C303.164 5.46249 302.897 5.77141 302.897 6.15249L302.897 11.6725C302.897 12.0536 303.164 12.3625 303.493 12.3625Z" fill="#326BF6"/>
<path d="M243.94 105.512C243.94 105.131 243.674 104.822 243.345 104.822H238.58C238.252 104.822 237.985 105.131 237.985 105.512C237.985 105.893 238.252 106.202 238.58 106.202H243.345C243.674 106.202 243.94 105.893 243.94 105.512Z" fill="#326BF6"/>
<path d="M240.963 108.963C241.292 108.963 241.558 108.654 241.558 108.273L241.558 102.753C241.558 102.371 241.292 102.063 240.963 102.063C240.634 102.063 240.367 102.371 240.367 102.753L240.367 108.273C240.367 108.654 240.634 108.963 240.963 108.963Z" fill="#326BF6"/>
<path d="M306.47 105.512C306.47 105.131 306.204 104.822 305.875 104.822H301.111C300.782 104.822 300.515 105.131 300.515 105.512C300.515 105.893 300.782 106.202 301.111 106.202H305.875C306.204 106.202 306.47 105.893 306.47 105.512Z" fill="#326BF6"/>
<path d="M303.493 108.963C303.822 108.963 304.088 108.654 304.088 108.273L304.088 102.753C304.088 102.371 303.822 102.063 303.493 102.063C303.164 102.063 302.897 102.371 302.897 102.753L302.897 108.273C302.897 108.654 303.164 108.963 303.493 108.963Z" fill="#326BF6"/>
<path d="M243.94 57.2124C243.94 56.8313 243.674 56.5224 243.345 56.5224H238.58C238.252 56.5224 237.985 56.8313 237.985 57.2124C237.985 57.5935 238.252 57.9024 238.58 57.9024H243.345C243.674 57.9024 243.94 57.5935 243.94 57.2124Z" fill="#326BF6"/>
<path d="M240.963 60.6625C241.292 60.6625 241.558 60.3536 241.558 59.9725L241.558 54.4525C241.558 54.0714 241.292 53.7625 240.963 53.7625C240.634 53.7625 240.367 54.0714 240.367 54.4525L240.367 59.9725C240.367 60.3536 240.634 60.6625 240.963 60.6625Z" fill="#326BF6"/>
<path d="M306.47 57.2124C306.47 56.8313 306.204 56.5224 305.875 56.5224H301.111C300.782 56.5224 300.515 56.8313 300.515 57.2124C300.515 57.5935 300.782 57.9024 301.111 57.9024H305.875C306.204 57.9024 306.47 57.5935 306.47 57.2124Z" fill="#326BF6"/>
<path d="M303.493 60.6625C303.822 60.6625 304.088 60.3536 304.088 59.9725L304.088 54.4525C304.088 54.0714 303.822 53.7625 303.493 53.7625C303.164 53.7625 302.897 54.0714 302.897 54.4525L302.897 59.9725C302.897 60.3536 303.164 60.6625 303.493 60.6625Z" fill="#326BF6"/>
<path d="M243.94 153.812C243.94 153.431 243.674 153.122 243.345 153.122H238.58C238.252 153.122 237.985 153.431 237.985 153.812C237.985 154.193 238.252 154.502 238.58 154.502H243.345C243.674 154.502 243.94 154.193 243.94 153.812Z" fill="#326BF6"/>
<path d="M240.963 157.263C241.292 157.263 241.558 156.954 241.558 156.573L241.558 151.053C241.558 150.671 241.292 150.363 240.963 150.363C240.634 150.363 240.367 150.671 240.367 151.053L240.367 156.573C240.367 156.954 240.634 157.263 240.963 157.263Z" fill="#326BF6"/>
<path d="M306.47 153.812C306.47 153.431 306.204 153.122 305.875 153.122H301.111C300.782 153.122 300.515 153.431 300.515 153.812C300.515 154.193 300.782 154.502 301.111 154.502H305.875C306.204 154.502 306.47 154.193 306.47 153.812Z" fill="#326BF6"/>
<path d="M303.493 157.263C303.822 157.263 304.088 156.954 304.088 156.573L304.088 151.053C304.088 150.671 303.822 150.363 303.493 150.363C303.164 150.363 302.897 150.671 302.897 151.053L302.897 156.573C302.897 156.954 303.164 157.263 303.493 157.263Z" fill="#326BF6"/>
<path d="M243.94 33.0624C243.94 32.6813 243.674 32.3724 243.345 32.3724H238.58C238.252 32.3724 237.985 32.6813 237.985 33.0624C237.985 33.4435 238.252 33.7524 238.58 33.7524H243.345C243.674 33.7524 243.94 33.4435 243.94 33.0624Z" fill="#326BF6"/>
<path d="M240.963 36.5125C241.292 36.5125 241.558 36.2036 241.558 35.8225L241.558 30.3025C241.558 29.9214 241.292 29.6125 240.963 29.6125C240.634 29.6125 240.367 29.9214 240.367 30.3025L240.367 35.8225C240.367 36.2036 240.634 36.5125 240.963 36.5125Z" fill="#326BF6"/>
<path d="M306.47 33.0624C306.47 32.6813 306.204 32.3724 305.875 32.3724H301.111C300.782 32.3724 300.515 32.6813 300.515 33.0624C300.515 33.4435 300.782 33.7524 301.111 33.7524H305.875C306.204 33.7524 306.47 33.4435 306.47 33.0624Z" fill="#326BF6"/>
<path d="M303.493 36.5125C303.822 36.5125 304.088 36.2036 304.088 35.8225L304.088 30.3025C304.088 29.9214 303.822 29.6125 303.493 29.6125C303.164 29.6125 302.897 29.9214 302.897 30.3025L302.897 35.8225C302.897 36.2036 303.164 36.5125 303.493 36.5125Z" fill="#326BF6"/>
<path d="M243.94 129.662C243.94 129.281 243.674 128.972 243.345 128.972H238.58C238.252 128.972 237.985 129.281 237.985 129.662C237.985 130.043 238.252 130.352 238.58 130.352H243.345C243.674 130.352 243.94 130.043 243.94 129.662Z" fill="#326BF6"/>
<path d="M240.963 133.113C241.292 133.113 241.558 132.804 241.558 132.423L241.558 126.903C241.558 126.521 241.292 126.213 240.963 126.213C240.634 126.213 240.367 126.521 240.367 126.903L240.367 132.423C240.367 132.804 240.634 133.113 240.963 133.113Z" fill="#326BF6"/>
<path d="M306.47 129.662C306.47 129.281 306.204 128.972 305.875 128.972H301.111C300.782 128.972 300.515 129.281 300.515 129.662C300.515 130.043 300.782 130.352 301.111 130.352H305.875C306.204 130.352 306.47 130.043 306.47 129.662Z" fill="#326BF6"/>
<path d="M303.493 133.113C303.822 133.113 304.088 132.804 304.088 132.423L304.088 126.903C304.088 126.521 303.822 126.213 303.493 126.213C303.164 126.213 302.897 126.521 302.897 126.903L302.897 132.423C302.897 132.804 303.164 133.113 303.493 133.113Z" fill="#326BF6"/>
<path d="M243.94 81.3623C243.94 80.9813 243.674 80.6723 243.345 80.6723H238.58C238.252 80.6723 237.985 80.9813 237.985 81.3623C237.985 81.7434 238.252 82.0523 238.58 82.0523H243.345C243.674 82.0523 243.94 81.7434 243.94 81.3623Z" fill="#326BF6"/>
<path d="M240.963 84.8126C241.292 84.8126 241.558 84.5036 241.558 84.1226L241.558 78.6026C241.558 78.2215 241.292 77.9126 240.963 77.9126C240.634 77.9126 240.367 78.2215 240.367 78.6026L240.367 84.1226C240.367 84.5036 240.634 84.8126 240.963 84.8126Z" fill="#326BF6"/>
<path d="M306.47 81.3623C306.47 80.9813 306.204 80.6723 305.875 80.6723H301.111C300.782 80.6723 300.515 80.9813 300.515 81.3623C300.515 81.7434 300.782 82.0523 301.111 82.0523H305.875C306.204 82.0523 306.47 81.7434 306.47 81.3623Z" fill="#326BF6"/>
<path d="M303.493 84.8126C303.822 84.8126 304.088 84.5036 304.088 84.1226L304.088 78.6026C304.088 78.2215 303.822 77.9126 303.493 77.9126C303.164 77.9126 302.897 78.2215 302.897 78.6026L302.897 84.1226C302.897 84.5036 303.164 84.8126 303.493 84.8126Z" fill="#326BF6"/>
<path d="M56.3508 8.9124C56.3508 8.53132 56.0842 8.2224 55.7553 8.2224H50.9911C50.6622 8.2224 50.3956 8.53132 50.3956 8.9124C50.3956 9.29347 50.6622 9.6024 50.9911 9.6024H55.7553C56.0842 9.6024 56.3508 9.29347 56.3508 8.9124Z" fill="#326BF6"/>
<path d="M53.3732 12.3625C53.7021 12.3625 53.9688 12.0536 53.9688 11.6725L53.9688 6.15249C53.9688 5.77141 53.7021 5.46249 53.3732 5.46249C53.0443 5.46249 52.7777 5.77141 52.7777 6.15249L52.7777 11.6725C52.7777 12.0536 53.0443 12.3625 53.3732 12.3625Z" fill="#326BF6"/>
<path d="M56.3508 105.512C56.3508 105.131 56.0842 104.822 55.7553 104.822H50.9911C50.6622 104.822 50.3956 105.131 50.3956 105.512C50.3956 105.893 50.6622 106.202 50.9911 106.202H55.7553C56.0842 106.202 56.3508 105.893 56.3508 105.512Z" fill="#326BF6"/>
<path d="M53.3732 108.963C53.7021 108.963 53.9688 108.654 53.9688 108.273L53.9688 102.753C53.9688 102.371 53.7021 102.063 53.3732 102.063C53.0443 102.063 52.7777 102.371 52.7777 102.753L52.7777 108.273C52.7777 108.654 53.0443 108.963 53.3732 108.963Z" fill="#326BF6"/>
<path d="M56.3508 57.2124C56.3508 56.8313 56.0842 56.5224 55.7553 56.5224H50.9911C50.6622 56.5224 50.3956 56.8313 50.3956 57.2124C50.3956 57.5935 50.6622 57.9024 50.9911 57.9024H55.7553C56.0842 57.9024 56.3508 57.5935 56.3508 57.2124Z" fill="#326BF6"/>
<path d="M53.3732 60.6625C53.7021 60.6625 53.9688 60.3536 53.9688 59.9725L53.9688 54.4525C53.9688 54.0714 53.7021 53.7625 53.3732 53.7625C53.0443 53.7625 52.7777 54.0714 52.7777 54.4525L52.7777 59.9725C52.7777 60.3536 53.0443 60.6625 53.3732 60.6625Z" fill="#326BF6"/>
<path d="M56.3508 153.812C56.3508 153.431 56.0842 153.122 55.7553 153.122H50.9911C50.6622 153.122 50.3956 153.431 50.3956 153.812C50.3956 154.193 50.6622 154.502 50.9911 154.502H55.7553C56.0842 154.502 56.3508 154.193 56.3508 153.812Z" fill="#326BF6"/>
<path d="M53.3732 157.263C53.7021 157.263 53.9688 156.954 53.9688 156.573L53.9688 151.053C53.9688 150.671 53.7021 150.363 53.3732 150.363C53.0443 150.363 52.7777 150.671 52.7777 151.053L52.7777 156.573C52.7777 156.954 53.0443 157.263 53.3732 157.263Z" fill="#326BF6"/>
<path d="M56.3508 33.0624C56.3508 32.6813 56.0842 32.3724 55.7553 32.3724H50.9911C50.6622 32.3724 50.3956 32.6813 50.3956 33.0624C50.3956 33.4435 50.6622 33.7524 50.9911 33.7524H55.7553C56.0842 33.7524 56.3508 33.4435 56.3508 33.0624Z" fill="#326BF6"/>
<path d="M53.3732 36.5125C53.7021 36.5125 53.9688 36.2036 53.9688 35.8225L53.9688 30.3025C53.9688 29.9214 53.7021 29.6125 53.3732 29.6125C53.0443 29.6125 52.7777 29.9214 52.7777 30.3025L52.7777 35.8225C52.7777 36.2036 53.0443 36.5125 53.3732 36.5125Z" fill="#326BF6"/>
<path d="M56.3508 129.662C56.3508 129.281 56.0842 128.972 55.7553 128.972H50.9911C50.6622 128.972 50.3956 129.281 50.3956 129.662C50.3956 130.043 50.6622 130.352 50.9911 130.352H55.7553C56.0842 130.352 56.3508 130.043 56.3508 129.662Z" fill="#326BF6"/>
<path d="M53.3732 133.113C53.7021 133.113 53.9688 132.804 53.9688 132.423L53.9688 126.903C53.9688 126.521 53.7021 126.213 53.3732 126.213C53.0443 126.213 52.7777 126.521 52.7777 126.903L52.7777 132.423C52.7777 132.804 53.0443 133.113 53.3732 133.113Z" fill="#326BF6"/>
<path d="M56.3508 81.3623C56.3508 80.9813 56.0842 80.6723 55.7553 80.6723H50.9911C50.6622 80.6723 50.3956 80.9813 50.3956 81.3623C50.3956 81.7434 50.6622 82.0523 50.9911 82.0523H55.7553C56.0842 82.0523 56.3508 81.7434 56.3508 81.3623Z" fill="#326BF6"/>
<path d="M53.3732 84.8126C53.7021 84.8126 53.9688 84.5036 53.9688 84.1226L53.9688 78.6026C53.9688 78.2215 53.7021 77.9126 53.3732 77.9126C53.0443 77.9126 52.7777 78.2215 52.7777 78.6026L52.7777 84.1226C52.7777 84.5036 53.0443 84.8126 53.3732 84.8126Z" fill="#326BF6"/>
<path d="M98.0374 8.9124C98.0374 8.53132 97.7707 8.2224 97.4418 8.2224H92.6777C92.3488 8.2224 92.0821 8.53132 92.0821 8.9124C92.0821 9.29347 92.3488 9.6024 92.6777 9.6024H97.4418C97.7707 9.6024 98.0374 9.29347 98.0374 8.9124Z" fill="#326BF6"/>
<path d="M95.0598 12.3625C95.3886 12.3625 95.6553 12.0536 95.6553 11.6725L95.6553 6.15249C95.6553 5.77141 95.3886 5.46249 95.0598 5.46249C94.7309 5.46249 94.4642 5.77141 94.4642 6.15249L94.4642 11.6725C94.4642 12.0536 94.7309 12.3625 95.0598 12.3625Z" fill="#326BF6"/>
<path d="M98.0374 105.512C98.0374 105.131 97.7707 104.822 97.4418 104.822H92.6777C92.3488 104.822 92.0821 105.131 92.0821 105.512C92.0821 105.893 92.3488 106.202 92.6777 106.202H97.4418C97.7707 106.202 98.0374 105.893 98.0374 105.512Z" fill="#326BF6"/>
<path d="M95.0598 108.963C95.3886 108.963 95.6553 108.654 95.6553 108.273L95.6553 102.753C95.6553 102.371 95.3886 102.063 95.0598 102.063C94.7309 102.063 94.4642 102.371 94.4642 102.753L94.4642 108.273C94.4642 108.654 94.7309 108.963 95.0598 108.963Z" fill="#326BF6"/>
<path d="M98.0374 57.2124C98.0374 56.8313 97.7707 56.5224 97.4418 56.5224H92.6777C92.3488 56.5224 92.0821 56.8313 92.0821 57.2124C92.0821 57.5935 92.3488 57.9024 92.6777 57.9024H97.4418C97.7707 57.9024 98.0374 57.5935 98.0374 57.2124Z" fill="#326BF6"/>
<path d="M95.0598 60.6625C95.3886 60.6625 95.6553 60.3536 95.6553 59.9725L95.6553 54.4525C95.6553 54.0714 95.3886 53.7625 95.0598 53.7625C94.7309 53.7625 94.4642 54.0714 94.4642 54.4525L94.4642 59.9725C94.4642 60.3536 94.7309 60.6625 95.0598 60.6625Z" fill="#326BF6"/>
<path d="M98.0374 153.812C98.0374 153.431 97.7707 153.122 97.4418 153.122H92.6777C92.3488 153.122 92.0821 153.431 92.0821 153.812C92.0821 154.193 92.3488 154.502 92.6777 154.502H97.4418C97.7707 154.502 98.0374 154.193 98.0374 153.812Z" fill="#326BF6"/>
<path d="M95.0598 157.263C95.3886 157.263 95.6553 156.954 95.6553 156.573L95.6553 151.053C95.6553 150.671 95.3886 150.363 95.0598 150.363C94.7309 150.363 94.4642 150.671 94.4642 151.053L94.4642 156.573C94.4642 156.954 94.7309 157.263 95.0598 157.263Z" fill="#326BF6"/>
<path d="M98.0374 33.0624C98.0374 32.6813 97.7707 32.3724 97.4418 32.3724H92.6777C92.3488 32.3724 92.0821 32.6813 92.0821 33.0624C92.0821 33.4435 92.3488 33.7524 92.6777 33.7524H97.4418C97.7707 33.7524 98.0374 33.4435 98.0374 33.0624Z" fill="#326BF6"/>
<path d="M95.0598 36.5125C95.3886 36.5125 95.6553 36.2036 95.6553 35.8225L95.6553 30.3025C95.6553 29.9214 95.3886 29.6125 95.0598 29.6125C94.7309 29.6125 94.4642 29.9214 94.4642 30.3025L94.4642 35.8225C94.4642 36.2036 94.7309 36.5125 95.0598 36.5125Z" fill="#326BF6"/>
<path d="M98.0374 129.662C98.0374 129.281 97.7707 128.972 97.4418 128.972H92.6777C92.3488 128.972 92.0821 129.281 92.0821 129.662C92.0821 130.043 92.3488 130.352 92.6777 130.352H97.4418C97.7707 130.352 98.0374 130.043 98.0374 129.662Z" fill="#326BF6"/>
<path d="M95.0598 133.113C95.3886 133.113 95.6553 132.804 95.6553 132.423L95.6553 126.903C95.6553 126.521 95.3886 126.213 95.0598 126.213C94.7309 126.213 94.4642 126.521 94.4642 126.903L94.4642 132.423C94.4642 132.804 94.7309 133.113 95.0598 133.113Z" fill="#326BF6"/>
<path d="M98.0374 81.3623C98.0374 80.9813 97.7707 80.6723 97.4418 80.6723H92.6777C92.3488 80.6723 92.0821 80.9813 92.0821 81.3623C92.0821 81.7434 92.3488 82.0523 92.6777 82.0523H97.4418C97.7707 82.0523 98.0374 81.7434 98.0374 81.3623Z" fill="#326BF6"/>
<path d="M95.0598 84.8126C95.3886 84.8126 95.6553 84.5036 95.6553 84.1226L95.6553 78.6026C95.6553 78.2215 95.3886 77.9126 95.0598 77.9126C94.7309 77.9126 94.4642 78.2215 94.4642 78.6026L94.4642 84.1226C94.4642 84.5036 94.7309 84.8126 95.0598 84.8126Z" fill="#326BF6"/>
<path d="M35.5073 8.9124C35.5073 8.53132 35.2407 8.2224 34.9118 8.2224H30.1476C29.8187 8.2224 29.5521 8.53132 29.5521 8.9124C29.5521 9.29347 29.8187 9.6024 30.1476 9.6024H34.9118C35.2407 9.6024 35.5073 9.29347 35.5073 8.9124Z" fill="#326BF6"/>
<path d="M32.53 12.3625C32.8589 12.3625 33.1255 12.0536 33.1255 11.6725L33.1255 6.15249C33.1255 5.77141 32.8589 5.46249 32.53 5.46249C32.2011 5.46249 31.9344 5.77141 31.9344 6.15249L31.9344 11.6725C31.9344 12.0536 32.2011 12.3625 32.53 12.3625Z" fill="#326BF6"/>
<path d="M35.5073 105.512C35.5073 105.131 35.2407 104.822 34.9118 104.822H30.1476C29.8187 104.822 29.5521 105.131 29.5521 105.512C29.5521 105.893 29.8187 106.202 30.1476 106.202H34.9118C35.2407 106.202 35.5073 105.893 35.5073 105.512Z" fill="#326BF6"/>
<path d="M32.53 108.963C32.8589 108.963 33.1255 108.654 33.1255 108.273L33.1255 102.753C33.1255 102.371 32.8589 102.063 32.53 102.063C32.2011 102.063 31.9344 102.371 31.9344 102.753L31.9344 108.273C31.9344 108.654 32.2011 108.963 32.53 108.963Z" fill="#326BF6"/>
<path d="M35.5073 57.2124C35.5073 56.8313 35.2407 56.5224 34.9118 56.5224H30.1476C29.8187 56.5224 29.5521 56.8313 29.5521 57.2124C29.5521 57.5935 29.8187 57.9024 30.1476 57.9024H34.9118C35.2407 57.9024 35.5073 57.5935 35.5073 57.2124Z" fill="#326BF6"/>
<path d="M32.53 60.6625C32.8589 60.6625 33.1255 60.3536 33.1255 59.9725L33.1255 54.4525C33.1255 54.0714 32.8589 53.7625 32.53 53.7625C32.2011 53.7625 31.9344 54.0714 31.9344 54.4525L31.9344 59.9725C31.9344 60.3536 32.2011 60.6625 32.53 60.6625Z" fill="#326BF6"/>
<path d="M35.5073 153.812C35.5073 153.431 35.2407 153.122 34.9118 153.122H30.1476C29.8187 153.122 29.5521 153.431 29.5521 153.812C29.5521 154.193 29.8187 154.502 30.1476 154.502H34.9118C35.2407 154.502 35.5073 154.193 35.5073 153.812Z" fill="#326BF6"/>
<path d="M32.53 157.263C32.8589 157.263 33.1255 156.954 33.1255 156.573L33.1255 151.053C33.1255 150.671 32.8589 150.363 32.53 150.363C32.2011 150.363 31.9344 150.671 31.9344 151.053L31.9344 156.573C31.9344 156.954 32.2011 157.263 32.53 157.263Z" fill="#326BF6"/>
<path d="M35.5073 33.0624C35.5073 32.6813 35.2407 32.3724 34.9118 32.3724H30.1476C29.8187 32.3724 29.5521 32.6813 29.5521 33.0624C29.5521 33.4435 29.8187 33.7524 30.1476 33.7524H34.9118C35.2407 33.7524 35.5073 33.4435 35.5073 33.0624Z" fill="#326BF6"/>
<path d="M32.53 36.5125C32.8589 36.5125 33.1255 36.2036 33.1255 35.8225L33.1255 30.3025C33.1255 29.9214 32.8589 29.6125 32.53 29.6125C32.2011 29.6125 31.9344 29.9214 31.9344 30.3025L31.9344 35.8225C31.9344 36.2036 32.2011 36.5125 32.53 36.5125Z" fill="#326BF6"/>
<path d="M35.5073 129.662C35.5073 129.281 35.2407 128.972 34.9118 128.972H30.1476C29.8187 128.972 29.5521 129.281 29.5521 129.662C29.5521 130.043 29.8187 130.352 30.1476 130.352H34.9118C35.2407 130.352 35.5073 130.043 35.5073 129.662Z" fill="#326BF6"/>
<path d="M32.53 133.113C32.8589 133.113 33.1255 132.804 33.1255 132.423L33.1255 126.903C33.1255 126.521 32.8589 126.213 32.53 126.213C32.2011 126.213 31.9344 126.521 31.9344 126.903L31.9344 132.423C31.9344 132.804 32.2011 133.113 32.53 133.113Z" fill="#326BF6"/>
<path d="M35.5073 81.3623C35.5073 80.9813 35.2407 80.6723 34.9118 80.6723H30.1476C29.8187 80.6723 29.5521 80.9813 29.5521 81.3623C29.5521 81.7434 29.8187 82.0523 30.1476 82.0523H34.9118C35.2407 82.0523 35.5073 81.7434 35.5073 81.3623Z" fill="#326BF6"/>
<path d="M32.53 84.8126C32.8589 84.8126 33.1255 84.5036 33.1255 84.1226L33.1255 78.6026C33.1255 78.2215 32.8589 77.9126 32.53 77.9126C32.2011 77.9126 31.9344 78.2215 31.9344 78.6026L31.9344 84.1226C31.9344 84.5036 32.2011 84.8126 32.53 84.8126Z" fill="#326BF6"/>
<path d="M14.6641 8.9124C14.6641 8.53132 14.3974 8.2224 14.0685 8.2224H9.30436C8.97546 8.2224 8.70884 8.53132 8.70884 8.9124C8.70884 9.29347 8.97546 9.6024 9.30436 9.6024H14.0685C14.3974 9.6024 14.6641 9.29347 14.6641 8.9124Z" fill="#326BF6"/>
<path d="M11.6867 12.3625C12.0156 12.3625 12.2822 12.0536 12.2822 11.6725L12.2822 6.15249C12.2822 5.77141 12.0156 5.46249 11.6867 5.46249C11.3578 5.46249 11.0912 5.77141 11.0912 6.15249L11.0912 11.6725C11.0912 12.0536 11.3578 12.3625 11.6867 12.3625Z" fill="#326BF6"/>
<path d="M14.6641 105.512C14.6641 105.131 14.3974 104.822 14.0685 104.822H9.30436C8.97546 104.822 8.70884 105.131 8.70884 105.512C8.70884 105.893 8.97546 106.202 9.30436 106.202H14.0685C14.3974 106.202 14.6641 105.893 14.6641 105.512Z" fill="#326BF6"/>
<path d="M11.6867 108.963C12.0156 108.963 12.2822 108.654 12.2822 108.273L12.2822 102.753C12.2822 102.371 12.0156 102.063 11.6867 102.063C11.3578 102.063 11.0912 102.371 11.0912 102.753L11.0912 108.273C11.0912 108.654 11.3578 108.963 11.6867 108.963Z" fill="#326BF6"/>
<path d="M14.6641 57.2124C14.6641 56.8313 14.3974 56.5224 14.0685 56.5224H9.30436C8.97546 56.5224 8.70884 56.8313 8.70884 57.2124C8.70884 57.5935 8.97546 57.9024 9.30436 57.9024H14.0685C14.3974 57.9024 14.6641 57.5935 14.6641 57.2124Z" fill="#326BF6"/>
<path d="M11.6867 60.6625C12.0156 60.6625 12.2822 60.3536 12.2822 59.9725L12.2822 54.4525C12.2822 54.0714 12.0156 53.7625 11.6867 53.7625C11.3578 53.7625 11.0912 54.0714 11.0912 54.4525L11.0912 59.9725C11.0912 60.3536 11.3578 60.6625 11.6867 60.6625Z" fill="#326BF6"/>
<path d="M14.6641 153.812C14.6641 153.431 14.3974 153.122 14.0685 153.122H9.30436C8.97546 153.122 8.70884 153.431 8.70884 153.812C8.70884 154.193 8.97546 154.502 9.30436 154.502H14.0685C14.3974 154.502 14.6641 154.193 14.6641 153.812Z" fill="#326BF6"/>
<path d="M11.6867 157.263C12.0156 157.263 12.2822 156.954 12.2822 156.573L12.2822 151.053C12.2822 150.671 12.0156 150.363 11.6867 150.363C11.3578 150.363 11.0912 150.671 11.0912 151.053L11.0912 156.573C11.0912 156.954 11.3578 157.263 11.6867 157.263Z" fill="#326BF6"/>
<path d="M14.6641 33.0624C14.6641 32.6813 14.3974 32.3724 14.0685 32.3724H9.30436C8.97546 32.3724 8.70884 32.6813 8.70884 33.0624C8.70884 33.4435 8.97546 33.7524 9.30436 33.7524H14.0685C14.3974 33.7524 14.6641 33.4435 14.6641 33.0624Z" fill="#326BF6"/>
<path d="M11.6867 36.5125C12.0156 36.5125 12.2822 36.2036 12.2822 35.8225L12.2822 30.3025C12.2822 29.9214 12.0156 29.6125 11.6867 29.6125C11.3578 29.6125 11.0912 29.9214 11.0912 30.3025L11.0912 35.8225C11.0912 36.2036 11.3578 36.5125 11.6867 36.5125Z" fill="#326BF6"/>
<path d="M14.6641 129.662C14.6641 129.281 14.3974 128.972 14.0685 128.972H9.30436C8.97546 128.972 8.70884 129.281 8.70884 129.662C8.70884 130.043 8.97546 130.352 9.30436 130.352H14.0685C14.3974 130.352 14.6641 130.043 14.6641 129.662Z" fill="#326BF6"/>
<path d="M11.6867 133.113C12.0156 133.113 12.2822 132.804 12.2822 132.423L12.2822 126.903C12.2822 126.521 12.0156 126.213 11.6867 126.213C11.3578 126.213 11.0912 126.521 11.0912 126.903L11.0912 132.423C11.0912 132.804 11.3578 133.113 11.6867 133.113Z" fill="#326BF6"/>
<path d="M14.6641 81.3623C14.6641 80.9813 14.3974 80.6723 14.0685 80.6723H9.30436C8.97546 80.6723 8.70884 80.9813 8.70884 81.3623C8.70884 81.7434 8.97546 82.0523 9.30436 82.0523H14.0685C14.3974 82.0523 14.6641 81.7434 14.6641 81.3623Z" fill="#326BF6"/>
<path d="M11.6867 84.8126C12.0156 84.8126 12.2822 84.5036 12.2822 84.1226L12.2822 78.6026C12.2822 78.2215 12.0156 77.9126 11.6867 77.9126C11.3578 77.9126 11.0912 78.2215 11.0912 78.6026L11.0912 84.1226C11.0912 84.5036 11.3578 84.8126 11.6867 84.8126Z" fill="#326BF6"/>
</g>
</g>
<defs>
<linearGradient id="paint0_linear_271:24515" x1="929" y1="-6.00004" x2="-25.9384" y2="190.017" gradientUnits="userSpaceOnUse">
<stop offset="0.137762" stop-color="#C4C4C4" stop-opacity="0"/>
<stop offset="0.520854" stop-color="#FC0A0A"/>
<stop offset="0.882847" stop-color="#C4C4C4" stop-opacity="0"/>
</linearGradient>
</defs>
</svg>
