<svg width="60" height="60" viewBox="0 0 60 60" fill="none" xmlns="http://www.w3.org/2000/svg">
<g opacity="0.8">
<path d="M14 5C12.8954 5 12 5.89543 12 7V26C12 27.1046 12.8954 28 14 28H26C27.1046 28 28 27.1046 28 26V7C28 5.89543 27.1046 5 26 5H14Z" fill="#EFF2FE"/>
<path d="M34 7C34 5.89543 34.8954 5 36 5H46C47.1046 5 48 5.89543 48 7V16C48 17.1046 47.1046 18 46 18H36C34.8954 18 34 17.1046 34 16V7Z" fill="#EFF2FE"/>
<path d="M34 26C34 24.8954 34.8954 24 36 24H46C47.1046 24 48 24.8954 48 26V41C48 42.1046 47.1046 43 46 43H36C34.8954 43 34 42.1046 34 41V26Z" fill="#EFF2FE"/>
</g>
<path d="M28 14H34V10H28V14Z" fill="#326BF6"/>
<path d="M39 18H43V24H39V18Z" fill="#326BF6"/>
<path d="M12 33C12 31.8954 12.8954 31 14 31H26C27.1046 31 28 31.8954 28 33V41C28 42.1046 27.1046 43 26 43H14C12.8954 43 12 42.1046 12 41V33Z" fill="#326BF6"/>
</svg>
