<svg width="60" height="60" viewBox="0 0 60 60" fill="none" xmlns="http://www.w3.org/2000/svg">
<path fill-rule="evenodd" clip-rule="evenodd" d="M34.6858 19.7741C35.0667 16.5228 37.831 14 41.1846 14C44.6531 14 47.4912 16.6987 47.714 20.1108C49.6524 20.994 50.9998 22.9483 50.9998 25.2174C50.9998 28.315 48.4887 30.8261 45.3911 30.8261H36.0433C32.9457 30.8261 30.4346 28.315 30.4346 25.2174C30.4346 22.5879 32.2441 20.381 34.6858 19.7741Z" fill="#326BF6"/>
<path opacity="0.8" fill-rule="evenodd" clip-rule="evenodd" d="M15.1836 26.8991C15.9605 26.5996 16.5522 25.9309 16.7361 25.1188C18.0565 19.288 23.2698 14.9346 29.5 14.9346C36.0288 14.9346 41.441 19.7154 42.4267 25.9673C42.5414 26.695 42.985 27.3342 43.6189 27.7095C46.9181 29.6625 49.1304 33.2576 49.1304 37.3694C49.1304 43.5645 44.1082 48.5867 37.913 48.5867H19.2174C13.0222 48.5867 8 43.5645 8 37.3694C8 32.5961 10.9814 28.5191 15.1836 26.8991Z" fill="#EFF2FE"/>
<path d="M19.6348 32.9785H21.6514V39.3223C21.6514 40.1517 21.5785 40.7897 21.4326 41.2363C21.2367 41.8197 20.8812 42.2891 20.3662 42.6445C19.8512 42.9954 19.1722 43.1709 18.3291 43.1709C17.3402 43.1709 16.5791 42.8952 16.0459 42.3438C15.5127 41.7878 15.2438 40.9743 15.2393 39.9033L17.1465 39.6846C17.1693 40.2588 17.2536 40.6644 17.3994 40.9014C17.6182 41.2614 17.9508 41.4414 18.3975 41.4414C18.8486 41.4414 19.1676 41.3138 19.3545 41.0586C19.5413 40.7988 19.6348 40.2633 19.6348 39.4521V32.9785ZM23.3535 39.2676C23.3535 38.6296 23.5107 38.012 23.8252 37.415C24.1396 36.818 24.584 36.3623 25.1582 36.0479C25.737 35.7334 26.3818 35.5762 27.0928 35.5762C28.1911 35.5762 29.0911 35.9339 29.793 36.6494C30.4948 37.3604 30.8457 38.2604 30.8457 39.3496C30.8457 40.4479 30.4902 41.3594 29.7793 42.084C29.0729 42.804 28.182 43.1641 27.1064 43.1641C26.4411 43.1641 25.8053 43.0137 25.1992 42.7129C24.5977 42.4121 24.1396 41.9723 23.8252 41.3936C23.5107 40.8102 23.3535 40.1016 23.3535 39.2676ZM25.3223 39.3701C25.3223 40.0902 25.4932 40.6416 25.835 41.0244C26.1768 41.4072 26.5983 41.5986 27.0996 41.5986C27.6009 41.5986 28.0202 41.4072 28.3574 41.0244C28.6992 40.6416 28.8701 40.0856 28.8701 39.3564C28.8701 38.6455 28.6992 38.0986 28.3574 37.7158C28.0202 37.333 27.6009 37.1416 27.0996 37.1416C26.5983 37.1416 26.1768 37.333 25.835 37.7158C25.4932 38.0986 25.3223 38.6501 25.3223 39.3701ZM32.3564 34.7559V32.9785H34.2773V34.7559H32.3564ZM32.3564 43V35.7402H34.2773V43H32.3564ZM42.8564 43H40.9355V39.2949C40.9355 38.5111 40.8945 38.0052 40.8125 37.7773C40.7305 37.5449 40.596 37.3649 40.4092 37.2373C40.2269 37.1097 40.0059 37.0459 39.7461 37.0459C39.4134 37.0459 39.1149 37.137 38.8506 37.3193C38.5863 37.5016 38.404 37.7432 38.3037 38.0439C38.208 38.3447 38.1602 38.9007 38.1602 39.7119V43H36.2393V35.7402H38.0234V36.8066C38.6569 35.9863 39.4544 35.5762 40.416 35.5762C40.8398 35.5762 41.2272 35.6536 41.5781 35.8086C41.929 35.959 42.1934 36.1527 42.3711 36.3896C42.5534 36.6266 42.6787 36.8955 42.7471 37.1963C42.82 37.4971 42.8564 37.9277 42.8564 38.4883V43Z" fill="#326BF6"/>
</svg>
