<svg width="105" height="132" viewBox="0 0 105 132" fill="none" xmlns="http://www.w3.org/2000/svg">
<path d="M55 140L0 112.279V56.845L55 84.5641V140Z" fill="url(#paint0_linear)"/>
<path d="M55 140L110 112.279V56.845L55 84.5641V140Z" fill="#E3EDF9"/>
<path d="M76.0835 114.414C74.7623 115.081 73.694 116.69 73.694 118.028C73.694 119.367 74.7623 119.897 76.0835 119.232C77.4048 118.568 78.473 116.956 78.473 115.618C78.473 114.279 77.4025 113.749 76.0835 114.414Z" fill="#326BF6"/>
<path d="M83.9694 114.742C85.0103 113.398 85.1957 111.791 84.3836 111.152C83.5715 110.513 82.0693 111.084 81.0285 112.428C79.9876 113.772 79.8022 115.379 80.6143 116.018C81.4264 116.657 82.9285 116.086 83.9694 114.742Z" fill="#326BF6"/>
<path d="M88.9141 108.081C87.5951 108.746 86.5245 110.358 86.5245 111.694C86.5245 113.03 87.5951 113.565 88.9141 112.898C90.2331 112.231 91.3059 110.622 91.3059 109.285C91.3059 107.949 90.2353 107.414 88.9141 108.081Z" fill="#326BF6"/>
<path d="M55 84.5709L0 56.8495L55 29.1304L110 56.8495L55 84.5709Z" fill="url(#paint1_linear)"/>
<path d="M71.266 112.497L93.7295 101.175C94.7797 100.645 95.6312 99.3546 95.6312 98.3007V85.3038C95.6312 84.2454 94.7797 83.8175 93.7295 84.3455L71.2638 95.6695C70.2135 96.1975 69.3621 97.4904 69.3621 98.542V111.532C69.3643 112.597 70.2158 113.027 71.266 112.497Z" fill="#71E38D"/>
<path d="M69.667 111.691L92.1327 100.379C93.183 99.8484 94.0344 98.5579 94.0344 97.504V84.5071C94.034 84.4163 94.0265 84.3258 94.0118 84.2362C94.9288 83.9107 95.6335 84.35 95.6335 85.3129V98.3098C95.6335 99.3682 94.782 100.654 93.7318 101.185L71.2661 112.506C70.3107 112.989 69.5225 112.675 69.387 111.823C69.4832 111.786 69.5768 111.742 69.667 111.691Z" fill="#BCCAF8"/>
<path d="M69.4659 104.776L69.2649 104.371L73.3506 102.311L74.3285 103.793L75.3088 101.323L76.246 100.852L78.5272 95.0913L80.9032 98.6034L84.0493 97.0192L85.8358 99.7187L88.8848 92.0389L90.1451 93.9464L93.874 92.0663L94.0772 92.4737L89.9915 94.5313L88.9842 93.0109L85.9374 100.693L83.8935 97.6042L80.7518 99.1884L78.6333 96.0541L76.6006 101.182L75.6656 101.653L74.4302 104.765L73.1948 102.899L69.4659 104.776Z" fill="white"/>
<path d="M25.9349 103.406C25.3002 103.087 24.7853 103.347 24.7853 103.986V113.612C24.7853 114.252 25.3002 115.03 25.9349 115.351C26.5695 115.672 27.0845 115.411 27.0845 114.771V105.143C27.0845 104.503 26.5695 103.727 25.9349 103.406ZM19.0418 99.9236C18.4072 99.6026 17.8922 99.8621 17.8922 100.502V110.13C17.8922 110.769 18.4072 111.546 19.0418 111.867C19.6765 112.188 20.1914 111.928 20.1914 111.288V101.66C20.1914 101.03 19.6765 100.251 19.0418 99.9236ZM22.4883 101.66C21.8537 101.339 21.3387 101.599 21.3387 102.238V111.867C21.3387 112.506 21.8537 113.285 22.4883 113.603C23.123 113.922 23.6379 113.665 23.6379 113.025V103.406C23.6379 102.766 23.123 101.988 22.4883 101.669V101.66ZM32.8302 106.873C32.1956 106.552 31.6806 106.811 31.6806 107.451V117.079C31.6806 117.719 32.1956 118.497 32.8302 118.816C33.4649 119.134 33.9775 118.877 33.9775 118.238V108.618C33.9775 107.979 33.4649 107.207 32.8302 106.882V106.873ZM29.3814 105.136C28.7468 104.815 28.2341 105.075 28.2341 105.714V115.342C28.2341 115.982 28.7468 116.758 29.3814 117.079C30.0161 117.4 30.531 117.138 30.531 116.499V106.882C30.531 106.242 30.0161 105.464 29.3814 105.145V105.136Z" fill="#326BF6"/>
<g style="mix-blend-mode:multiply">
<g style="mix-blend-mode:multiply" opacity="0.05">
<path d="M39.2286 79.8888C57.4725 79.8888 72.262 72.4343 72.262 63.2386C72.262 54.043 57.4725 46.5885 39.2286 46.5885C20.9848 46.5885 6.19519 54.043 6.19519 63.2386C6.19519 72.4343 20.9848 79.8888 39.2286 79.8888Z" fill="#BEE3FF"/>
</g>
<g style="mix-blend-mode:multiply" opacity="0.1">
<path d="M40.0191 79.4905C58.263 79.4905 73.0526 72.036 73.0526 62.8403C73.0526 53.6447 58.263 46.1902 40.0191 46.1902C21.7753 46.1902 6.98572 53.6447 6.98572 62.8403C6.98572 72.036 21.7753 79.4905 40.0191 79.4905Z" fill="#BEE3FF"/>
</g>
<g style="mix-blend-mode:multiply" opacity="0.14">
<path d="M40.8073 79.0922C59.0512 79.0922 73.8408 71.6376 73.8408 62.442C73.8408 53.2464 59.0512 45.7919 40.8073 45.7919C22.5635 45.7919 7.77393 53.2464 7.77393 62.442C7.77393 71.6376 22.5635 79.0922 40.8073 79.0922Z" fill="#BEE3FF"/>
</g>
<g style="mix-blend-mode:multiply" opacity="0.19">
<path d="M41.5979 78.6938C59.8417 78.6938 74.6313 71.2393 74.6313 62.0437C74.6313 52.8481 59.8417 45.3936 41.5979 45.3936C23.354 45.3936 8.56445 52.8481 8.56445 62.0437C8.56445 71.2393 23.354 78.6938 41.5979 78.6938Z" fill="#BEE3FF"/>
</g>
<g style="mix-blend-mode:multiply" opacity="0.24">
<path d="M42.3884 78.2955C60.6323 78.2955 75.4218 70.841 75.4218 61.6454C75.4218 52.4498 60.6323 44.9952 42.3884 44.9952C24.1445 44.9952 9.35498 52.4498 9.35498 61.6454C9.35498 70.841 24.1445 78.2955 42.3884 78.2955Z" fill="#BEE3FF"/>
</g>
<g style="mix-blend-mode:multiply" opacity="0.29">
<path d="M43.1789 77.8972C61.4228 77.8972 76.2123 70.4427 76.2123 61.2471C76.2123 52.0514 61.4228 44.5969 43.1789 44.5969C24.9351 44.5969 10.1455 52.0514 10.1455 61.2471C10.1455 70.4427 24.9351 77.8972 43.1789 77.8972Z" fill="#BEE3FF"/>
</g>
<g style="mix-blend-mode:multiply" opacity="0.33">
<path d="M43.9695 77.4988C62.2133 77.4988 77.0029 70.0442 77.0029 60.8486C77.0029 51.653 62.2133 44.1985 43.9695 44.1985C25.7256 44.1985 10.936 51.653 10.936 60.8486C10.936 70.0442 25.7256 77.4988 43.9695 77.4988Z" fill="#BEE3FF"/>
</g>
<g style="mix-blend-mode:multiply" opacity="0.38">
<path d="M44.76 77.1006C63.0038 77.1006 77.7934 69.646 77.7934 60.4504C77.7934 51.2548 63.0038 43.8003 44.76 43.8003C26.5161 43.8003 11.7266 51.2548 11.7266 60.4504C11.7266 69.646 26.5161 77.1006 44.76 77.1006Z" fill="#BEE3FF"/>
</g>
<g style="mix-blend-mode:multiply" opacity="0.43">
<path d="M45.5503 76.7021C63.7941 76.7021 78.5837 69.2476 78.5837 60.052C78.5837 50.8564 63.7941 43.4019 45.5503 43.4019C27.3064 43.4019 12.5168 50.8564 12.5168 60.052C12.5168 69.2476 27.3064 76.7021 45.5503 76.7021Z" fill="#BEE3FF"/>
</g>
<g style="mix-blend-mode:multiply" opacity="0.48">
<path d="M46.3408 76.3038C64.5847 76.3038 79.3742 68.8493 79.3742 59.6537C79.3742 50.4581 64.5847 43.0035 46.3408 43.0035C28.0969 43.0035 13.3074 50.4581 13.3074 59.6537C13.3074 68.8493 28.0969 76.3038 46.3408 76.3038Z" fill="#BEE3FF"/>
</g>
<g style="mix-blend-mode:multiply" opacity="0.52">
<path d="M47.1291 75.9055C65.373 75.9055 80.1625 68.451 80.1625 59.2554C80.1625 50.0597 65.373 42.6052 47.1291 42.6052C28.8853 42.6052 14.0957 50.0597 14.0957 59.2554C14.0957 68.451 28.8853 75.9055 47.1291 75.9055Z" fill="#BEE3FF"/>
</g>
<g style="mix-blend-mode:multiply" opacity="0.57">
<path d="M47.9195 75.5072C66.1634 75.5072 80.9529 68.0527 80.9529 58.857C80.9529 49.6614 66.1634 42.2069 47.9195 42.2069C29.6757 42.2069 14.8861 49.6614 14.8861 58.857C14.8861 68.0527 29.6757 75.5072 47.9195 75.5072Z" fill="#BEE3FF"/>
</g>
<g style="mix-blend-mode:multiply" opacity="0.62">
<path d="M48.7099 75.1089C66.9538 75.1089 81.7433 67.6544 81.7433 58.4587C81.7433 49.2631 66.9538 41.8086 48.7099 41.8086C30.4661 41.8086 15.6765 49.2631 15.6765 58.4587C15.6765 67.6544 30.4661 75.1089 48.7099 75.1089Z" fill="#BEE3FF"/>
</g>
<g style="mix-blend-mode:multiply" opacity="0.67">
<path d="M49.5006 74.7106C67.7444 74.7106 82.534 67.256 82.534 58.0604C82.534 48.8648 67.7444 41.4103 49.5006 41.4103C31.2567 41.4103 16.4672 48.8648 16.4672 58.0604C16.4672 67.256 31.2567 74.7106 49.5006 74.7106Z" fill="#BEE3FF"/>
</g>
<g style="mix-blend-mode:multiply" opacity="0.71">
<path d="M50.2911 74.3123C68.535 74.3123 83.3245 66.8577 83.3245 57.6621C83.3245 48.4665 68.535 41.012 50.2911 41.012C32.0473 41.012 17.2577 48.4665 17.2577 57.6621C17.2577 66.8577 32.0473 74.3123 50.2911 74.3123Z" fill="#BEE3FF"/>
</g>
<g style="mix-blend-mode:multiply" opacity="0.76">
<path d="M51.0815 73.9138C69.3254 73.9138 84.1149 66.4593 84.1149 57.2637C84.1149 48.068 69.3254 40.6135 51.0815 40.6135C32.8377 40.6135 18.0481 48.068 18.0481 57.2637C18.0481 66.4593 32.8377 73.9138 51.0815 73.9138Z" fill="#BEE3FF"/>
</g>
<g style="mix-blend-mode:multiply" opacity="0.81">
<path d="M51.872 73.5155C70.1159 73.5155 84.9054 66.061 84.9054 56.8653C84.9054 47.6697 70.1159 40.2152 51.872 40.2152C33.6282 40.2152 18.8386 47.6697 18.8386 56.8653C18.8386 66.061 33.6282 73.5155 51.872 73.5155Z" fill="#BEE3FF"/>
</g>
<g style="mix-blend-mode:multiply" opacity="0.86">
<path d="M52.6624 73.1172C70.9063 73.1172 85.6959 65.6627 85.6959 56.467C85.6959 47.2714 70.9063 39.8169 52.6624 39.8169C34.4186 39.8169 19.629 47.2714 19.629 56.467C19.629 65.6627 34.4186 73.1172 52.6624 73.1172Z" fill="#BEE3FF"/>
</g>
<g style="mix-blend-mode:multiply" opacity="0.9">
<path d="M53.4508 72.7189C71.6946 72.7189 86.4842 65.2643 86.4842 56.0687C86.4842 46.8731 71.6946 39.4186 53.4508 39.4186C35.2069 39.4186 20.4174 46.8731 20.4174 56.0687C20.4174 65.2643 35.2069 72.7189 53.4508 72.7189Z" fill="#BEE3FF"/>
</g>
<g style="mix-blend-mode:multiply" opacity="0.95">
<path d="M54.2412 72.3205C72.485 72.3205 87.2746 64.866 87.2746 55.6704C87.2746 46.4748 72.485 39.0203 54.2412 39.0203C35.9973 39.0203 21.2078 46.4748 21.2078 55.6704C21.2078 64.866 35.9973 72.3205 54.2412 72.3205Z" fill="#BEE3FF"/>
</g>
<g style="mix-blend-mode:multiply">
<path d="M55.0317 71.9222C73.2756 71.9222 88.0651 64.4677 88.0651 55.2721C88.0651 46.0765 73.2756 38.6219 55.0317 38.6219C36.7879 38.6219 21.9983 46.0765 21.9983 55.2721C21.9983 64.4677 36.7879 71.9222 55.0317 71.9222Z" fill="#BEE3FF"/>
</g>
</g>
<path d="M78.3714 33.5097C65.4548 26.9999 44.5158 26.9999 31.5992 33.5097C25.1398 36.7646 21.9101 41.0347 21.9124 45.3025V54.9989C21.9124 59.2645 25.1421 63.5323 31.5992 66.7872C44.5249 73.2925 65.4638 73.2925 78.3714 66.7872C84.8308 63.53 88.0605 59.2622 88.056 54.9944V45.2957C88.0695 41.0347 84.8398 36.7646 78.3714 33.5097Z" fill="url(#paint2_linear)"/>
<path d="M54.9932 61.964C73.2583 61.964 88.065 54.5013 88.065 45.2957C88.065 36.09 73.2583 28.6273 54.9932 28.6273C36.7281 28.6273 21.9214 36.09 21.9214 45.2957C21.9214 54.5013 36.7281 61.964 54.9932 61.964Z" fill="url(#paint3_linear)"/>
<path d="M74.8345 27.0864C63.9935 21.6236 46.3972 21.6236 35.5494 27.0864C30.1289 29.8177 27.4187 33.405 27.4187 36.9899V43.7479C27.4187 47.3305 30.1289 50.9132 35.5494 53.6492C46.3904 59.112 63.9867 59.112 74.8345 53.6492C80.255 50.9178 82.9652 47.3283 82.9652 43.7433V36.9968C82.972 33.4118 80.2595 29.8177 74.8345 27.0864Z" fill="url(#paint4_linear)"/>
<path d="M55.1921 50.9928C70.5334 50.9928 82.9699 44.7245 82.9699 36.9921C82.9699 29.2598 70.5334 22.9915 55.1921 22.9915C39.8508 22.9915 27.4143 29.2598 27.4143 36.9921C27.4143 44.7245 39.8508 50.9928 55.1921 50.9928Z" fill="url(#paint5_linear)"/>
<path d="M55.1919 48.134C67.4022 48.134 77.3007 43.1456 77.3007 36.9922C77.3007 30.8387 67.4022 25.8503 55.1919 25.8503C42.9815 25.8503 33.083 30.8387 33.083 36.9922C33.083 43.1456 42.9815 48.134 55.1919 48.134Z" fill="url(#paint6_linear)"/>
<path d="M74.8345 15.5962C63.9935 10.1334 46.3972 10.1334 35.5494 15.5962C30.1289 18.3276 27.4187 21.9171 27.4187 25.4998V32.2532C27.4187 35.8359 30.1289 39.4186 35.5494 42.1522C46.3904 47.615 63.9867 47.615 74.8345 42.1522C80.255 39.4208 82.9652 35.8336 82.9652 32.2487V25.493C82.972 21.9171 80.2595 18.3322 74.8345 15.5962Z" fill="url(#paint7_linear)"/>
<path d="M55.1921 39.496C70.5334 39.496 82.9699 33.2277 82.9699 25.4953C82.9699 17.7629 70.5334 11.4946 55.1921 11.4946C39.8508 11.4946 27.4143 17.7629 27.4143 25.4953C27.4143 33.2277 39.8508 39.496 55.1921 39.496Z" fill="url(#paint8_linear)"/>
<path d="M55.1919 36.6372C67.4022 36.6372 77.3007 31.6488 77.3007 25.4953C77.3007 19.3419 67.4022 14.3535 55.1919 14.3535C42.9815 14.3535 33.083 19.3419 33.083 25.4953C33.083 31.6488 42.9815 36.6372 55.1919 36.6372Z" fill="url(#paint9_linear)"/>
<path d="M74.8345 4.0971C63.9935 -1.3657 46.3972 -1.3657 35.5494 4.0971C30.1289 6.82849 27.4187 10.4157 27.4187 14.0007V20.7563C27.4187 24.339 30.1289 27.924 35.5494 30.6577C46.3904 36.1204 63.9867 36.1204 74.8345 30.6577C80.255 27.9263 82.9652 24.3367 82.9652 20.7518V14.0052C82.972 10.4203 80.2595 6.82849 74.8345 4.0971Z" fill="url(#paint10_linear)"/>
<path d="M55.1921 28.0014C70.5334 28.0014 82.9699 21.733 82.9699 14.0007C82.9699 6.26832 70.5334 0 55.1921 0C39.8508 0 27.4143 6.26832 27.4143 14.0007C27.4143 21.733 39.8508 28.0014 55.1921 28.0014Z" fill="url(#paint11_linear)"/>
<path d="M55.1919 25.1425C67.4022 25.1425 77.3007 20.1542 77.3007 14.0007C77.3007 7.84725 67.4022 2.85889 55.1919 2.85889C42.9815 2.85889 33.083 7.84725 33.083 14.0007C33.083 20.1542 42.9815 25.1425 55.1919 25.1425Z" fill="url(#paint12_linear)"/>
<path d="M55.192 21.2821C63.1714 21.2821 69.6399 18.0221 69.6399 14.0007C69.6399 9.97925 63.1714 6.71924 55.192 6.71924C47.2127 6.71924 40.7441 9.97925 40.7441 14.0007C40.7441 18.0221 47.2127 21.2821 55.192 21.2821Z" fill="url(#paint13_linear)"/>
<defs>
<linearGradient id="paint0_linear" x1="0" y1="98.4214" x2="55" y2="98.4214" gradientUnits="userSpaceOnUse">
<stop stop-color="#D9EBFC"/>
<stop offset="1" stop-color="#BDE3FF"/>
</linearGradient>
<linearGradient id="paint1_linear" x1="0" y1="56.8495" x2="109.998" y2="56.8495" gradientUnits="userSpaceOnUse">
<stop stop-color="#E8EAFB"/>
<stop offset="1" stop-color="white"/>
</linearGradient>
<linearGradient id="paint2_linear" x1="22.2624" y1="50.1484" x2="87.7285" y2="50.1484" gradientUnits="userSpaceOnUse">
<stop stop-color="#D3D7F2"/>
<stop offset="0.45" stop-color="#BBC9F8"/>
<stop offset="0.55" stop-color="#D3D7F2"/>
<stop offset="1" stop-color="#F2F3FF"/>
</linearGradient>
<linearGradient id="paint3_linear" x1="6441.82" y1="6662.63" x2="25813.3" y2="6662.63" gradientUnits="userSpaceOnUse">
<stop stop-color="#E8EAFB"/>
<stop offset="1" stop-color="white"/>
</linearGradient>
<linearGradient id="paint4_linear" x1="27.7575" y1="40.37" x2="83.5886" y2="40.37" gradientUnits="userSpaceOnUse">
<stop stop-color="#427DFF"/>
<stop offset="0.15625" stop-color="#366FFA"/>
<stop offset="0.291667" stop-color="#356EF9"/>
<stop offset="0.401042" stop-color="#245DCD"/>
<stop offset="0.55" stop-color="#174DBA"/>
<stop offset="0.8" stop-color="#4785FF"/>
<stop offset="1" stop-color="#427DFF"/>
</linearGradient>
<linearGradient id="paint5_linear" x1="27.7576" y1="36.9921" x2="83.5887" y2="36.9921" gradientUnits="userSpaceOnUse">
<stop stop-color="#326CF7"/>
<stop offset="1" stop-color="#42C0FF"/>
</linearGradient>
<linearGradient id="paint6_linear" x1="33.3563" y1="36.9922" x2="77.7931" y2="36.9922" gradientUnits="userSpaceOnUse">
<stop stop-color="#42C0FF"/>
<stop offset="1" stop-color="#42FFFF"/>
</linearGradient>
<linearGradient id="paint7_linear" x1="6854.09" y1="4419.91" x2="20585.2" y2="4419.91" gradientUnits="userSpaceOnUse">
<stop stop-color="#427DFF"/>
<stop offset="0.3" stop-color="#7023FF"/>
<stop offset="0.55" stop-color="#174DBA"/>
<stop offset="0.8" stop-color="#4785FF"/>
<stop offset="1" stop-color="#427DFF"/>
</linearGradient>
<linearGradient id="paint8_linear" x1="6855.2" y1="3147.93" x2="20588.5" y2="3147.93" gradientUnits="userSpaceOnUse">
<stop stop-color="#326CF7"/>
<stop offset="1" stop-color="#42C0FF"/>
</linearGradient>
<linearGradient id="paint9_linear" x1="6563.6" y1="2510.34" x2="15263.4" y2="2510.34" gradientUnits="userSpaceOnUse">
<stop stop-color="#42C0FF"/>
<stop offset="1" stop-color="#42FFFF"/>
</linearGradient>
<linearGradient id="paint10_linear" x1="6854.09" y1="2653.52" x2="20585.2" y2="2653.52" gradientUnits="userSpaceOnUse">
<stop stop-color="#427DFF"/>
<stop offset="0.3" stop-color="#7023FF"/>
<stop offset="0.55" stop-color="#174DBA"/>
<stop offset="0.8" stop-color="#4785FF"/>
<stop offset="1" stop-color="#427DFF"/>
</linearGradient>
<linearGradient id="paint11_linear" x1="6855.2" y1="1722.36" x2="20588.5" y2="1722.36" gradientUnits="userSpaceOnUse">
<stop stop-color="#326BF6"/>
<stop offset="1" stop-color="#42C0FF"/>
</linearGradient>
<linearGradient id="paint12_linear" x1="35.0705" y1="14.0007" x2="75.783" y2="14.0007" gradientUnits="userSpaceOnUse">
<stop stop-color="#E9ECFC"/>
<stop offset="0.46" stop-color="#D2DAFA"/>
<stop offset="1" stop-color="#BBC9F8"/>
</linearGradient>
<linearGradient id="paint13_linear" x1="5276.37" y1="902.483" x2="8991.79" y2="902.483" gradientUnits="userSpaceOnUse">
<stop stop-color="#2855C3"/>
<stop offset="1" stop-color="#42C0FF"/>
</linearGradient>
</defs>
</svg>
