<svg width="60" height="60" viewBox="0 0 60 60" fill="none" xmlns="http://www.w3.org/2000/svg">
<path d="M44.2707 34.08C44.8905 33.7212 45.6548 33.7212 46.2746 34.08L51.8327 37.2973C52.4504 37.6548 52.8307 38.3145 52.8307 39.0282V45.4718C52.8307 46.1855 52.4504 46.8452 51.8327 47.2027L46.2746 50.42C45.6548 50.7788 44.8905 50.7788 44.2707 50.42L38.7127 47.2027C38.095 46.8452 37.7146 46.1855 37.7146 45.4718V39.0282C37.7146 38.3145 38.095 37.6548 38.7127 37.2973L44.2707 34.08Z" fill="#326BF6"/>
<path opacity="0.8" d="M25.9435 9.57998C26.5633 9.22121 27.3276 9.22121 27.9474 9.57998L44.0867 18.9223C44.7044 19.2798 45.0847 19.9395 45.0847 20.6532V39.3468C45.0847 40.0605 44.7044 40.7202 44.0867 41.0777L27.9474 50.42C27.3276 50.7788 26.5633 50.7788 25.9435 50.42L9.80421 41.0777C9.1865 40.7202 8.80616 40.0605 8.80616 39.3468V20.6532C8.80616 19.9395 9.1865 19.2798 9.80421 18.9223L25.9435 9.57998Z" fill="#EFF2FE"/>
<ellipse cx="26.9455" cy="30" rx="6.10909" ry="6.125" fill="#326BF6"/>
</svg>
